%TF.GenerationSoftware,KiCad,Pcbnew,(6.0.1)*%
%TF.CreationDate,2022-07-11T22:10:01-04:00*%
%TF.ProjectId,Model K Pico-0.2,4d6f6465-6c20-44b2-9050-69636f2d302e,rev?*%
%TF.SameCoordinates,Original*%
%TF.FileFunction,Soldermask,Bot*%
%TF.FilePolarity,Negative*%
%FSLAX46Y46*%
G04 Gerber Fmt 4.6, Leading zero omitted, Abs format (unit mm)*
G04 Created by KiCad (PCBNEW (6.0.1)) date 2022-07-11 22:10:01*
%MOMM*%
%LPD*%
G01*
G04 APERTURE LIST*
G04 Aperture macros list*
%AMRoundRect*
0 Rectangle with rounded corners*
0 $1 Rounding radius*
0 $2 $3 $4 $5 $6 $7 $8 $9 X,Y pos of 4 corners*
0 Add a 4 corners polygon primitive as box body*
4,1,4,$2,$3,$4,$5,$6,$7,$8,$9,$2,$3,0*
0 Add four circle primitives for the rounded corners*
1,1,$1+$1,$2,$3*
1,1,$1+$1,$4,$5*
1,1,$1+$1,$6,$7*
1,1,$1+$1,$8,$9*
0 Add four rect primitives between the rounded corners*
20,1,$1+$1,$2,$3,$4,$5,0*
20,1,$1+$1,$4,$5,$6,$7,0*
20,1,$1+$1,$6,$7,$8,$9,0*
20,1,$1+$1,$8,$9,$2,$3,0*%
%AMHorizOval*
0 Thick line with rounded ends*
0 $1 width*
0 $2 $3 position (X,Y) of the first rounded end (center of the circle)*
0 $4 $5 position (X,Y) of the second rounded end (center of the circle)*
0 Add line between two ends*
20,1,$1,$2,$3,$4,$5,0*
0 Add two circle primitives to create the rounded ends*
1,1,$1,$2,$3*
1,1,$1,$4,$5*%
G04 Aperture macros list end*
%ADD10C,1.750000*%
%ADD11C,3.987800*%
%ADD12C,2.250000*%
%ADD13R,1.600000X1.600000*%
%ADD14O,1.600000X1.600000*%
%ADD15C,3.048000*%
%ADD16R,1.800000X1.800000*%
%ADD17C,1.800000*%
%ADD18O,0.650000X1.000000*%
%ADD19O,0.900000X1.700000*%
%ADD20O,0.900000X2.400000*%
%ADD21C,4.400000*%
%ADD22R,1.700000X1.700000*%
%ADD23O,1.700000X1.700000*%
%ADD24C,1.524000*%
%ADD25R,2.000000X2.000000*%
%ADD26C,2.000000*%
%ADD27C,3.200000*%
%ADD28C,1.400000*%
%ADD29HorizOval,1.400000X0.000000X0.000000X0.000000X0.000000X0*%
%ADD30RoundRect,0.437500X0.437500X-0.437500X0.437500X0.437500X-0.437500X0.437500X-0.437500X-0.437500X0*%
G04 APERTURE END LIST*
D10*
%TO.C,SW-1U-61*%
X161400000Y-157335000D03*
D11*
X166480000Y-157335000D03*
D10*
X171560000Y-157335000D03*
D12*
X162670000Y-154795000D03*
X169020000Y-152255000D03*
%TD*%
D13*
%TO.C,D75*%
X177457500Y-37675000D03*
D14*
X172377500Y-37675000D03*
%TD*%
D10*
%TO.C,SW-1U-80*%
X354130000Y-157330000D03*
X364290000Y-157330000D03*
D11*
X359210000Y-157330000D03*
D12*
X355400000Y-154790000D03*
X361750000Y-152250000D03*
%TD*%
D13*
%TO.C,D35*%
X145707500Y-45825000D03*
D14*
X140627500Y-45825000D03*
%TD*%
D11*
%TO.C,SW-1U-58*%
X109330000Y-157335000D03*
D10*
X104250000Y-157335000D03*
X114410000Y-157335000D03*
D12*
X105520000Y-154795000D03*
X111870000Y-152255000D03*
%TD*%
D13*
%TO.C,D38*%
X177457500Y-47685000D03*
D14*
X172377500Y-47685000D03*
%TD*%
D10*
%TO.C,SW-2.25U-55*%
X316185000Y-138285000D03*
D15*
X309358750Y-131300000D03*
D11*
X333171250Y-146540000D03*
X321265000Y-138285000D03*
D15*
X333171250Y-131300000D03*
D10*
X326345000Y-138285000D03*
D11*
X309358750Y-146540000D03*
D12*
X317455000Y-135745000D03*
X323805000Y-133205000D03*
%TD*%
D11*
%TO.C,SW-1U-24*%
X276025000Y-100185000D03*
D10*
X270945000Y-100185000D03*
X281105000Y-100185000D03*
D12*
X272215000Y-97645000D03*
X278565000Y-95105000D03*
%TD*%
D13*
%TO.C,D78*%
X308055000Y-63145000D03*
D14*
X302975000Y-63145000D03*
%TD*%
D11*
%TO.C,SW-1U-65*%
X242680000Y-157335000D03*
D10*
X237600000Y-157335000D03*
X247760000Y-157335000D03*
D12*
X238870000Y-154795000D03*
X245220000Y-152255000D03*
%TD*%
D13*
%TO.C,D29*%
X82537500Y-49095000D03*
D14*
X77457500Y-49095000D03*
%TD*%
D13*
%TO.C,D33*%
X124437500Y-45775000D03*
D14*
X119357500Y-45775000D03*
%TD*%
D13*
%TO.C,D28*%
X72167500Y-47425000D03*
D14*
X67087500Y-47425000D03*
%TD*%
D10*
%TO.C,SW-1U-77*%
X312535000Y-179885000D03*
D11*
X317615000Y-179885000D03*
D10*
X322695000Y-179885000D03*
D12*
X313805000Y-177345000D03*
X320155000Y-174805000D03*
%TD*%
D10*
%TO.C,SW-1U-22*%
X243005000Y-100185000D03*
X232845000Y-100185000D03*
D11*
X237925000Y-100185000D03*
D12*
X234115000Y-97645000D03*
X240465000Y-95105000D03*
%TD*%
D10*
%TO.C,SW-1U-48*%
X170930000Y-138285000D03*
D11*
X176010000Y-138285000D03*
D10*
X181090000Y-138285000D03*
D12*
X172200000Y-135745000D03*
X178550000Y-133205000D03*
%TD*%
D13*
%TO.C,D57*%
X72072500Y-40880000D03*
D14*
X66992500Y-40880000D03*
%TD*%
D11*
%TO.C,SW-1U-4*%
X155370000Y-76415000D03*
D10*
X150290000Y-76415000D03*
X160450000Y-76415000D03*
D12*
X151560000Y-73875000D03*
X157910000Y-71335000D03*
%TD*%
D13*
%TO.C,D69*%
X308140000Y-59785000D03*
D14*
X303060000Y-59785000D03*
%TD*%
D13*
%TO.C,D48*%
X124402500Y-42470000D03*
D14*
X119322500Y-42470000D03*
%TD*%
D16*
%TO.C,PowerLED1*%
X230015000Y-33585000D03*
D17*
X232555000Y-33585000D03*
%TD*%
D13*
%TO.C,D59*%
X92912500Y-40855000D03*
D14*
X87832500Y-40855000D03*
%TD*%
D11*
%TO.C,SW-1U-9*%
X276010000Y-76420000D03*
D10*
X281090000Y-76420000D03*
X270930000Y-76420000D03*
D12*
X272200000Y-73880000D03*
X278550000Y-71340000D03*
%TD*%
D13*
%TO.C,D54*%
X188057500Y-42845000D03*
D14*
X182977500Y-42845000D03*
%TD*%
D13*
%TO.C,D7*%
X156277500Y-52715000D03*
D14*
X151197500Y-52715000D03*
%TD*%
D10*
%TO.C,SW-1U-32*%
X157275000Y-119235000D03*
D11*
X152195000Y-119235000D03*
D10*
X147115000Y-119235000D03*
D12*
X148385000Y-116695000D03*
X154735000Y-114155000D03*
%TD*%
D18*
%TO.C,USB1*%
X223805000Y-35625000D03*
X222955000Y-35625000D03*
X222105000Y-35625000D03*
X221255000Y-35625000D03*
X220405000Y-35625000D03*
X219555000Y-35625000D03*
X218705000Y-35625000D03*
X217855000Y-35625000D03*
X217850000Y-34300000D03*
X218700000Y-34300000D03*
X219550000Y-34300000D03*
X220400000Y-34300000D03*
X221250000Y-34300000D03*
X222100000Y-34300000D03*
X222950000Y-34300000D03*
X223805000Y-34300000D03*
D19*
X216505000Y-31265000D03*
X225155000Y-31265000D03*
D20*
X225155000Y-34645000D03*
X216505000Y-34645000D03*
%TD*%
D10*
%TO.C,SW-1U-16*%
X118545000Y-100185000D03*
X128705000Y-100185000D03*
D11*
X123625000Y-100185000D03*
D12*
X119815000Y-97645000D03*
X126165000Y-95105000D03*
%TD*%
D13*
%TO.C,D16*%
X103512500Y-49200000D03*
D14*
X98432500Y-49200000D03*
%TD*%
D21*
%TO.C,*%
X358240000Y-88285000D03*
%TD*%
D13*
%TO.C,D65*%
X156302500Y-39365000D03*
D14*
X151222500Y-39365000D03*
%TD*%
D10*
%TO.C,SW-1U-50*%
X209030000Y-138285000D03*
D11*
X214110000Y-138285000D03*
D10*
X219190000Y-138285000D03*
D12*
X210300000Y-135745000D03*
X216650000Y-133205000D03*
%TD*%
D13*
%TO.C,D73*%
X135102500Y-37500000D03*
D14*
X130022500Y-37500000D03*
%TD*%
D11*
%TO.C,SW-1.25U-71*%
X92660000Y-176390000D03*
D10*
X97740000Y-176390000D03*
X87580000Y-176390000D03*
D12*
X88850000Y-173850000D03*
X95200000Y-171310000D03*
%TD*%
D10*
%TO.C,SW-1U-36*%
X233475000Y-119235000D03*
X223315000Y-119235000D03*
D11*
X228395000Y-119235000D03*
D12*
X224585000Y-116695000D03*
X230935000Y-114155000D03*
%TD*%
D13*
%TO.C,D40*%
X198537500Y-46205000D03*
D14*
X193457500Y-46205000D03*
%TD*%
D13*
%TO.C,D14*%
X82537500Y-52330000D03*
D14*
X77457500Y-52330000D03*
%TD*%
D22*
%TO.C,I2CHeader1*%
X303085000Y-49475000D03*
D23*
X303085000Y-46935000D03*
X303085000Y-44395000D03*
X303085000Y-41855000D03*
%TD*%
D13*
%TO.C,D30*%
X92847500Y-47400000D03*
D14*
X87767500Y-47400000D03*
%TD*%
D11*
%TO.C,SW-1.5U-28*%
X71235000Y-119240000D03*
D10*
X66155000Y-119240000D03*
X76315000Y-119240000D03*
D12*
X67425000Y-116700000D03*
X73775000Y-114160000D03*
%TD*%
D13*
%TO.C,D70*%
X72072500Y-37775000D03*
D14*
X66992500Y-37775000D03*
%TD*%
D13*
%TO.C,D47*%
X113967500Y-42375000D03*
D14*
X108887500Y-42375000D03*
%TD*%
D13*
%TO.C,D18*%
X124437500Y-49145000D03*
D14*
X119357500Y-49145000D03*
%TD*%
D11*
%TO.C,SW-1U-20*%
X199825000Y-100185000D03*
D10*
X194745000Y-100185000D03*
X204905000Y-100185000D03*
D12*
X196015000Y-97645000D03*
X202365000Y-95105000D03*
%TD*%
D11*
%TO.C,SW-1.25U-70*%
X68850000Y-176390000D03*
D10*
X63770000Y-176390000D03*
X73930000Y-176390000D03*
D12*
X65040000Y-173850000D03*
X71390000Y-171310000D03*
%TD*%
D13*
%TO.C,D13*%
X72137500Y-50600000D03*
D14*
X67057500Y-50600000D03*
%TD*%
D13*
%TO.C,D60*%
X103417500Y-39120000D03*
D14*
X98337500Y-39120000D03*
%TD*%
D13*
%TO.C,D44*%
X82550949Y-45740918D03*
D14*
X77470949Y-45740918D03*
%TD*%
D10*
%TO.C,SW-1U-74*%
X262045000Y-176385000D03*
X251885000Y-176385000D03*
D11*
X256965000Y-176385000D03*
D12*
X253155000Y-173845000D03*
X259505000Y-171305000D03*
%TD*%
D13*
%TO.C,D76*%
X188087500Y-39445000D03*
D14*
X183007500Y-39445000D03*
%TD*%
D10*
%TO.C,SW-1U-35*%
X204265000Y-119235000D03*
X214425000Y-119235000D03*
D11*
X209345000Y-119235000D03*
D12*
X205535000Y-116695000D03*
X211885000Y-114155000D03*
%TD*%
D24*
%TO.C,ROTARY1*%
X353515000Y-50265000D03*
D25*
X345995000Y-47765000D03*
D26*
X345995000Y-52765000D03*
X345995000Y-50265000D03*
D27*
X353495000Y-44665000D03*
X353495000Y-55865000D03*
D26*
X360495000Y-52765000D03*
X360495000Y-47765000D03*
%TD*%
D13*
%TO.C,D77*%
X198572500Y-39480000D03*
D14*
X193492500Y-39480000D03*
%TD*%
D13*
%TO.C,D61*%
X114002500Y-39200000D03*
D14*
X108922500Y-39200000D03*
%TD*%
D10*
%TO.C,SW-1U-3*%
X131240000Y-76415000D03*
D11*
X136320000Y-76415000D03*
D10*
X141400000Y-76415000D03*
D12*
X132510000Y-73875000D03*
X138860000Y-71335000D03*
%TD*%
D11*
%TO.C,SW-1U-8*%
X244280000Y-76405000D03*
D10*
X249360000Y-76405000D03*
X239200000Y-76405000D03*
D12*
X240470000Y-73865000D03*
X246820000Y-71325000D03*
%TD*%
D11*
%TO.C,SW-1U-7*%
X225230000Y-76405000D03*
D10*
X220150000Y-76405000D03*
X230310000Y-76405000D03*
D12*
X221420000Y-73865000D03*
X227770000Y-71325000D03*
%TD*%
D13*
%TO.C,D8*%
X166777500Y-54470000D03*
D14*
X161697500Y-54470000D03*
%TD*%
D13*
%TO.C,D25*%
X198557500Y-49565000D03*
D14*
X193477500Y-49565000D03*
%TD*%
D10*
%TO.C,SW-1U-31*%
X138225000Y-119235000D03*
X128065000Y-119235000D03*
D11*
X133145000Y-119235000D03*
D12*
X129335000Y-116695000D03*
X135685000Y-114155000D03*
%TD*%
D13*
%TO.C,D52*%
X166742500Y-44330000D03*
D14*
X161662500Y-44330000D03*
%TD*%
D10*
%TO.C,SW-1U-0*%
X61395000Y-76415000D03*
D11*
X66475000Y-76415000D03*
D10*
X71555000Y-76415000D03*
D12*
X62665000Y-73875000D03*
X69015000Y-71335000D03*
%TD*%
D13*
%TO.C,D41*%
X318337500Y-63020000D03*
D14*
X313257500Y-63020000D03*
%TD*%
D13*
%TO.C,D62*%
X124402500Y-39170000D03*
D14*
X119322500Y-39170000D03*
%TD*%
D13*
%TO.C,D55*%
X308150000Y-56670000D03*
D14*
X303070000Y-56670000D03*
%TD*%
D13*
%TO.C,D22*%
X166762500Y-50995000D03*
D14*
X161682500Y-50995000D03*
%TD*%
D28*
%TO.C,R2*%
X235400924Y-45334077D03*
D29*
X240789078Y-39945923D03*
%TD*%
D13*
%TO.C,D43*%
X72102500Y-44155000D03*
D14*
X67022500Y-44155000D03*
%TD*%
D10*
%TO.C,SW-1U-34*%
X185215000Y-119235000D03*
D11*
X190295000Y-119235000D03*
D10*
X195375000Y-119235000D03*
D12*
X186485000Y-116695000D03*
X192835000Y-114155000D03*
%TD*%
D11*
%TO.C,SW-1U-78*%
X336665000Y-179885000D03*
D10*
X341745000Y-179885000D03*
X331585000Y-179885000D03*
D12*
X332855000Y-177345000D03*
X339205000Y-174805000D03*
%TD*%
D11*
%TO.C,SW-1.5U-41*%
X328415000Y-119235000D03*
D10*
X323335000Y-119235000D03*
X333495000Y-119235000D03*
D12*
X324605000Y-116695000D03*
X330955000Y-114155000D03*
%TD*%
D10*
%TO.C,SW-1U-14*%
X80445000Y-100185000D03*
D11*
X85525000Y-100185000D03*
D10*
X90605000Y-100185000D03*
D12*
X81715000Y-97645000D03*
X88065000Y-95105000D03*
%TD*%
D11*
%TO.C,SW-1U-67*%
X280780000Y-157335000D03*
D10*
X275700000Y-157335000D03*
X285860000Y-157335000D03*
D12*
X276970000Y-154795000D03*
X283320000Y-152255000D03*
%TD*%
D11*
%TO.C,SW-1U-66*%
X261730000Y-157335000D03*
D10*
X256650000Y-157335000D03*
X266810000Y-157335000D03*
D12*
X257920000Y-154795000D03*
X264270000Y-152255000D03*
%TD*%
D13*
%TO.C,D58*%
X82602500Y-42515000D03*
D14*
X77522500Y-42515000D03*
%TD*%
D10*
%TO.C,SW-1U-59*%
X133460000Y-157335000D03*
X123300000Y-157335000D03*
D11*
X128380000Y-157335000D03*
D12*
X124570000Y-154795000D03*
X130920000Y-152255000D03*
%TD*%
D21*
%TO.C,*%
X359090000Y-168615000D03*
%TD*%
D28*
%TO.C,R4*%
X236613310Y-54091463D03*
D29*
X242001464Y-48703309D03*
%TD*%
D21*
%TO.C,*%
X217220000Y-88300000D03*
%TD*%
D13*
%TO.C,D56*%
X328872500Y-56670000D03*
D14*
X323792500Y-56670000D03*
%TD*%
D10*
%TO.C,SW-1.75U-43*%
X68535000Y-138290000D03*
X78695000Y-138290000D03*
D11*
X73615000Y-138290000D03*
D12*
X69805000Y-135750000D03*
X76155000Y-133210000D03*
%TD*%
D13*
%TO.C,D81*%
X339442500Y-56770000D03*
D14*
X334362500Y-56770000D03*
%TD*%
D13*
%TO.C,D12*%
X318392500Y-56675000D03*
D14*
X313312500Y-56675000D03*
%TD*%
D11*
%TO.C,SW-1U-5*%
X187130000Y-76405000D03*
D10*
X192210000Y-76405000D03*
X182050000Y-76405000D03*
D12*
X183320000Y-73865000D03*
X189670000Y-71325000D03*
%TD*%
D28*
%TO.C,R5*%
X237198310Y-58521463D03*
D29*
X242586464Y-53133309D03*
%TD*%
D13*
%TO.C,D21*%
X156277500Y-49360000D03*
D14*
X151197500Y-49360000D03*
%TD*%
D10*
%TO.C,SW-1U-1*%
X93140000Y-76415000D03*
D11*
X98220000Y-76415000D03*
D10*
X103300000Y-76415000D03*
D12*
X94410000Y-73875000D03*
X100760000Y-71335000D03*
%TD*%
D10*
%TO.C,SW-1U-17*%
X147755000Y-100185000D03*
D11*
X142675000Y-100185000D03*
D10*
X137595000Y-100185000D03*
D12*
X138865000Y-97645000D03*
X145215000Y-95105000D03*
%TD*%
D13*
%TO.C,D80*%
X328842500Y-59725000D03*
D14*
X323762500Y-59725000D03*
%TD*%
D11*
%TO.C,SW-1U-39*%
X285545000Y-119235000D03*
D10*
X290625000Y-119235000D03*
X280465000Y-119235000D03*
D12*
X281735000Y-116695000D03*
X288085000Y-114155000D03*
%TD*%
D10*
%TO.C,SW-1U-54*%
X285230000Y-138285000D03*
D11*
X290310000Y-138285000D03*
D10*
X295390000Y-138285000D03*
D12*
X286500000Y-135745000D03*
X292850000Y-133205000D03*
%TD*%
D13*
%TO.C,D9*%
X177392500Y-54460000D03*
D14*
X172312500Y-54460000D03*
%TD*%
D10*
%TO.C,SW-1U-30*%
X119175000Y-119235000D03*
X109015000Y-119235000D03*
D11*
X114095000Y-119235000D03*
D12*
X110285000Y-116695000D03*
X116635000Y-114155000D03*
%TD*%
D13*
%TO.C,D63*%
X135132500Y-40805000D03*
D14*
X130052500Y-40805000D03*
%TD*%
D13*
%TO.C,D3*%
X114097500Y-52515000D03*
D14*
X109017500Y-52515000D03*
%TD*%
D10*
%TO.C,SW-1U-38*%
X271575000Y-119235000D03*
X261415000Y-119235000D03*
D11*
X266495000Y-119235000D03*
D12*
X262685000Y-116695000D03*
X269035000Y-114155000D03*
%TD*%
D21*
%TO.C,*%
X185185000Y-32565000D03*
%TD*%
D28*
%TO.C,R3*%
X235943310Y-49761463D03*
D29*
X241331464Y-44373309D03*
%TD*%
D10*
%TO.C,SW-1U-44*%
X94730000Y-138285000D03*
X104890000Y-138285000D03*
D11*
X99810000Y-138285000D03*
D12*
X96000000Y-135745000D03*
X102350000Y-133205000D03*
%TD*%
D10*
%TO.C,SW-1U-56*%
X354130000Y-138280000D03*
D11*
X359210000Y-138280000D03*
D10*
X364290000Y-138280000D03*
D12*
X355400000Y-135740000D03*
X361750000Y-133200000D03*
%TD*%
D13*
%TO.C,D11*%
X198602500Y-52900000D03*
D14*
X193522500Y-52900000D03*
%TD*%
D10*
%TO.C,SW-1U-75*%
X270935000Y-176385000D03*
D11*
X276015000Y-176385000D03*
D10*
X281095000Y-176385000D03*
D12*
X272205000Y-173845000D03*
X278555000Y-171305000D03*
%TD*%
D10*
%TO.C,SW-1U-21*%
X223955000Y-100185000D03*
X213795000Y-100185000D03*
D11*
X218875000Y-100185000D03*
D12*
X215065000Y-97645000D03*
X221415000Y-95105000D03*
%TD*%
D13*
%TO.C,D51*%
X156292500Y-42545000D03*
D14*
X151212500Y-42545000D03*
%TD*%
D13*
%TO.C,D37*%
X166762500Y-47680000D03*
D14*
X161682500Y-47680000D03*
%TD*%
D10*
%TO.C,SW-1U-53*%
X276340000Y-138285000D03*
D11*
X271260000Y-138285000D03*
D10*
X266180000Y-138285000D03*
D12*
X267450000Y-135745000D03*
X273800000Y-133205000D03*
%TD*%
D10*
%TO.C,SW-1U-13*%
X61395000Y-100185000D03*
X71555000Y-100185000D03*
D11*
X66475000Y-100185000D03*
D12*
X62665000Y-97645000D03*
X69015000Y-95105000D03*
%TD*%
D10*
%TO.C,SW-1U-42*%
X364290000Y-119230000D03*
X354130000Y-119230000D03*
D11*
X359210000Y-119230000D03*
D12*
X355400000Y-116690000D03*
X361750000Y-114150000D03*
%TD*%
D11*
%TO.C,SW-1U-79*%
X355715000Y-179885000D03*
D10*
X350635000Y-179885000D03*
X360795000Y-179885000D03*
D12*
X351905000Y-177345000D03*
X358255000Y-174805000D03*
%TD*%
D13*
%TO.C,D71*%
X82572500Y-39310000D03*
D14*
X77492500Y-39310000D03*
%TD*%
D13*
%TO.C,D34*%
X135102500Y-47545000D03*
D14*
X130022500Y-47545000D03*
%TD*%
D10*
%TO.C,SW-1U-76*%
X289985000Y-176385000D03*
X300145000Y-176385000D03*
D11*
X295065000Y-176385000D03*
D12*
X291255000Y-173845000D03*
X297605000Y-171305000D03*
%TD*%
D13*
%TO.C,D6*%
X145677500Y-52730000D03*
D14*
X140597500Y-52730000D03*
%TD*%
D13*
%TO.C,D15*%
X92847500Y-50635000D03*
D14*
X87767500Y-50635000D03*
%TD*%
D13*
%TO.C,D46*%
X103447500Y-42425000D03*
D14*
X98367500Y-42425000D03*
%TD*%
D13*
%TO.C,D74*%
X166697500Y-37700000D03*
D14*
X161617500Y-37700000D03*
%TD*%
D13*
%TO.C,D24*%
X188087500Y-49585000D03*
D14*
X183007500Y-49585000D03*
%TD*%
D13*
%TO.C,D26*%
X318357500Y-59850000D03*
D14*
X313277500Y-59850000D03*
%TD*%
D10*
%TO.C,SW-1U-45*%
X113780000Y-138285000D03*
D11*
X118860000Y-138285000D03*
D10*
X123940000Y-138285000D03*
D12*
X115050000Y-135745000D03*
X121400000Y-133205000D03*
%TD*%
D13*
%TO.C,D23*%
X177392500Y-50990000D03*
D14*
X172312500Y-50990000D03*
%TD*%
D13*
%TO.C,D66*%
X166697500Y-41080000D03*
D14*
X161617500Y-41080000D03*
%TD*%
D10*
%TO.C,SW-1.75U-68*%
X312055000Y-157335000D03*
D11*
X306975000Y-157335000D03*
D10*
X301895000Y-157335000D03*
D12*
X303165000Y-154795000D03*
X309515000Y-152255000D03*
%TD*%
D13*
%TO.C,D10*%
X188022500Y-52920000D03*
D14*
X182942500Y-52920000D03*
%TD*%
D21*
%TO.C,*%
X66980000Y-88285000D03*
%TD*%
D11*
%TO.C,SW-1U-51*%
X233160000Y-138285000D03*
D10*
X228080000Y-138285000D03*
X238240000Y-138285000D03*
D12*
X229350000Y-135745000D03*
X235700000Y-133205000D03*
%TD*%
D23*
%TO.C,RPI1*%
X247995000Y-55535000D03*
X250535000Y-55535000D03*
D22*
X253075000Y-55535000D03*
D23*
X255615000Y-55535000D03*
X258155000Y-55535000D03*
X260695000Y-55535000D03*
X263235000Y-55535000D03*
D22*
X265775000Y-55535000D03*
D23*
X268315000Y-55535000D03*
X270855000Y-55535000D03*
X273395000Y-55535000D03*
X275935000Y-55535000D03*
D22*
X278475000Y-55535000D03*
D23*
X281015000Y-55535000D03*
X283555000Y-55535000D03*
X286095000Y-55535000D03*
X288635000Y-55535000D03*
D22*
X291175000Y-55535000D03*
D23*
X293715000Y-55535000D03*
X296255000Y-55535000D03*
X296255000Y-37755000D03*
X293715000Y-37755000D03*
D22*
X291175000Y-37755000D03*
D23*
X288635000Y-37755000D03*
X286095000Y-37755000D03*
X283555000Y-37755000D03*
X281015000Y-37755000D03*
D22*
X278475000Y-37755000D03*
D23*
X275935000Y-37755000D03*
X273395000Y-37755000D03*
X270855000Y-37755000D03*
X268315000Y-37755000D03*
D22*
X265775000Y-37755000D03*
D23*
X263235000Y-37755000D03*
X260695000Y-37755000D03*
X258155000Y-37755000D03*
X255615000Y-37755000D03*
D22*
X253075000Y-37755000D03*
D23*
X250535000Y-37755000D03*
X247995000Y-37755000D03*
X296025000Y-49185000D03*
D22*
X296025000Y-46645000D03*
D23*
X296025000Y-44105000D03*
D30*
X248000000Y-45629000D03*
X248000000Y-47661000D03*
%TD*%
D13*
%TO.C,D19*%
X135167500Y-50910000D03*
D14*
X130087500Y-50910000D03*
%TD*%
D13*
%TO.C,D4*%
X124402500Y-52485000D03*
D14*
X119322500Y-52485000D03*
%TD*%
D13*
%TO.C,D49*%
X135102500Y-44075000D03*
D14*
X130022500Y-44075000D03*
%TD*%
D13*
%TO.C,D64*%
X145717500Y-39295000D03*
D14*
X140637500Y-39295000D03*
%TD*%
D13*
%TO.C,D36*%
X156277500Y-45870000D03*
D14*
X151197500Y-45870000D03*
%TD*%
D10*
%TO.C,SW-1U-10*%
X300140000Y-76415000D03*
X289980000Y-76415000D03*
D11*
X295060000Y-76415000D03*
D12*
X291250000Y-73875000D03*
X297600000Y-71335000D03*
%TD*%
D10*
%TO.C,SW-1U-29*%
X89965000Y-119235000D03*
X100125000Y-119235000D03*
D11*
X95045000Y-119235000D03*
D12*
X91235000Y-116695000D03*
X97585000Y-114155000D03*
%TD*%
D21*
%TO.C,REF\u002A\u002A*%
X364885000Y-33430000D03*
%TD*%
D10*
%TO.C,SW-1U-37*%
X242365000Y-119235000D03*
X252525000Y-119235000D03*
D11*
X247445000Y-119235000D03*
D12*
X243635000Y-116695000D03*
X249985000Y-114155000D03*
%TD*%
D13*
%TO.C,D72*%
X92912500Y-37650000D03*
D14*
X87832500Y-37650000D03*
%TD*%
D13*
%TO.C,D17*%
X114097500Y-49180000D03*
D14*
X109017500Y-49180000D03*
%TD*%
D13*
%TO.C,D32*%
X114002500Y-45775000D03*
D14*
X108922500Y-45775000D03*
%TD*%
D10*
%TO.C,SW-1U-12*%
X338240000Y-76415000D03*
D11*
X333160000Y-76415000D03*
D10*
X328080000Y-76415000D03*
D12*
X329350000Y-73875000D03*
X335700000Y-71335000D03*
%TD*%
D10*
%TO.C,SW-1U-23*%
X262055000Y-100185000D03*
D11*
X256975000Y-100185000D03*
D10*
X251895000Y-100185000D03*
D12*
X253165000Y-97645000D03*
X259515000Y-95105000D03*
%TD*%
D10*
%TO.C,SW-1U-49*%
X200140000Y-138285000D03*
X189980000Y-138285000D03*
D11*
X195060000Y-138285000D03*
D12*
X191250000Y-135745000D03*
X197600000Y-133205000D03*
%TD*%
D13*
%TO.C,D79*%
X328842500Y-63085000D03*
D14*
X323762500Y-63085000D03*
%TD*%
D10*
%TO.C,SW-1U-2*%
X122350000Y-76415000D03*
X112190000Y-76415000D03*
D11*
X117270000Y-76415000D03*
D12*
X113460000Y-73875000D03*
X119810000Y-71335000D03*
%TD*%
D11*
%TO.C,SW-1U-19*%
X180775000Y-100185000D03*
D10*
X175695000Y-100185000D03*
X185855000Y-100185000D03*
D12*
X176965000Y-97645000D03*
X183315000Y-95105000D03*
%TD*%
D21*
%TO.C,*%
X60455000Y-165530000D03*
%TD*%
D13*
%TO.C,D42*%
X339390000Y-63270000D03*
D14*
X334310000Y-63270000D03*
%TD*%
D13*
%TO.C,D20*%
X145707500Y-49275000D03*
D14*
X140627500Y-49275000D03*
%TD*%
D10*
%TO.C,SW-1U-69*%
X331585000Y-160835000D03*
D11*
X336665000Y-160835000D03*
D10*
X341745000Y-160835000D03*
D12*
X332855000Y-158295000D03*
X339205000Y-155755000D03*
%TD*%
D21*
%TO.C,*%
X217730000Y-183415000D03*
%TD*%
D10*
%TO.C,SW-1U-15*%
X109655000Y-100185000D03*
D11*
X104575000Y-100185000D03*
D10*
X99495000Y-100185000D03*
D12*
X100765000Y-97645000D03*
X107115000Y-95105000D03*
%TD*%
D11*
%TO.C,SW-1U-6*%
X206180000Y-76405000D03*
D10*
X211260000Y-76405000D03*
X201100000Y-76405000D03*
D12*
X202370000Y-73865000D03*
X208720000Y-71325000D03*
%TD*%
D13*
%TO.C,D27*%
X339462500Y-59890000D03*
D14*
X334382500Y-59890000D03*
%TD*%
D13*
%TO.C,D39*%
X188087500Y-46215000D03*
D14*
X183007500Y-46215000D03*
%TD*%
D10*
%TO.C,SW-1U-25*%
X300155000Y-100185000D03*
X289995000Y-100185000D03*
D11*
X295075000Y-100185000D03*
D12*
X291265000Y-97645000D03*
X297615000Y-95105000D03*
%TD*%
D13*
%TO.C,D68*%
X198557500Y-42865000D03*
D14*
X193477500Y-42865000D03*
%TD*%
D10*
%TO.C,SW-1U-40*%
X299515000Y-119235000D03*
D11*
X304595000Y-119235000D03*
D10*
X309675000Y-119235000D03*
D12*
X300785000Y-116695000D03*
X307135000Y-114155000D03*
%TD*%
D21*
%TO.C,*%
X60365000Y-33150000D03*
%TD*%
D10*
%TO.C,SW-1U-11*%
X319190000Y-76415000D03*
D11*
X314110000Y-76415000D03*
D10*
X309030000Y-76415000D03*
D12*
X310300000Y-73875000D03*
X316650000Y-71335000D03*
%TD*%
D10*
%TO.C,SW-1U-60*%
X142350000Y-157335000D03*
X152510000Y-157335000D03*
D11*
X147430000Y-157335000D03*
D12*
X143620000Y-154795000D03*
X149970000Y-152255000D03*
%TD*%
D13*
%TO.C,D2*%
X103482500Y-52500000D03*
D14*
X98402500Y-52500000D03*
%TD*%
D13*
%TO.C,D50*%
X145712500Y-42560000D03*
D14*
X140632500Y-42560000D03*
%TD*%
D11*
%TO.C,SW-1U-52*%
X252210000Y-138285000D03*
D10*
X247130000Y-138285000D03*
X257290000Y-138285000D03*
D12*
X248400000Y-135745000D03*
X254750000Y-133205000D03*
%TD*%
D13*
%TO.C,D53*%
X177457500Y-44350000D03*
D14*
X172377500Y-44350000D03*
%TD*%
D13*
%TO.C,D67*%
X177487500Y-41045000D03*
D14*
X172407500Y-41045000D03*
%TD*%
D11*
%TO.C,SW-1U-64*%
X223630000Y-157335000D03*
D10*
X218550000Y-157335000D03*
X228710000Y-157335000D03*
D12*
X219820000Y-154795000D03*
X226170000Y-152255000D03*
%TD*%
D11*
%TO.C,SW-1.25U-72*%
X116475000Y-176385000D03*
D10*
X121555000Y-176385000D03*
X111395000Y-176385000D03*
D12*
X112665000Y-173845000D03*
X119015000Y-171305000D03*
%TD*%
D10*
%TO.C,SW-6.25U-73*%
X182830000Y-176385000D03*
D11*
X137910100Y-184640000D03*
D15*
X237909900Y-169400000D03*
D11*
X237909900Y-184640000D03*
X187910000Y-176385000D03*
D15*
X137910100Y-169400000D03*
D10*
X192990000Y-176385000D03*
D12*
X184100000Y-173845000D03*
X190450000Y-171305000D03*
%TD*%
D13*
%TO.C,D45*%
X92882500Y-44225000D03*
D14*
X87802500Y-44225000D03*
%TD*%
D10*
%TO.C,SW-1U-33*%
X176325000Y-119235000D03*
X166165000Y-119235000D03*
D11*
X171245000Y-119235000D03*
D12*
X167435000Y-116695000D03*
X173785000Y-114155000D03*
%TD*%
D10*
%TO.C,SW-1U-47*%
X162040000Y-138285000D03*
D11*
X156960000Y-138285000D03*
D10*
X151880000Y-138285000D03*
D12*
X153150000Y-135745000D03*
X159500000Y-133205000D03*
%TD*%
D10*
%TO.C,SW-1U-62*%
X180450000Y-157335000D03*
D11*
X185530000Y-157335000D03*
D10*
X190610000Y-157335000D03*
D12*
X181720000Y-154795000D03*
X188070000Y-152255000D03*
%TD*%
D11*
%TO.C,SW-1U-63*%
X204580000Y-157335000D03*
D10*
X199500000Y-157335000D03*
X209660000Y-157335000D03*
D12*
X200770000Y-154795000D03*
X207120000Y-152255000D03*
%TD*%
D13*
%TO.C,D0*%
X72137500Y-53835000D03*
D14*
X67057500Y-53835000D03*
%TD*%
D10*
%TO.C,SW-1U-18*%
X156645000Y-100185000D03*
D11*
X161725000Y-100185000D03*
D10*
X166805000Y-100185000D03*
D12*
X157915000Y-97645000D03*
X164265000Y-95105000D03*
%TD*%
D11*
%TO.C,SW-1U-27*%
X359210000Y-100180000D03*
D10*
X354130000Y-100180000D03*
X364290000Y-100180000D03*
D12*
X355400000Y-97640000D03*
X361750000Y-95100000D03*
%TD*%
D15*
%TO.C,SW-2U-26*%
X311743750Y-93200000D03*
D11*
X335556250Y-108440000D03*
D10*
X328730000Y-100185000D03*
D11*
X311743750Y-108440000D03*
D15*
X335556250Y-93200000D03*
D10*
X318570000Y-100185000D03*
D11*
X323650000Y-100185000D03*
D12*
X319840000Y-97645000D03*
X326190000Y-95105000D03*
%TD*%
D13*
%TO.C,D31*%
X103467500Y-45775000D03*
D14*
X98387500Y-45775000D03*
%TD*%
D28*
%TO.C,R1*%
X234963310Y-41196463D03*
D29*
X240351464Y-35808309D03*
%TD*%
D11*
%TO.C,SW-2.25U-57*%
X78375000Y-157340000D03*
X90281250Y-165595000D03*
D10*
X83455000Y-157340000D03*
D11*
X66468750Y-165595000D03*
D10*
X73295000Y-157340000D03*
D15*
X90281250Y-150355000D03*
X66468750Y-150355000D03*
D12*
X74565000Y-154800000D03*
X80915000Y-152260000D03*
%TD*%
D10*
%TO.C,SW-1U-46*%
X142990000Y-138285000D03*
X132830000Y-138285000D03*
D11*
X137910000Y-138285000D03*
D12*
X134100000Y-135745000D03*
X140450000Y-133205000D03*
%TD*%
D13*
%TO.C,D5*%
X135167500Y-54315000D03*
D14*
X130087500Y-54315000D03*
%TD*%
D13*
%TO.C,D1*%
X92882500Y-53940000D03*
D14*
X87802500Y-53940000D03*
%TD*%
M02*
