M48
; DRILL file {KiCad (6.0.1)} date Wed Jul 13 18:13:42 2022
; FORMAT={-:-/ absolute / inch / decimal}
; #@! TF.CreationDate,2022-07-13T18:13:42-04:00
; #@! TF.GenerationSoftware,Kicad,Pcbnew,(6.0.1)
; #@! TF.FileFunction,NonPlated,1,2,NPTH
FMAT,2
INCH
; #@! TA.AperFunction,NonPlated,NPTH,ComponentDrill
T1C0.0689
; #@! TA.AperFunction,NonPlated,NPTH,ComponentDrill
T2C0.0984
; #@! TA.AperFunction,NonPlated,NPTH,ComponentDrill
T3C0.1200
; #@! TA.AperFunction,NonPlated,NPTH,ComponentDrill
T4C0.1570
%
G90
G05
T1
X2.4171Y-3.0085
X2.4171Y-3.9443
X2.5106Y-6.9445
X2.6045Y-4.6945
X2.6982Y-5.4445
X2.8171Y-3.0085
X2.8171Y-3.9443
X2.8856Y-6.1945
X2.9106Y-6.9445
X3.0045Y-4.6945
X3.0982Y-5.4445
X3.1671Y-3.9443
X3.2856Y-6.1945
X3.448Y-6.9445
X3.5419Y-4.6943
X3.5671Y-3.9443
X3.6669Y-3.0085
X3.7295Y-5.4443
X3.848Y-6.9445
X3.9171Y-3.9443
X3.9419Y-4.6943
X4.0669Y-3.0085
X4.1043Y-6.1943
X4.1295Y-5.4443
X4.2919Y-4.6943
X4.3171Y-3.9443
X4.3856Y-6.9443
X4.4169Y-3.0085
X4.4795Y-5.4443
X4.5043Y-6.1943
X4.6671Y-3.9443
X4.6919Y-4.6943
X4.7856Y-6.9443
X4.8169Y-3.0085
X4.8543Y-6.1943
X4.8795Y-5.4443
X5.0419Y-4.6943
X5.0671Y-3.9443
X5.1669Y-3.0085
X5.2295Y-5.4443
X5.2543Y-6.1943
X5.4171Y-3.9443
X5.4419Y-4.6943
X5.5669Y-3.0085
X5.6043Y-6.1943
X5.6295Y-5.4443
X5.7919Y-4.6943
X5.8171Y-3.9443
X5.9169Y-3.0085
X5.9795Y-5.4443
X6.0043Y-6.1943
X6.1671Y-3.9443
X6.1919Y-4.6943
X6.3169Y-3.0085
X6.3543Y-6.1943
X6.3795Y-5.4443
X6.5419Y-4.6943
X6.5671Y-3.9443
X6.7295Y-5.4443
X6.7543Y-6.1943
X6.9171Y-3.9443
X6.9419Y-4.6943
X7.1043Y-6.1943
X7.1295Y-5.4443
X7.1673Y-3.0081
X7.198Y-6.9443
X7.2919Y-4.6943
X7.3171Y-3.9443
X7.4795Y-5.4443
X7.5043Y-6.1943
X7.5673Y-3.0081
X7.598Y-6.9443
X7.6671Y-3.9443
X7.6919Y-4.6943
X7.8543Y-6.1943
X7.8795Y-5.4443
X7.9173Y-3.0081
X8.0419Y-4.6943
X8.0671Y-3.9443
X8.2295Y-5.4443
X8.2543Y-6.1943
X8.3173Y-3.0081
X8.4171Y-3.9443
X8.4419Y-4.6943
X8.6043Y-6.1943
X8.6295Y-5.4443
X8.6673Y-3.0081
X8.7919Y-4.6943
X8.8171Y-3.9443
X8.9795Y-5.4443
X9.0043Y-6.1943
X9.0673Y-3.0081
X9.1671Y-3.9443
X9.1919Y-4.6943
X9.3543Y-6.1943
X9.3795Y-5.4443
X9.4173Y-3.0081
X9.5419Y-4.6943
X9.5671Y-3.9443
X9.7295Y-5.4443
X9.7543Y-6.1943
X9.8173Y-3.0081
X9.9167Y-6.9443
X9.9171Y-3.9443
X9.9419Y-4.6943
X10.1043Y-6.1943
X10.1295Y-5.4443
X10.2919Y-4.6943
X10.3167Y-6.9443
X10.3171Y-3.9443
X10.4795Y-5.4443
X10.5043Y-6.1943
X10.6665Y-3.0087
X10.6667Y-6.9443
X10.6671Y-3.9443
X10.6919Y-4.6943
X10.8543Y-6.1943
X10.8795Y-5.4443
X11.0419Y-4.6943
X11.0665Y-3.0087
X11.0667Y-6.9443
X11.0671Y-3.9443
X11.2295Y-5.4443
X11.2543Y-6.1943
X11.4165Y-3.0085
X11.4167Y-6.9443
X11.4171Y-3.9443
X11.4419Y-4.6943
X11.6295Y-5.4443
X11.7919Y-4.6943
X11.8165Y-3.0085
X11.8167Y-6.9443
X11.8171Y-3.9443
X11.8856Y-6.1943
X12.1665Y-3.0085
X12.1919Y-4.6943
X12.2856Y-6.1943
X12.3045Y-7.0821
X12.4482Y-5.4443
X12.5421Y-3.9443
X12.5665Y-3.0085
X12.7045Y-7.0821
X12.7297Y-4.6943
X12.8482Y-5.4443
X12.9165Y-3.0085
X12.9421Y-3.9443
X13.0545Y-6.3321
X13.0545Y-7.0821
X13.1297Y-4.6943
X13.3165Y-3.0085
X13.4545Y-6.3321
X13.4545Y-7.0821
X13.8045Y-7.0821
X13.9421Y-3.9441
X13.9421Y-4.6941
X13.9421Y-5.4441
X13.9421Y-6.1941
X14.2045Y-7.0821
X14.3421Y-3.9441
X14.3421Y-4.6941
X14.3421Y-5.4441
X14.3421Y-6.1941
T2
X13.9179Y-1.9789
T3
X2.6169Y-5.9195
X3.5544Y-5.9195
X5.4295Y-6.6693
X9.3665Y-6.6693
X12.1795Y-5.1693
X12.2734Y-3.6693
X13.117Y-5.1693
X13.2109Y-3.6693
T4
X2.6169Y-6.5195
X2.6171Y-3.0085
X2.6171Y-3.9443
X2.7106Y-6.9445
X2.8045Y-4.6945
X2.8982Y-5.4445
X3.0856Y-6.1945
X3.3671Y-3.9443
X3.5544Y-6.5195
X3.648Y-6.9445
X3.7419Y-4.6943
X3.8669Y-3.0085
X3.9295Y-5.4443
X4.1171Y-3.9443
X4.3043Y-6.1943
X4.4919Y-4.6943
X4.5856Y-6.9443
X4.6169Y-3.0085
X4.6795Y-5.4443
X4.8671Y-3.9443
X5.0543Y-6.1943
X5.2419Y-4.6943
X5.3669Y-3.0085
X5.4295Y-5.4443
X5.4295Y-7.2693
X5.6171Y-3.9443
X5.8043Y-6.1943
X5.9919Y-4.6943
X6.1169Y-3.0085
X6.1795Y-5.4443
X6.3671Y-3.9443
X6.5543Y-6.1943
X6.7419Y-4.6943
X6.9295Y-5.4443
X7.1171Y-3.9443
X7.3043Y-6.1943
X7.3673Y-3.0081
X7.398Y-6.9443
X7.4919Y-4.6943
X7.6795Y-5.4443
X7.8671Y-3.9443
X8.0543Y-6.1943
X8.1173Y-3.0081
X8.2419Y-4.6943
X8.4295Y-5.4443
X8.6171Y-3.9443
X8.8043Y-6.1943
X8.8673Y-3.0081
X8.9919Y-4.6943
X9.1795Y-5.4443
X9.3665Y-7.2693
X9.3671Y-3.9443
X9.5543Y-6.1943
X9.6173Y-3.0081
X9.7419Y-4.6943
X9.9295Y-5.4443
X10.1167Y-6.9443
X10.1171Y-3.9443
X10.3043Y-6.1943
X10.4919Y-4.6943
X10.6795Y-5.4443
X10.8665Y-3.0087
X10.8667Y-6.9443
X10.8671Y-3.9443
X11.0543Y-6.1943
X11.2419Y-4.6943
X11.4295Y-5.4443
X11.6165Y-3.0085
X11.6167Y-6.9443
X11.6171Y-3.9443
X11.9919Y-4.6943
X12.0856Y-6.1943
X12.1795Y-5.7693
X12.2734Y-4.2693
X12.3665Y-3.0085
X12.5045Y-7.0821
X12.6482Y-5.4443
X12.7421Y-3.9443
X12.9297Y-4.6943
X13.1165Y-3.0085
X13.117Y-5.7693
X13.2109Y-4.2693
X13.2545Y-6.3321
X13.2545Y-7.0821
X14.0045Y-7.0821
X14.1421Y-3.9441
X14.1421Y-4.6941
X14.1421Y-5.4441
X14.1421Y-6.1941
T0
M30
