%TF.GenerationSoftware,KiCad,Pcbnew,(6.0.1)*%
%TF.CreationDate,2022-07-13T18:13:40-04:00*%
%TF.ProjectId,Model K Pico-0.2,4d6f6465-6c20-44b2-9050-69636f2d302e,rev?*%
%TF.SameCoordinates,Original*%
%TF.FileFunction,Legend,Bot*%
%TF.FilePolarity,Positive*%
%FSLAX46Y46*%
G04 Gerber Fmt 4.6, Leading zero omitted, Abs format (unit mm)*
G04 Created by KiCad (PCBNEW (6.0.1)) date 2022-07-13 18:13:40*
%MOMM*%
%LPD*%
G01*
G04 APERTURE LIST*
%ADD10C,0.150000*%
G04 APERTURE END LIST*
D10*
X291390714Y-47137380D02*
X291390714Y-46137380D01*
X290962142Y-47137380D02*
X290962142Y-46613571D01*
X291009761Y-46518333D01*
X291105000Y-46470714D01*
X291247857Y-46470714D01*
X291343095Y-46518333D01*
X291390714Y-46565952D01*
X290628809Y-46470714D02*
X290247857Y-46470714D01*
X290485952Y-46137380D02*
X290485952Y-46994523D01*
X290438333Y-47089761D01*
X290343095Y-47137380D01*
X290247857Y-47137380D01*
X290057380Y-46470714D02*
X289676428Y-46470714D01*
X289914523Y-46137380D02*
X289914523Y-46994523D01*
X289866904Y-47089761D01*
X289771666Y-47137380D01*
X289676428Y-47137380D01*
X289343095Y-46470714D02*
X289343095Y-47470714D01*
X289343095Y-46518333D02*
X289247857Y-46470714D01*
X289057380Y-46470714D01*
X288962142Y-46518333D01*
X288914523Y-46565952D01*
X288866904Y-46661190D01*
X288866904Y-46946904D01*
X288914523Y-47042142D01*
X288962142Y-47089761D01*
X289057380Y-47137380D01*
X289247857Y-47137380D01*
X289343095Y-47089761D01*
X288485952Y-47089761D02*
X288390714Y-47137380D01*
X288200238Y-47137380D01*
X288105000Y-47089761D01*
X288057380Y-46994523D01*
X288057380Y-46946904D01*
X288105000Y-46851666D01*
X288200238Y-46804047D01*
X288343095Y-46804047D01*
X288438333Y-46756428D01*
X288485952Y-46661190D01*
X288485952Y-46613571D01*
X288438333Y-46518333D01*
X288343095Y-46470714D01*
X288200238Y-46470714D01*
X288105000Y-46518333D01*
X287628809Y-47042142D02*
X287581190Y-47089761D01*
X287628809Y-47137380D01*
X287676428Y-47089761D01*
X287628809Y-47042142D01*
X287628809Y-47137380D01*
X287628809Y-46518333D02*
X287581190Y-46565952D01*
X287628809Y-46613571D01*
X287676428Y-46565952D01*
X287628809Y-46518333D01*
X287628809Y-46613571D01*
X286438333Y-46089761D02*
X287295476Y-47375476D01*
X285390714Y-46089761D02*
X286247857Y-47375476D01*
X284628809Y-46470714D02*
X284628809Y-47280238D01*
X284676428Y-47375476D01*
X284724047Y-47423095D01*
X284819285Y-47470714D01*
X284962142Y-47470714D01*
X285057380Y-47423095D01*
X284628809Y-47089761D02*
X284724047Y-47137380D01*
X284914523Y-47137380D01*
X285009761Y-47089761D01*
X285057380Y-47042142D01*
X285105000Y-46946904D01*
X285105000Y-46661190D01*
X285057380Y-46565952D01*
X285009761Y-46518333D01*
X284914523Y-46470714D01*
X284724047Y-46470714D01*
X284628809Y-46518333D01*
X284152619Y-47137380D02*
X284152619Y-46470714D01*
X284152619Y-46137380D02*
X284200238Y-46185000D01*
X284152619Y-46232619D01*
X284105000Y-46185000D01*
X284152619Y-46137380D01*
X284152619Y-46232619D01*
X283819285Y-46470714D02*
X283438333Y-46470714D01*
X283676428Y-46137380D02*
X283676428Y-46994523D01*
X283628809Y-47089761D01*
X283533571Y-47137380D01*
X283438333Y-47137380D01*
X283105000Y-47137380D02*
X283105000Y-46137380D01*
X282676428Y-47137380D02*
X282676428Y-46613571D01*
X282724047Y-46518333D01*
X282819285Y-46470714D01*
X282962142Y-46470714D01*
X283057380Y-46518333D01*
X283105000Y-46565952D01*
X281771666Y-46470714D02*
X281771666Y-47137380D01*
X282200238Y-46470714D02*
X282200238Y-46994523D01*
X282152619Y-47089761D01*
X282057380Y-47137380D01*
X281914523Y-47137380D01*
X281819285Y-47089761D01*
X281771666Y-47042142D01*
X281295476Y-47137380D02*
X281295476Y-46137380D01*
X281295476Y-46518333D02*
X281200238Y-46470714D01*
X281009761Y-46470714D01*
X280914523Y-46518333D01*
X280866904Y-46565952D01*
X280819285Y-46661190D01*
X280819285Y-46946904D01*
X280866904Y-47042142D01*
X280914523Y-47089761D01*
X281009761Y-47137380D01*
X281200238Y-47137380D01*
X281295476Y-47089761D01*
X280390714Y-47042142D02*
X280343095Y-47089761D01*
X280390714Y-47137380D01*
X280438333Y-47089761D01*
X280390714Y-47042142D01*
X280390714Y-47137380D01*
X279485952Y-47089761D02*
X279581190Y-47137380D01*
X279771666Y-47137380D01*
X279866904Y-47089761D01*
X279914523Y-47042142D01*
X279962142Y-46946904D01*
X279962142Y-46661190D01*
X279914523Y-46565952D01*
X279866904Y-46518333D01*
X279771666Y-46470714D01*
X279581190Y-46470714D01*
X279485952Y-46518333D01*
X278914523Y-47137380D02*
X279009761Y-47089761D01*
X279057380Y-47042142D01*
X279105000Y-46946904D01*
X279105000Y-46661190D01*
X279057380Y-46565952D01*
X279009761Y-46518333D01*
X278914523Y-46470714D01*
X278771666Y-46470714D01*
X278676428Y-46518333D01*
X278628809Y-46565952D01*
X278581190Y-46661190D01*
X278581190Y-46946904D01*
X278628809Y-47042142D01*
X278676428Y-47089761D01*
X278771666Y-47137380D01*
X278914523Y-47137380D01*
X278152619Y-47137380D02*
X278152619Y-46470714D01*
X278152619Y-46565952D02*
X278105000Y-46518333D01*
X278009761Y-46470714D01*
X277866904Y-46470714D01*
X277771666Y-46518333D01*
X277724047Y-46613571D01*
X277724047Y-47137380D01*
X277724047Y-46613571D02*
X277676428Y-46518333D01*
X277581190Y-46470714D01*
X277438333Y-46470714D01*
X277343095Y-46518333D01*
X277295476Y-46613571D01*
X277295476Y-47137380D01*
X276105000Y-46089761D02*
X276962142Y-47375476D01*
X275914523Y-46137380D02*
X275343095Y-46137380D01*
X275628809Y-47137380D02*
X275628809Y-46137380D01*
X275009761Y-47137380D02*
X275009761Y-46470714D01*
X275009761Y-46661190D02*
X274962142Y-46565952D01*
X274914523Y-46518333D01*
X274819285Y-46470714D01*
X274724047Y-46470714D01*
X274247857Y-47137380D02*
X274343095Y-47089761D01*
X274390714Y-47042142D01*
X274438333Y-46946904D01*
X274438333Y-46661190D01*
X274390714Y-46565952D01*
X274343095Y-46518333D01*
X274247857Y-46470714D01*
X274105000Y-46470714D01*
X274009761Y-46518333D01*
X273962142Y-46565952D01*
X273914523Y-46661190D01*
X273914523Y-46946904D01*
X273962142Y-47042142D01*
X274009761Y-47089761D01*
X274105000Y-47137380D01*
X274247857Y-47137380D01*
X273485952Y-46470714D02*
X273485952Y-47327857D01*
X273533571Y-47423095D01*
X273628809Y-47470714D01*
X273676428Y-47470714D01*
X273485952Y-46137380D02*
X273533571Y-46185000D01*
X273485952Y-46232619D01*
X273438333Y-46185000D01*
X273485952Y-46137380D01*
X273485952Y-46232619D01*
X272581190Y-47137380D02*
X272581190Y-46613571D01*
X272628809Y-46518333D01*
X272724047Y-46470714D01*
X272914523Y-46470714D01*
X273009761Y-46518333D01*
X272581190Y-47089761D02*
X272676428Y-47137380D01*
X272914523Y-47137380D01*
X273009761Y-47089761D01*
X273057380Y-46994523D01*
X273057380Y-46899285D01*
X273009761Y-46804047D01*
X272914523Y-46756428D01*
X272676428Y-46756428D01*
X272581190Y-46708809D01*
X272105000Y-46470714D02*
X272105000Y-47137380D01*
X272105000Y-46565952D02*
X272057380Y-46518333D01*
X271962142Y-46470714D01*
X271819285Y-46470714D01*
X271724047Y-46518333D01*
X271676428Y-46613571D01*
X271676428Y-47137380D01*
X271200238Y-47137380D02*
X271200238Y-46137380D01*
X270819285Y-46137380D01*
X270724047Y-46185000D01*
X270676428Y-46232619D01*
X270628809Y-46327857D01*
X270628809Y-46470714D01*
X270676428Y-46565952D01*
X270724047Y-46613571D01*
X270819285Y-46661190D01*
X271200238Y-46661190D01*
X270200238Y-47137380D02*
X270200238Y-46470714D01*
X270200238Y-46137380D02*
X270247857Y-46185000D01*
X270200238Y-46232619D01*
X270152619Y-46185000D01*
X270200238Y-46137380D01*
X270200238Y-46232619D01*
X269724047Y-46470714D02*
X269724047Y-47137380D01*
X269724047Y-46565952D02*
X269676428Y-46518333D01*
X269581190Y-46470714D01*
X269438333Y-46470714D01*
X269343095Y-46518333D01*
X269295476Y-46613571D01*
X269295476Y-47137380D01*
X268390714Y-47137380D02*
X268390714Y-46613571D01*
X268438333Y-46518333D01*
X268533571Y-46470714D01*
X268724047Y-46470714D01*
X268819285Y-46518333D01*
X268390714Y-47089761D02*
X268485952Y-47137380D01*
X268724047Y-47137380D01*
X268819285Y-47089761D01*
X268866904Y-46994523D01*
X268866904Y-46899285D01*
X268819285Y-46804047D01*
X268724047Y-46756428D01*
X268485952Y-46756428D01*
X268390714Y-46708809D01*
X268057380Y-46470714D02*
X267676428Y-46470714D01*
X267914523Y-46137380D02*
X267914523Y-46994523D01*
X267866904Y-47089761D01*
X267771666Y-47137380D01*
X267676428Y-47137380D01*
X266914523Y-47137380D02*
X266914523Y-46613571D01*
X266962142Y-46518333D01*
X267057380Y-46470714D01*
X267247857Y-46470714D01*
X267343095Y-46518333D01*
X266914523Y-47089761D02*
X267009761Y-47137380D01*
X267247857Y-47137380D01*
X267343095Y-47089761D01*
X267390714Y-46994523D01*
X267390714Y-46899285D01*
X267343095Y-46804047D01*
X267247857Y-46756428D01*
X267009761Y-46756428D01*
X266914523Y-46708809D01*
X265724047Y-46089761D02*
X266581190Y-47375476D01*
X265390714Y-47137380D02*
X265390714Y-46137380D01*
X265057380Y-46851666D01*
X264724047Y-46137380D01*
X264724047Y-47137380D01*
X264105000Y-47137380D02*
X264200238Y-47089761D01*
X264247857Y-47042142D01*
X264295476Y-46946904D01*
X264295476Y-46661190D01*
X264247857Y-46565952D01*
X264200238Y-46518333D01*
X264105000Y-46470714D01*
X263962142Y-46470714D01*
X263866904Y-46518333D01*
X263819285Y-46565952D01*
X263771666Y-46661190D01*
X263771666Y-46946904D01*
X263819285Y-47042142D01*
X263866904Y-47089761D01*
X263962142Y-47137380D01*
X264105000Y-47137380D01*
X262914523Y-47137380D02*
X262914523Y-46137380D01*
X262914523Y-47089761D02*
X263009761Y-47137380D01*
X263200238Y-47137380D01*
X263295476Y-47089761D01*
X263343095Y-47042142D01*
X263390714Y-46946904D01*
X263390714Y-46661190D01*
X263343095Y-46565952D01*
X263295476Y-46518333D01*
X263200238Y-46470714D01*
X263009761Y-46470714D01*
X262914523Y-46518333D01*
X262057380Y-47089761D02*
X262152619Y-47137380D01*
X262343095Y-47137380D01*
X262438333Y-47089761D01*
X262485952Y-46994523D01*
X262485952Y-46613571D01*
X262438333Y-46518333D01*
X262343095Y-46470714D01*
X262152619Y-46470714D01*
X262057380Y-46518333D01*
X262009761Y-46613571D01*
X262009761Y-46708809D01*
X262485952Y-46804047D01*
X261438333Y-47137380D02*
X261533571Y-47089761D01*
X261581190Y-46994523D01*
X261581190Y-46137380D01*
X261057380Y-46756428D02*
X260295476Y-46756428D01*
X259819285Y-47137380D02*
X259819285Y-46137380D01*
X259247857Y-47137380D02*
X259676428Y-46565952D01*
X259247857Y-46137380D02*
X259819285Y-46708809D01*
X258819285Y-46756428D02*
X258057380Y-46756428D01*
X257581190Y-47137380D02*
X257581190Y-46137380D01*
X257200238Y-46137380D01*
X257105000Y-46185000D01*
X257057380Y-46232619D01*
X257009761Y-46327857D01*
X257009761Y-46470714D01*
X257057380Y-46565952D01*
X257105000Y-46613571D01*
X257200238Y-46661190D01*
X257581190Y-46661190D01*
X256581190Y-47137380D02*
X256581190Y-46470714D01*
X256581190Y-46137380D02*
X256628809Y-46185000D01*
X256581190Y-46232619D01*
X256533571Y-46185000D01*
X256581190Y-46137380D01*
X256581190Y-46232619D01*
X255676428Y-47089761D02*
X255771666Y-47137380D01*
X255962142Y-47137380D01*
X256057380Y-47089761D01*
X256105000Y-47042142D01*
X256152619Y-46946904D01*
X256152619Y-46661190D01*
X256105000Y-46565952D01*
X256057380Y-46518333D01*
X255962142Y-46470714D01*
X255771666Y-46470714D01*
X255676428Y-46518333D01*
X255105000Y-47137380D02*
X255200238Y-47089761D01*
X255247857Y-47042142D01*
X255295476Y-46946904D01*
X255295476Y-46661190D01*
X255247857Y-46565952D01*
X255200238Y-46518333D01*
X255105000Y-46470714D01*
X254962142Y-46470714D01*
X254866904Y-46518333D01*
X254819285Y-46565952D01*
X254771666Y-46661190D01*
X254771666Y-46946904D01*
X254819285Y-47042142D01*
X254866904Y-47089761D01*
X254962142Y-47137380D01*
X255105000Y-47137380D01*
%TO.C,G\u002A\u002A\u002A*%
G36*
X317441851Y-47955392D02*
G01*
X317486210Y-47981456D01*
X317502952Y-48041650D01*
X317505240Y-48130079D01*
X317473755Y-48235213D01*
X317398717Y-48304761D01*
X317333150Y-48330886D01*
X317227482Y-48347239D01*
X317128915Y-48338468D01*
X317060073Y-48304584D01*
X317035988Y-48273883D01*
X317016653Y-48187098D01*
X317048216Y-48075640D01*
X317077891Y-48035430D01*
X317161695Y-47983451D01*
X317275083Y-47952754D01*
X317401180Y-47949374D01*
X317441851Y-47955392D01*
G37*
G36*
X335810457Y-43124085D02*
G01*
X335864725Y-43141004D01*
X335936063Y-43167101D01*
X335970114Y-43185193D01*
X335976676Y-43190535D01*
X335988359Y-43196147D01*
X336025224Y-43213856D01*
X336100743Y-43241366D01*
X336121280Y-43248271D01*
X336209611Y-43282688D01*
X336274914Y-43314909D01*
X336286309Y-43321458D01*
X336359991Y-43355138D01*
X336449085Y-43387480D01*
X336469404Y-43394146D01*
X336557853Y-43428020D01*
X336623257Y-43460052D01*
X336634652Y-43466601D01*
X336673626Y-43484416D01*
X336708334Y-43500281D01*
X336797428Y-43532623D01*
X336817747Y-43539289D01*
X336906195Y-43573162D01*
X336971600Y-43605195D01*
X336977134Y-43608493D01*
X337048456Y-43642411D01*
X337135246Y-43674537D01*
X337154708Y-43681391D01*
X337241079Y-43718695D01*
X337352234Y-43773203D01*
X337469074Y-43835696D01*
X337490988Y-43847909D01*
X337612302Y-43914514D01*
X337763903Y-43996598D01*
X337928600Y-44084890D01*
X338089200Y-44170117D01*
X338286193Y-44275229D01*
X338521686Y-44405681D01*
X338717642Y-44521520D01*
X338881959Y-44627938D01*
X339022533Y-44730127D01*
X339147261Y-44833280D01*
X339264042Y-44942589D01*
X339310008Y-44989821D01*
X339340184Y-45027739D01*
X339416457Y-45123579D01*
X339469867Y-45240487D01*
X339471394Y-45342782D01*
X339440596Y-45402126D01*
X339360764Y-45469724D01*
X339251012Y-45516777D01*
X339127243Y-45534429D01*
X339064575Y-45527350D01*
X338953919Y-45504385D01*
X338815060Y-45469502D01*
X338662087Y-45426821D01*
X338509087Y-45380462D01*
X338370147Y-45334547D01*
X338259355Y-45293195D01*
X338190800Y-45260527D01*
X338180331Y-45254350D01*
X338107132Y-45219794D01*
X338018616Y-45186497D01*
X337975633Y-45170412D01*
X337877070Y-45128016D01*
X337755088Y-45071351D01*
X337626730Y-45008174D01*
X337535733Y-44962737D01*
X337432765Y-44913315D01*
X337357497Y-44879570D01*
X337321851Y-44867022D01*
X337310180Y-44864924D01*
X337254153Y-44845360D01*
X337176708Y-44811957D01*
X337110835Y-44781482D01*
X336998269Y-44729668D01*
X336884514Y-44677534D01*
X336798477Y-44636355D01*
X336702914Y-44586410D01*
X336637771Y-44547472D01*
X336572960Y-44508883D01*
X336498279Y-44476228D01*
X336472249Y-44469405D01*
X336455727Y-44474173D01*
X336459934Y-44502733D01*
X336486802Y-44564368D01*
X336538263Y-44668362D01*
X336553927Y-44699263D01*
X336604352Y-44794690D01*
X336644457Y-44864658D01*
X336666691Y-44895800D01*
X336685219Y-44919841D01*
X336722775Y-44983433D01*
X336768400Y-45069971D01*
X336807109Y-45143939D01*
X336846574Y-45212222D01*
X336870143Y-45244143D01*
X336879297Y-45255385D01*
X336911970Y-45309632D01*
X336959522Y-45397061D01*
X337015143Y-45505400D01*
X337046288Y-45566768D01*
X337098320Y-45665139D01*
X337138541Y-45735859D01*
X337160142Y-45766657D01*
X337178685Y-45790698D01*
X337216255Y-45854290D01*
X337261886Y-45940829D01*
X337300575Y-46014806D01*
X337339951Y-46083083D01*
X337363393Y-46115000D01*
X337374789Y-46128035D01*
X337408620Y-46182061D01*
X337450571Y-46260143D01*
X337474576Y-46306024D01*
X337513368Y-46372782D01*
X337537960Y-46405286D01*
X337539203Y-46406382D01*
X337562422Y-46442182D01*
X337604926Y-46518464D01*
X337661097Y-46624864D01*
X337725318Y-46751017D01*
X337730788Y-46761920D01*
X337796866Y-46890318D01*
X337856705Y-47000995D01*
X337903917Y-47082456D01*
X337932115Y-47123205D01*
X337954717Y-47149964D01*
X337973085Y-47189057D01*
X337979682Y-47209234D01*
X338013507Y-47254360D01*
X338038382Y-47286739D01*
X338083970Y-47360684D01*
X338133428Y-47452376D01*
X338171272Y-47524405D01*
X338210799Y-47592551D01*
X338234451Y-47624486D01*
X338239311Y-47629627D01*
X338268171Y-47675070D01*
X338312532Y-47755167D01*
X338364971Y-47856714D01*
X338382724Y-47891808D01*
X338433298Y-47987730D01*
X338473329Y-48057843D01*
X338495399Y-48088943D01*
X338506830Y-48101975D01*
X338540713Y-48156001D01*
X338582685Y-48234086D01*
X338606688Y-48279970D01*
X338645454Y-48346727D01*
X338670007Y-48379229D01*
X338679139Y-48390473D01*
X338711777Y-48444721D01*
X338759303Y-48532148D01*
X338814914Y-48640486D01*
X338846060Y-48701848D01*
X338898114Y-48800222D01*
X338938373Y-48870944D01*
X338960022Y-48901743D01*
X338964903Y-48906882D01*
X338993824Y-48952323D01*
X339038229Y-49032421D01*
X339090685Y-49133971D01*
X339108441Y-49169075D01*
X339158986Y-49264993D01*
X339198962Y-49335102D01*
X339220962Y-49366200D01*
X339225636Y-49370473D01*
X339255662Y-49413562D01*
X339293885Y-49482314D01*
X339303532Y-49500852D01*
X339340886Y-49565156D01*
X339366608Y-49598429D01*
X339377924Y-49611470D01*
X339411640Y-49665495D01*
X339453543Y-49743571D01*
X339477542Y-49789460D01*
X339516278Y-49856214D01*
X339540784Y-49888714D01*
X339541989Y-49889692D01*
X339566664Y-49925402D01*
X339607651Y-49997604D01*
X339656743Y-50091914D01*
X339661566Y-50101501D01*
X339710237Y-50194317D01*
X339750018Y-50263650D01*
X339772702Y-50295114D01*
X339784118Y-50308148D01*
X339817979Y-50362173D01*
X339859943Y-50440257D01*
X339883937Y-50486154D01*
X339922614Y-50552902D01*
X339947028Y-50585400D01*
X339958394Y-50598437D01*
X339992181Y-50652463D01*
X340034114Y-50730543D01*
X340058109Y-50776440D01*
X340096786Y-50843188D01*
X340121200Y-50875686D01*
X340132566Y-50888723D01*
X340166353Y-50942748D01*
X340208285Y-51020829D01*
X340232283Y-51066720D01*
X340270995Y-51133472D01*
X340295464Y-51165971D01*
X340313452Y-51189216D01*
X340350788Y-51252156D01*
X340396286Y-51338081D01*
X340434072Y-51409170D01*
X340481633Y-51489033D01*
X340516207Y-51536097D01*
X340538269Y-51562220D01*
X340556628Y-51601400D01*
X340563225Y-51621577D01*
X340597050Y-51666703D01*
X340621925Y-51699082D01*
X340667513Y-51773027D01*
X340716971Y-51864719D01*
X340754787Y-51936764D01*
X340794180Y-52004899D01*
X340798411Y-52010657D01*
X340817642Y-52036829D01*
X340820730Y-52039444D01*
X340849825Y-52079600D01*
X340866653Y-52109400D01*
X340887259Y-52145892D01*
X340893879Y-52158666D01*
X340929465Y-52212502D01*
X340972680Y-52229890D01*
X341047984Y-52222488D01*
X341114080Y-52215131D01*
X341157246Y-52225300D01*
X341178310Y-52261394D01*
X341180360Y-52266795D01*
X341228366Y-52315300D01*
X341319178Y-52354913D01*
X341345223Y-52363335D01*
X341456913Y-52408422D01*
X341561671Y-52461533D01*
X341583890Y-52473729D01*
X341680926Y-52519198D01*
X341805157Y-52570027D01*
X341935269Y-52617327D01*
X341991454Y-52636676D01*
X342099558Y-52676063D01*
X342181199Y-52708728D01*
X342203187Y-52719690D01*
X342221998Y-52729068D01*
X342231250Y-52735198D01*
X342289931Y-52762618D01*
X342370914Y-52791874D01*
X342387956Y-52797847D01*
X342466548Y-52830440D01*
X342578849Y-52881198D01*
X342714056Y-52944810D01*
X342861368Y-53015960D01*
X343009982Y-53089335D01*
X343149097Y-53159621D01*
X343267911Y-53221506D01*
X343355622Y-53269673D01*
X343401428Y-53298811D01*
X343427875Y-53316668D01*
X343500279Y-53358707D01*
X343602252Y-53414167D01*
X343720743Y-53475814D01*
X343809720Y-53522087D01*
X343908574Y-53576202D01*
X343977799Y-53617425D01*
X344006190Y-53639335D01*
X344012456Y-53647206D01*
X344013602Y-53648645D01*
X344056990Y-53662429D01*
X344074780Y-53665303D01*
X344085165Y-53676943D01*
X344098114Y-53691457D01*
X344099362Y-53699590D01*
X344108464Y-53705971D01*
X344129170Y-53720486D01*
X344132984Y-53720925D01*
X344164401Y-53735000D01*
X344179497Y-53741763D01*
X344252997Y-53786035D01*
X344337387Y-53842965D01*
X344416573Y-53901776D01*
X344474461Y-53951690D01*
X344503458Y-53982433D01*
X344584460Y-54099494D01*
X344620069Y-54211409D01*
X344610571Y-54310067D01*
X344556251Y-54387360D01*
X344457396Y-54435177D01*
X344368032Y-54443349D01*
X344219221Y-54429710D01*
X344025235Y-54392213D01*
X343789781Y-54331822D01*
X343516562Y-54249500D01*
X343209286Y-54146210D01*
X342871657Y-54022916D01*
X342859700Y-54018395D01*
X342752852Y-53978104D01*
X342646685Y-53938200D01*
X342597770Y-53919846D01*
X342457594Y-53866995D01*
X342354013Y-53827285D01*
X342273161Y-53795255D01*
X342201169Y-53765441D01*
X342130271Y-53735000D01*
X343372400Y-53735000D01*
X343386914Y-53749514D01*
X343401428Y-53735000D01*
X343386914Y-53720486D01*
X343372400Y-53735000D01*
X342130271Y-53735000D01*
X342124171Y-53732381D01*
X342059984Y-53706349D01*
X342058906Y-53705971D01*
X343314343Y-53705971D01*
X343328857Y-53720486D01*
X343343371Y-53705971D01*
X343328857Y-53691457D01*
X343314343Y-53705971D01*
X342058906Y-53705971D01*
X341976126Y-53676943D01*
X343256285Y-53676943D01*
X343270800Y-53691457D01*
X343285314Y-53676943D01*
X343270800Y-53662429D01*
X343256285Y-53676943D01*
X341976126Y-53676943D01*
X341932498Y-53661644D01*
X341819371Y-53629497D01*
X341772926Y-53617793D01*
X341671657Y-53586785D01*
X341595841Y-53556589D01*
X341526507Y-53530457D01*
X341449850Y-53517286D01*
X341399432Y-53504957D01*
X341340400Y-53459229D01*
X341305722Y-53422593D01*
X341261900Y-53401171D01*
X341258912Y-53401044D01*
X341234637Y-53395514D01*
X341192011Y-53379979D01*
X341125373Y-53351912D01*
X341029059Y-53308789D01*
X340897408Y-53248085D01*
X340724757Y-53167275D01*
X340505444Y-53063833D01*
X340425454Y-53026666D01*
X340320918Y-52980264D01*
X340243315Y-52948495D01*
X340205295Y-52936714D01*
X340171711Y-52925158D01*
X340091030Y-52889740D01*
X340031751Y-52862201D01*
X341463294Y-52862201D01*
X341465998Y-52887566D01*
X341487155Y-52943175D01*
X341495270Y-52956741D01*
X341555039Y-53012077D01*
X341652937Y-53073922D01*
X341775132Y-53135135D01*
X341907792Y-53188575D01*
X342037085Y-53227101D01*
X342094424Y-53242576D01*
X342212522Y-53281561D01*
X342327371Y-53326414D01*
X342392663Y-53354124D01*
X342511038Y-53402743D01*
X342610400Y-53441759D01*
X342628400Y-53448543D01*
X342745057Y-53492502D01*
X342857143Y-53534730D01*
X342880766Y-53543705D01*
X342985393Y-53584718D01*
X343075842Y-53621816D01*
X343142776Y-53647858D01*
X343197472Y-53660616D01*
X343206226Y-53647206D01*
X343165857Y-53608110D01*
X343152904Y-53598785D01*
X343081155Y-53555394D01*
X342972499Y-53495932D01*
X342839082Y-53426446D01*
X342693053Y-53352980D01*
X342546559Y-53281582D01*
X342411749Y-53218296D01*
X342300771Y-53169168D01*
X342225771Y-53140245D01*
X342208087Y-53134455D01*
X342113304Y-53098816D01*
X342037085Y-53063697D01*
X342031107Y-53060546D01*
X341968498Y-53032681D01*
X341876531Y-52996516D01*
X341769121Y-52956937D01*
X341660179Y-52918831D01*
X341563618Y-52887082D01*
X341493352Y-52866577D01*
X341463294Y-52862201D01*
X340031751Y-52862201D01*
X339969132Y-52833110D01*
X339811383Y-52757949D01*
X339623153Y-52666942D01*
X339409806Y-52562769D01*
X339176712Y-52448115D01*
X338929238Y-52325662D01*
X338672750Y-52198092D01*
X338544579Y-52134038D01*
X339607914Y-52134038D01*
X339612448Y-52139226D01*
X339655619Y-52165255D01*
X339735235Y-52207902D01*
X339840600Y-52261911D01*
X339961018Y-52322028D01*
X340085793Y-52382998D01*
X340204228Y-52439567D01*
X340305628Y-52486479D01*
X340379296Y-52518480D01*
X340414537Y-52530314D01*
X340418423Y-52530851D01*
X340464503Y-52547761D01*
X340544487Y-52583615D01*
X340643714Y-52631914D01*
X340735570Y-52677587D01*
X340818263Y-52716049D01*
X340858870Y-52729578D01*
X340862552Y-52719690D01*
X340834473Y-52687898D01*
X340807424Y-52655361D01*
X340788857Y-52614295D01*
X340779566Y-52598569D01*
X340720421Y-52560361D01*
X340608605Y-52509091D01*
X340446347Y-52445737D01*
X340235877Y-52371281D01*
X340160384Y-52345094D01*
X340044184Y-52302920D01*
X339953063Y-52267535D01*
X339902049Y-52244642D01*
X339865354Y-52225397D01*
X339786195Y-52189745D01*
X339704697Y-52158045D01*
X339639167Y-52137182D01*
X339607914Y-52134038D01*
X338544579Y-52134038D01*
X338495279Y-52109400D01*
X339540628Y-52109400D01*
X339555143Y-52123914D01*
X339569657Y-52109400D01*
X339555143Y-52094886D01*
X339540628Y-52109400D01*
X338495279Y-52109400D01*
X338412616Y-52068089D01*
X338154203Y-51938334D01*
X337902879Y-51811510D01*
X337664011Y-51690301D01*
X337442966Y-51577389D01*
X337245111Y-51475456D01*
X337075815Y-51387185D01*
X336940444Y-51315259D01*
X336844365Y-51262361D01*
X336792946Y-51231172D01*
X336733460Y-51197320D01*
X336632936Y-51152939D01*
X336521591Y-51113062D01*
X336338742Y-51055980D01*
X336118319Y-50988362D01*
X335946906Y-50937541D01*
X335820943Y-50902499D01*
X335736875Y-50882220D01*
X335691144Y-50875686D01*
X335645202Y-50867222D01*
X335576519Y-50833066D01*
X335531244Y-50807583D01*
X335460028Y-50789523D01*
X335440396Y-50787944D01*
X335363017Y-50773202D01*
X335271342Y-50748207D01*
X335211254Y-50730702D01*
X335089923Y-50699553D01*
X334968628Y-50672332D01*
X334895045Y-50656551D01*
X334768688Y-50626778D01*
X334663828Y-50599115D01*
X334632297Y-50590210D01*
X334529605Y-50563308D01*
X334446114Y-50544156D01*
X334196702Y-50495717D01*
X333889575Y-50439456D01*
X333633961Y-50397456D01*
X333427119Y-50369501D01*
X333266312Y-50355376D01*
X333148800Y-50354866D01*
X333071845Y-50367757D01*
X333032709Y-50393833D01*
X333028652Y-50432879D01*
X333048960Y-50465125D01*
X333105610Y-50521071D01*
X333178948Y-50579253D01*
X333250020Y-50624953D01*
X333299873Y-50643457D01*
X333306419Y-50644175D01*
X333328514Y-50670529D01*
X333340331Y-50690428D01*
X333387990Y-50716479D01*
X333436052Y-50741862D01*
X333519820Y-50806332D01*
X333622709Y-50899284D01*
X333736981Y-51012251D01*
X333854899Y-51136764D01*
X333968728Y-51264359D01*
X334070729Y-51386567D01*
X334153166Y-51494921D01*
X334201590Y-51570481D01*
X334208302Y-51580955D01*
X334228400Y-51636200D01*
X334233270Y-51646856D01*
X334271943Y-51659457D01*
X334292196Y-51664207D01*
X334315485Y-51700581D01*
X334317339Y-51717963D01*
X334337257Y-51751381D01*
X334351677Y-51764358D01*
X334390194Y-51821220D01*
X334448906Y-51925000D01*
X334529593Y-52078728D01*
X334563959Y-52163429D01*
X334592322Y-52283924D01*
X334602683Y-52403111D01*
X334593794Y-52503482D01*
X334564409Y-52567530D01*
X334541569Y-52585677D01*
X334453396Y-52623594D01*
X334346686Y-52642437D01*
X334249359Y-52636126D01*
X334206583Y-52616077D01*
X334131518Y-52564185D01*
X334050160Y-52495045D01*
X333987816Y-52436821D01*
X333913244Y-52367725D01*
X333862477Y-52321340D01*
X333817428Y-52276805D01*
X333739415Y-52194336D01*
X333637171Y-52083111D01*
X333517814Y-51950880D01*
X333388460Y-51805388D01*
X333361888Y-51774247D01*
X333317163Y-51715502D01*
X333299485Y-51682016D01*
X333291695Y-51674522D01*
X333242004Y-51663454D01*
X333161600Y-51658825D01*
X333119087Y-51657864D01*
X333057661Y-51648973D01*
X333002547Y-51623721D01*
X332938128Y-51573705D01*
X332876372Y-51516204D01*
X333683974Y-51516204D01*
X333691371Y-51543343D01*
X333697335Y-51551936D01*
X333723826Y-51572371D01*
X333727797Y-51570481D01*
X333720400Y-51543343D01*
X333714436Y-51534750D01*
X333687945Y-51514314D01*
X333683974Y-51516204D01*
X332876372Y-51516204D01*
X332848792Y-51490524D01*
X332841101Y-51483190D01*
X332734812Y-51387331D01*
X332623295Y-51294755D01*
X332529477Y-51224558D01*
X332464110Y-51179224D01*
X332400724Y-51133156D01*
X332370571Y-51108340D01*
X332369493Y-51107100D01*
X332325667Y-51080586D01*
X332249371Y-51049812D01*
X332161999Y-51021705D01*
X332084948Y-51003190D01*
X332039613Y-51001196D01*
X332025796Y-51013844D01*
X332002450Y-51076171D01*
X331987382Y-51177670D01*
X331976126Y-51257222D01*
X331931137Y-51375020D01*
X331857035Y-51443292D01*
X331755450Y-51461500D01*
X331628011Y-51429111D01*
X331476350Y-51345587D01*
X331431527Y-51315985D01*
X331260988Y-51211693D01*
X331117223Y-51137681D01*
X331005876Y-51096594D01*
X330932594Y-51091073D01*
X330924136Y-51093768D01*
X330862995Y-51142541D01*
X330804219Y-51236083D01*
X330797552Y-51249751D01*
X330743036Y-51346630D01*
X330688124Y-51400405D01*
X330615720Y-51421808D01*
X330508729Y-51421570D01*
X330354861Y-51412714D01*
X330122436Y-51136943D01*
X330095468Y-51105115D01*
X329892170Y-50876163D01*
X329698151Y-50676614D01*
X329517857Y-50510342D01*
X329355734Y-50381217D01*
X329216228Y-50293112D01*
X329103785Y-50249898D01*
X329069887Y-50244501D01*
X329017199Y-50253164D01*
X328982497Y-50299980D01*
X328961359Y-50354539D01*
X328929361Y-50473103D01*
X328898593Y-50625632D01*
X328872198Y-50797950D01*
X328864699Y-50840308D01*
X328836158Y-50931059D01*
X328800057Y-50991800D01*
X328757444Y-51022164D01*
X328654913Y-51055989D01*
X328530814Y-51067911D01*
X328404168Y-51058411D01*
X328293994Y-51027973D01*
X328219313Y-50977077D01*
X328194287Y-50954220D01*
X328143360Y-50933743D01*
X328126616Y-50931059D01*
X328103371Y-50904714D01*
X328099805Y-50892708D01*
X328063787Y-50875686D01*
X328062164Y-50875633D01*
X328014050Y-50855093D01*
X327954930Y-50808606D01*
X327944729Y-50798977D01*
X327868576Y-50734369D01*
X327784449Y-50671112D01*
X327765484Y-50657749D01*
X327689888Y-50601624D01*
X327634991Y-50556764D01*
X327601496Y-50526436D01*
X327501470Y-50439481D01*
X327410841Y-50368740D01*
X327305085Y-50294735D01*
X327239803Y-50249261D01*
X327169612Y-50196833D01*
X327130914Y-50163281D01*
X327122746Y-50154932D01*
X327071216Y-50112306D01*
X327000285Y-50061196D01*
X326978718Y-50046308D01*
X326911144Y-49995862D01*
X326869657Y-49959135D01*
X326839639Y-49931656D01*
X326764181Y-49875782D01*
X326665398Y-49810306D01*
X326559640Y-49745923D01*
X326463257Y-49693326D01*
X326317079Y-49617976D01*
X326108783Y-49501525D01*
X325941502Y-49395751D01*
X325900606Y-49369258D01*
X325810919Y-49320011D01*
X325739428Y-49291508D01*
X325707619Y-49281767D01*
X325619842Y-49247279D01*
X325524515Y-49202872D01*
X325474401Y-49178998D01*
X325393239Y-49146775D01*
X325340113Y-49134093D01*
X325314597Y-49130818D01*
X325274888Y-49107860D01*
X325256882Y-49095049D01*
X325194395Y-49070513D01*
X325106261Y-49046001D01*
X325046983Y-49030913D01*
X324967646Y-49006410D01*
X324924188Y-48987035D01*
X324920096Y-48984308D01*
X324865086Y-48963158D01*
X324766640Y-48935976D01*
X324636655Y-48905576D01*
X324487028Y-48874774D01*
X324329657Y-48846382D01*
X324258428Y-48834977D01*
X324086217Y-48810367D01*
X323896883Y-48786570D01*
X323698728Y-48764303D01*
X323500056Y-48744281D01*
X323309169Y-48727218D01*
X323134370Y-48713831D01*
X322983962Y-48704834D01*
X322866249Y-48700943D01*
X322789532Y-48702872D01*
X322762114Y-48711339D01*
X322773925Y-48737519D01*
X322810687Y-48799247D01*
X322863714Y-48880729D01*
X322910878Y-48953443D01*
X322950207Y-49020279D01*
X322965314Y-49054900D01*
X322977000Y-49083071D01*
X323013773Y-49146697D01*
X323066914Y-49229072D01*
X323114078Y-49301786D01*
X323153407Y-49368622D01*
X323168514Y-49403243D01*
X323180200Y-49431413D01*
X323216973Y-49495040D01*
X323270114Y-49577415D01*
X323317255Y-49650145D01*
X323356600Y-49717166D01*
X323371714Y-49752034D01*
X323371812Y-49753152D01*
X323389276Y-49790382D01*
X323430985Y-49859965D01*
X323488518Y-49947787D01*
X323489814Y-49949696D01*
X323550679Y-50042672D01*
X323598862Y-50122171D01*
X323624033Y-50171165D01*
X323632575Y-50190611D01*
X323669753Y-50258305D01*
X323720183Y-50338657D01*
X323739524Y-50368221D01*
X323797506Y-50462246D01*
X323842193Y-50541857D01*
X323860639Y-50577223D01*
X323909987Y-50669095D01*
X323963646Y-50766521D01*
X324021192Y-50869596D01*
X324115934Y-51039940D01*
X324193172Y-51179880D01*
X324260266Y-51302724D01*
X324287271Y-51351348D01*
X324341723Y-51444323D01*
X324385729Y-51513489D01*
X324432143Y-51586620D01*
X324480995Y-51673971D01*
X324502367Y-51714887D01*
X324552403Y-51807585D01*
X324607059Y-51906200D01*
X324629166Y-51946054D01*
X324678948Y-52038240D01*
X324744960Y-52162946D01*
X324828870Y-52323383D01*
X324932350Y-52522761D01*
X325057068Y-52764293D01*
X325204694Y-53051188D01*
X325376897Y-53386657D01*
X325462817Y-53554118D01*
X325578725Y-53779862D01*
X325697897Y-54011814D01*
X325810423Y-54230681D01*
X325906388Y-54417171D01*
X325965391Y-54531815D01*
X326078339Y-54751749D01*
X326169138Y-54929443D01*
X326240991Y-55071285D01*
X326297098Y-55183661D01*
X326340662Y-55272960D01*
X326374884Y-55345569D01*
X326402965Y-55407873D01*
X326407233Y-55417439D01*
X326441732Y-55491625D01*
X326496062Y-55605681D01*
X326565375Y-55749531D01*
X326644819Y-55913101D01*
X326729546Y-56086314D01*
X326755637Y-56139630D01*
X326833613Y-56301104D01*
X326900855Y-56443518D01*
X326953576Y-56558647D01*
X326987986Y-56638264D01*
X327000296Y-56674143D01*
X327001995Y-56687418D01*
X327024718Y-56710429D01*
X327042524Y-56731166D01*
X327070917Y-56794137D01*
X327101885Y-56884600D01*
X327129674Y-56966772D01*
X327158640Y-57033265D01*
X327179053Y-57058771D01*
X327185696Y-57059936D01*
X327203485Y-57089598D01*
X327211862Y-57122121D01*
X327239064Y-57194011D01*
X327278578Y-57285540D01*
X327355721Y-57455867D01*
X327445527Y-57655429D01*
X327537458Y-57860788D01*
X327624968Y-58057285D01*
X327701514Y-58230261D01*
X327760549Y-58365057D01*
X327778412Y-58405695D01*
X327816722Y-58489788D01*
X327844194Y-58546092D01*
X327866383Y-58613538D01*
X327866178Y-58700740D01*
X327836308Y-58765651D01*
X327831681Y-58769594D01*
X327774913Y-58791535D01*
X327694687Y-58800486D01*
X327630429Y-58796127D01*
X327583965Y-58770046D01*
X327550752Y-58706143D01*
X327536373Y-58670188D01*
X327478233Y-58534634D01*
X327421692Y-58416391D01*
X327372942Y-58327836D01*
X327338177Y-58281344D01*
X327316338Y-58253166D01*
X327269623Y-58170323D01*
X327204205Y-58038477D01*
X327121504Y-57860519D01*
X327022940Y-57639343D01*
X326995134Y-57576366D01*
X326926840Y-57427054D01*
X326878922Y-57331903D01*
X326851424Y-57291000D01*
X326837808Y-57267004D01*
X326811502Y-57200647D01*
X326780808Y-57109571D01*
X326754732Y-57033938D01*
X326726283Y-56968024D01*
X326707005Y-56942657D01*
X326706548Y-56942638D01*
X326685975Y-56916465D01*
X326666457Y-56855571D01*
X326666061Y-56853792D01*
X326645735Y-56793482D01*
X326623755Y-56768486D01*
X326601979Y-56746453D01*
X326580217Y-56688948D01*
X326560841Y-56631126D01*
X326538258Y-56594605D01*
X326520583Y-56567396D01*
X326482244Y-56496679D01*
X326428301Y-56392206D01*
X326363492Y-56263555D01*
X326292560Y-56120303D01*
X326220244Y-55972027D01*
X326151285Y-55828304D01*
X326090424Y-55698713D01*
X326042401Y-55592829D01*
X326020968Y-55545213D01*
X325961623Y-55419258D01*
X325903703Y-55302543D01*
X325816835Y-55133821D01*
X325619799Y-54750861D01*
X325420415Y-54363010D01*
X325228356Y-53989088D01*
X325053295Y-53647914D01*
X325025604Y-53593918D01*
X324868659Y-53288132D01*
X324727421Y-53013364D01*
X324603669Y-52773063D01*
X324499183Y-52570678D01*
X324415744Y-52409659D01*
X324355133Y-52293454D01*
X324319129Y-52225514D01*
X324316564Y-52220727D01*
X324284919Y-52151139D01*
X324271779Y-52102143D01*
X324269666Y-52088795D01*
X324242571Y-52065857D01*
X324229217Y-52060945D01*
X324213543Y-52022314D01*
X324210539Y-52002318D01*
X324186821Y-51978771D01*
X324186297Y-51978755D01*
X324162035Y-51952628D01*
X324140971Y-51891686D01*
X324140594Y-51889992D01*
X324119318Y-51829625D01*
X324095122Y-51804600D01*
X324082850Y-51799705D01*
X324068400Y-51761057D01*
X324065125Y-51741026D01*
X324039371Y-51717514D01*
X324026017Y-51712602D01*
X324010343Y-51673971D01*
X324007339Y-51653975D01*
X323983621Y-51630429D01*
X323983097Y-51630412D01*
X323958835Y-51604285D01*
X323937771Y-51543343D01*
X323937394Y-51541649D01*
X323916118Y-51481282D01*
X323891922Y-51456257D01*
X323879650Y-51451362D01*
X323865200Y-51412714D01*
X323862196Y-51392718D01*
X323838478Y-51369171D01*
X323837954Y-51369155D01*
X323813692Y-51343028D01*
X323792628Y-51282086D01*
X323792251Y-51280392D01*
X323770975Y-51220025D01*
X323746779Y-51195000D01*
X323734507Y-51190105D01*
X323720057Y-51151457D01*
X323717053Y-51131460D01*
X323693335Y-51107914D01*
X323692812Y-51107898D01*
X323668550Y-51081771D01*
X323647485Y-51020829D01*
X323647109Y-51019135D01*
X323625833Y-50958767D01*
X323601636Y-50933743D01*
X323589364Y-50928848D01*
X323574914Y-50890200D01*
X323571910Y-50870203D01*
X323548192Y-50846657D01*
X323547669Y-50846641D01*
X323523407Y-50820514D01*
X323502343Y-50759571D01*
X323501966Y-50757878D01*
X323480690Y-50697510D01*
X323456493Y-50672486D01*
X323444221Y-50667591D01*
X323429771Y-50628943D01*
X323426496Y-50608912D01*
X323400743Y-50585400D01*
X323387389Y-50580487D01*
X323371714Y-50541857D01*
X323368710Y-50521860D01*
X323344992Y-50498314D01*
X323344469Y-50498298D01*
X323320207Y-50472171D01*
X323299143Y-50411229D01*
X323298766Y-50409535D01*
X323277490Y-50349167D01*
X323253293Y-50324143D01*
X323241021Y-50319248D01*
X323226571Y-50280600D01*
X323223296Y-50260569D01*
X323197543Y-50237057D01*
X323184189Y-50232145D01*
X323168514Y-50193514D01*
X323165543Y-50173522D01*
X323142075Y-50149971D01*
X323130562Y-50143573D01*
X323095946Y-50099238D01*
X323055346Y-50026600D01*
X323034912Y-49986722D01*
X322972780Y-49876680D01*
X322907738Y-49772600D01*
X322873826Y-49720074D01*
X322835331Y-49654234D01*
X322820295Y-49619055D01*
X322808544Y-49591049D01*
X322771723Y-49527576D01*
X322718571Y-49445271D01*
X322671416Y-49372551D01*
X322632081Y-49305646D01*
X322616971Y-49270934D01*
X322613727Y-49261205D01*
X322586001Y-49210611D01*
X322536053Y-49130009D01*
X322471324Y-49031624D01*
X322445104Y-48992285D01*
X322378962Y-48888654D01*
X322327139Y-48801280D01*
X322299085Y-48745842D01*
X322290667Y-48726403D01*
X322267604Y-48698209D01*
X322225250Y-48680052D01*
X322150707Y-48667644D01*
X322031075Y-48656692D01*
X322029664Y-48656579D01*
X321879484Y-48641117D01*
X321717738Y-48619167D01*
X321579200Y-48595442D01*
X321454986Y-48570691D01*
X321228795Y-48526086D01*
X321044283Y-48490484D01*
X320891162Y-48461914D01*
X320759143Y-48438406D01*
X320620884Y-48413992D01*
X320450830Y-48381801D01*
X320323946Y-48354254D01*
X320231547Y-48329403D01*
X320164944Y-48305304D01*
X320137365Y-48293854D01*
X320024956Y-48252139D01*
X319866141Y-48198900D01*
X319656057Y-48132486D01*
X319625422Y-48122960D01*
X319431056Y-48060965D01*
X319261994Y-48004383D01*
X319133543Y-47958314D01*
X319041850Y-47925306D01*
X318938237Y-47891428D01*
X318846588Y-47864520D01*
X318781150Y-47848736D01*
X318756171Y-47848233D01*
X318756944Y-47852616D01*
X318775688Y-47896761D01*
X318812812Y-47969899D01*
X318859392Y-48055872D01*
X318906504Y-48138526D01*
X318945224Y-48201703D01*
X318966628Y-48229248D01*
X318975394Y-48236645D01*
X318988400Y-48280048D01*
X318991034Y-48297799D01*
X319015122Y-48321171D01*
X319015645Y-48321188D01*
X319039907Y-48347315D01*
X319060971Y-48408257D01*
X319061348Y-48409950D01*
X319082624Y-48470318D01*
X319106821Y-48495343D01*
X319119092Y-48500237D01*
X319133543Y-48538886D01*
X319136818Y-48558917D01*
X319162571Y-48582429D01*
X319175925Y-48587341D01*
X319191600Y-48625971D01*
X319194604Y-48645968D01*
X319218322Y-48669514D01*
X319218845Y-48669531D01*
X319243107Y-48695657D01*
X319264171Y-48756600D01*
X319264548Y-48758293D01*
X319285824Y-48818661D01*
X319310021Y-48843686D01*
X319322292Y-48848580D01*
X319336743Y-48887229D01*
X319339746Y-48907225D01*
X319363465Y-48930771D01*
X319363988Y-48930788D01*
X319388250Y-48956915D01*
X319409314Y-49017857D01*
X319409705Y-49019613D01*
X319430285Y-49079939D01*
X319452857Y-49104943D01*
X319453353Y-49104960D01*
X319476009Y-49131107D01*
X319496400Y-49192029D01*
X319496790Y-49193785D01*
X319517371Y-49254110D01*
X319539943Y-49279114D01*
X319540439Y-49279132D01*
X319563095Y-49305278D01*
X319583485Y-49366200D01*
X319583862Y-49367893D01*
X319605138Y-49428261D01*
X319629335Y-49453286D01*
X319641607Y-49458180D01*
X319656057Y-49496829D01*
X319659332Y-49516859D01*
X319685085Y-49540371D01*
X319698439Y-49545284D01*
X319714114Y-49583914D01*
X319717389Y-49603945D01*
X319743143Y-49627457D01*
X319756497Y-49632370D01*
X319772171Y-49671000D01*
X319775175Y-49690997D01*
X319798893Y-49714543D01*
X319799417Y-49714559D01*
X319823679Y-49740686D01*
X319844743Y-49801629D01*
X319845133Y-49803385D01*
X319865714Y-49863710D01*
X319888285Y-49888714D01*
X319888782Y-49888732D01*
X319911437Y-49914878D01*
X319931828Y-49975800D01*
X319932219Y-49977556D01*
X319952799Y-50037882D01*
X319975371Y-50062886D01*
X319975867Y-50062903D01*
X319998523Y-50089050D01*
X320018914Y-50149971D01*
X320019291Y-50151665D01*
X320040567Y-50212032D01*
X320064763Y-50237057D01*
X320077035Y-50241952D01*
X320091485Y-50280600D01*
X320094761Y-50300631D01*
X320120514Y-50324143D01*
X320133868Y-50329055D01*
X320149543Y-50367686D01*
X320152546Y-50387682D01*
X320176265Y-50411229D01*
X320176788Y-50411245D01*
X320201050Y-50437372D01*
X320222114Y-50498314D01*
X320222505Y-50500070D01*
X320243085Y-50560396D01*
X320265657Y-50585400D01*
X320266153Y-50585418D01*
X320288809Y-50611564D01*
X320309200Y-50672486D01*
X320309590Y-50674242D01*
X320330171Y-50734567D01*
X320352743Y-50759571D01*
X320353239Y-50759589D01*
X320375895Y-50785735D01*
X320396285Y-50846657D01*
X320396662Y-50848350D01*
X320417938Y-50908718D01*
X320442135Y-50933743D01*
X320454407Y-50938637D01*
X320468857Y-50977286D01*
X320471861Y-50997282D01*
X320495579Y-51020829D01*
X320496102Y-51020845D01*
X320520364Y-51046972D01*
X320541428Y-51107914D01*
X320541819Y-51109670D01*
X320562399Y-51169996D01*
X320584971Y-51195000D01*
X320585467Y-51195018D01*
X320608123Y-51221164D01*
X320628514Y-51282086D01*
X320628928Y-51283948D01*
X320648377Y-51344202D01*
X320668315Y-51369171D01*
X320671602Y-51370073D01*
X320699316Y-51401389D01*
X320734304Y-51463514D01*
X320740701Y-51476730D01*
X320801796Y-51596265D01*
X320871186Y-51723247D01*
X320937702Y-51837760D01*
X320990180Y-51919889D01*
X321021734Y-51971316D01*
X321070978Y-52063731D01*
X321120852Y-52167457D01*
X321158261Y-52248262D01*
X321219890Y-52376771D01*
X321274882Y-52486771D01*
X321301636Y-52538602D01*
X321355898Y-52643863D01*
X321425952Y-52779853D01*
X321505661Y-52934660D01*
X321588890Y-53096371D01*
X321628398Y-53173121D01*
X321732501Y-53375129D01*
X321842801Y-53588907D01*
X321948390Y-53793320D01*
X322038357Y-53967229D01*
X322070810Y-54029897D01*
X322150833Y-54184481D01*
X322225692Y-54329162D01*
X322288206Y-54450058D01*
X322331194Y-54533286D01*
X322368278Y-54609061D01*
X322401014Y-54685600D01*
X322413662Y-54729229D01*
X322415574Y-54742537D01*
X322440493Y-54765514D01*
X322441017Y-54765531D01*
X322465279Y-54791657D01*
X322486343Y-54852600D01*
X322486742Y-54854397D01*
X322506880Y-54914695D01*
X322528419Y-54939686D01*
X322537522Y-54946369D01*
X322561933Y-54993290D01*
X322587943Y-55070314D01*
X322600606Y-55111499D01*
X322626511Y-55175656D01*
X322646625Y-55200943D01*
X322667257Y-55222633D01*
X322688535Y-55279833D01*
X322699822Y-55318141D01*
X322726105Y-55389023D01*
X322767279Y-55486199D01*
X322826179Y-55616041D01*
X322905643Y-55784926D01*
X323008504Y-55999229D01*
X323068518Y-56125603D01*
X323122855Y-56244174D01*
X323163350Y-56337078D01*
X323184085Y-56391114D01*
X323200471Y-56435387D01*
X323239675Y-56522840D01*
X323288574Y-56620172D01*
X323325991Y-56693198D01*
X323359002Y-56764088D01*
X323371714Y-56800807D01*
X323378156Y-56825370D01*
X323403084Y-56891074D01*
X323440351Y-56978149D01*
X323476538Y-57068997D01*
X323521591Y-57203482D01*
X323558098Y-57334543D01*
X323558217Y-57335035D01*
X323585140Y-57446161D01*
X323608580Y-57542433D01*
X323623473Y-57603057D01*
X323628083Y-57625589D01*
X323618414Y-57660252D01*
X323565480Y-57668371D01*
X323555440Y-57667928D01*
X323502735Y-57649121D01*
X323442340Y-57596453D01*
X323364038Y-57501457D01*
X323298023Y-57407391D01*
X323231131Y-57297027D01*
X323186171Y-57205588D01*
X323172503Y-57172506D01*
X323126750Y-57076405D01*
X323083541Y-57002388D01*
X323038244Y-56932460D01*
X322975625Y-56825047D01*
X322914212Y-56710784D01*
X322863953Y-56608309D01*
X322834791Y-56536257D01*
X322833224Y-56531422D01*
X322809350Y-56471890D01*
X322766333Y-56374443D01*
X322709751Y-56251465D01*
X322645183Y-56115343D01*
X322574077Y-55967327D01*
X322495482Y-55802433D01*
X322437567Y-55678679D01*
X322397482Y-55589691D01*
X322372378Y-55529091D01*
X322359405Y-55490503D01*
X322355714Y-55467549D01*
X322354235Y-55455985D01*
X322330458Y-55433171D01*
X322320649Y-55426511D01*
X322295096Y-55379596D01*
X322268628Y-55302543D01*
X322255930Y-55261383D01*
X322229719Y-55197208D01*
X322209105Y-55171914D01*
X322208627Y-55171896D01*
X322186992Y-55145736D01*
X322167028Y-55084829D01*
X322166638Y-55083072D01*
X322146057Y-55022747D01*
X322123485Y-54997743D01*
X322122989Y-54997725D01*
X322100334Y-54971579D01*
X322079943Y-54910657D01*
X322079552Y-54908901D01*
X322058972Y-54848575D01*
X322036400Y-54823571D01*
X322035904Y-54823554D01*
X322013248Y-54797407D01*
X321992857Y-54736486D01*
X321992480Y-54734792D01*
X321971204Y-54674425D01*
X321947008Y-54649400D01*
X321934736Y-54644505D01*
X321920285Y-54605857D01*
X321917282Y-54585860D01*
X321893563Y-54562314D01*
X321893040Y-54562298D01*
X321868778Y-54536171D01*
X321847714Y-54475229D01*
X321847318Y-54473449D01*
X321826992Y-54413139D01*
X321805012Y-54388143D01*
X321783236Y-54366111D01*
X321761474Y-54308605D01*
X321742754Y-54250744D01*
X321722041Y-54214262D01*
X321719146Y-54211566D01*
X321702085Y-54187718D01*
X321673014Y-54138512D01*
X321629579Y-54059535D01*
X321569424Y-53946372D01*
X321490197Y-53794609D01*
X321389541Y-53599832D01*
X321265104Y-53357629D01*
X321204629Y-53239709D01*
X321121038Y-53076759D01*
X321044261Y-52927139D01*
X320980855Y-52803627D01*
X320937378Y-52719000D01*
X320895844Y-52636645D01*
X320830686Y-52500483D01*
X320778079Y-52381736D01*
X320742922Y-52291688D01*
X320730114Y-52241621D01*
X320729018Y-52233301D01*
X320701085Y-52211000D01*
X320687732Y-52206087D01*
X320672057Y-52167457D01*
X320668782Y-52147426D01*
X320643028Y-52123914D01*
X320629674Y-52119002D01*
X320614000Y-52080371D01*
X320610996Y-52060375D01*
X320587278Y-52036829D01*
X320586754Y-52036812D01*
X320562492Y-52010685D01*
X320541428Y-51949743D01*
X320541051Y-51948049D01*
X320519775Y-51887682D01*
X320495579Y-51862657D01*
X320483307Y-51857762D01*
X320468857Y-51819114D01*
X320465853Y-51799118D01*
X320442135Y-51775571D01*
X320441612Y-51775555D01*
X320417350Y-51749428D01*
X320396285Y-51688486D01*
X320395895Y-51686730D01*
X320375315Y-51626404D01*
X320352743Y-51601400D01*
X320352246Y-51601382D01*
X320329591Y-51575236D01*
X320309200Y-51514314D01*
X320308809Y-51512558D01*
X320288229Y-51452233D01*
X320265657Y-51427229D01*
X320265161Y-51427211D01*
X320242505Y-51401064D01*
X320222114Y-51340143D01*
X320221737Y-51338449D01*
X320200461Y-51278082D01*
X320176265Y-51253057D01*
X320163993Y-51248162D01*
X320149543Y-51209514D01*
X320146539Y-51189518D01*
X320122821Y-51165971D01*
X320122297Y-51165955D01*
X320098035Y-51139828D01*
X320076971Y-51078886D01*
X320076581Y-51077130D01*
X320056000Y-51016804D01*
X320033428Y-50991800D01*
X320032932Y-50991782D01*
X320010276Y-50965636D01*
X319989885Y-50904714D01*
X319989495Y-50902958D01*
X319968915Y-50842633D01*
X319946343Y-50817629D01*
X319945846Y-50817611D01*
X319923191Y-50791464D01*
X319902800Y-50730543D01*
X319902423Y-50728849D01*
X319881147Y-50668482D01*
X319856950Y-50643457D01*
X319844679Y-50638562D01*
X319830228Y-50599914D01*
X319826953Y-50579883D01*
X319801200Y-50556371D01*
X319787846Y-50551459D01*
X319772171Y-50512829D01*
X319769167Y-50492832D01*
X319745449Y-50469286D01*
X319744926Y-50469269D01*
X319720664Y-50443142D01*
X319699600Y-50382200D01*
X319699209Y-50380444D01*
X319678629Y-50320118D01*
X319656057Y-50295114D01*
X319655561Y-50295097D01*
X319632905Y-50268950D01*
X319612514Y-50208029D01*
X319612123Y-50206272D01*
X319591543Y-50145947D01*
X319568971Y-50120943D01*
X319568475Y-50120925D01*
X319545819Y-50094779D01*
X319525428Y-50033857D01*
X319525051Y-50032164D01*
X319503775Y-49971796D01*
X319479579Y-49946771D01*
X319467307Y-49941877D01*
X319452857Y-49903229D01*
X319449582Y-49883198D01*
X319423828Y-49859686D01*
X319410474Y-49854773D01*
X319394800Y-49816143D01*
X319391525Y-49796112D01*
X319365771Y-49772600D01*
X319352417Y-49767687D01*
X319336743Y-49729057D01*
X319333739Y-49709060D01*
X319310021Y-49685514D01*
X319309497Y-49685498D01*
X319285235Y-49659371D01*
X319264171Y-49598429D01*
X319263781Y-49596672D01*
X319243200Y-49536347D01*
X319220628Y-49511343D01*
X319220132Y-49511325D01*
X319197476Y-49485179D01*
X319177085Y-49424257D01*
X319176695Y-49422501D01*
X319156115Y-49362175D01*
X319133543Y-49337171D01*
X319133046Y-49337154D01*
X319110391Y-49311007D01*
X319090000Y-49250086D01*
X319089623Y-49248392D01*
X319068347Y-49188025D01*
X319044150Y-49163000D01*
X319031879Y-49158105D01*
X319017428Y-49119457D01*
X319014425Y-49099460D01*
X318990706Y-49075914D01*
X318990183Y-49075898D01*
X318965921Y-49049771D01*
X318944857Y-48988828D01*
X318944480Y-48987135D01*
X318923204Y-48926767D01*
X318899008Y-48901743D01*
X318886736Y-48896848D01*
X318872285Y-48858200D01*
X318869010Y-48838169D01*
X318843257Y-48814657D01*
X318829903Y-48809745D01*
X318814228Y-48771114D01*
X318811323Y-48751129D01*
X318788347Y-48727571D01*
X318764997Y-48705564D01*
X318742502Y-48648034D01*
X318723508Y-48590189D01*
X318702013Y-48553691D01*
X318697127Y-48548308D01*
X318668127Y-48502584D01*
X318623150Y-48422500D01*
X318569661Y-48321171D01*
X318553404Y-48289789D01*
X318498171Y-48186934D01*
X318451399Y-48105165D01*
X318421819Y-48059914D01*
X318416798Y-48053514D01*
X318377773Y-47993033D01*
X318335141Y-47914771D01*
X318286059Y-47822641D01*
X318221807Y-47715676D01*
X318159798Y-47624557D01*
X318108217Y-47561170D01*
X318075249Y-47537400D01*
X318068261Y-47536650D01*
X318014706Y-47519150D01*
X317941362Y-47485718D01*
X317905603Y-47468314D01*
X317802616Y-47422601D01*
X317695738Y-47379523D01*
X317640304Y-47357560D01*
X317570367Y-47326165D01*
X317536971Y-47305835D01*
X317525348Y-47296944D01*
X317471295Y-47269177D01*
X317391828Y-47235423D01*
X317352470Y-47219115D01*
X317270247Y-47179521D01*
X317217657Y-47146513D01*
X317175530Y-47119221D01*
X317101543Y-47089224D01*
X317076452Y-47079485D01*
X317001251Y-47045517D01*
X316885552Y-46990798D01*
X316735980Y-46918538D01*
X316559163Y-46831944D01*
X316361725Y-46734225D01*
X316150294Y-46628590D01*
X316143416Y-46625138D01*
X315908274Y-46507007D01*
X315719795Y-46411720D01*
X315572875Y-46336184D01*
X315462411Y-46277302D01*
X315383300Y-46231982D01*
X315330439Y-46197128D01*
X315298725Y-46169646D01*
X315283055Y-46146441D01*
X315278327Y-46124419D01*
X315279436Y-46100486D01*
X315279618Y-46098525D01*
X315299751Y-46030718D01*
X315348577Y-46004647D01*
X315367950Y-46007583D01*
X315437334Y-46031597D01*
X315545761Y-46076555D01*
X315685286Y-46138967D01*
X315847962Y-46215343D01*
X316025844Y-46302190D01*
X316133284Y-46355100D01*
X316303093Y-46436548D01*
X316453967Y-46506275D01*
X316577712Y-46560616D01*
X316666130Y-46595908D01*
X316711025Y-46608486D01*
X316723410Y-46609089D01*
X316801821Y-46625090D01*
X316890101Y-46656052D01*
X317144301Y-46761958D01*
X317385722Y-46851874D01*
X317593365Y-46916158D01*
X317657749Y-46935361D01*
X317744055Y-46966909D01*
X317796565Y-46993702D01*
X317813068Y-47005934D01*
X317822774Y-47007853D01*
X317794195Y-46970843D01*
X317787825Y-46962542D01*
X317748123Y-46899996D01*
X317695232Y-46806029D01*
X317638794Y-46697594D01*
X317628574Y-46677287D01*
X317569007Y-46563328D01*
X317512669Y-46461862D01*
X317470548Y-46392794D01*
X317446182Y-46356767D01*
X317385185Y-46264730D01*
X317335122Y-46184305D01*
X317286791Y-46099597D01*
X317230990Y-45994708D01*
X317158518Y-45853743D01*
X317101358Y-45744751D01*
X317031726Y-45618937D01*
X316970124Y-45514710D01*
X316925314Y-45447343D01*
X316922555Y-45443694D01*
X316868820Y-45364144D01*
X316803496Y-45256349D01*
X316740094Y-45142543D01*
X316710702Y-45087514D01*
X316638149Y-44953826D01*
X316556148Y-44804775D01*
X316477428Y-44663571D01*
X316436986Y-44591599D01*
X316355877Y-44447051D01*
X316278456Y-44308849D01*
X316217120Y-44199114D01*
X316158271Y-44095569D01*
X316081032Y-43963504D01*
X316012952Y-43850771D01*
X316007465Y-43841880D01*
X315941746Y-43732088D01*
X315865517Y-43600408D01*
X315794177Y-43473400D01*
X315750868Y-43394865D01*
X315672699Y-43253471D01*
X315586702Y-43098224D01*
X315504923Y-42950886D01*
X315436877Y-42827005D01*
X315341043Y-42649463D01*
X315242860Y-42464877D01*
X315155436Y-42297743D01*
X315143753Y-42275194D01*
X315073117Y-42140850D01*
X315008734Y-42021510D01*
X314957296Y-41929420D01*
X314925493Y-41876829D01*
X314915588Y-41861681D01*
X314868844Y-41781903D01*
X314804351Y-41664116D01*
X314727741Y-41519296D01*
X314644640Y-41358421D01*
X314560679Y-41192468D01*
X314481486Y-41032414D01*
X314412690Y-40889237D01*
X314359921Y-40773912D01*
X314334355Y-40716710D01*
X314286961Y-40616421D01*
X314249279Y-40544104D01*
X314227757Y-40512512D01*
X314216406Y-40498313D01*
X314182742Y-40440127D01*
X314135539Y-40348838D01*
X314081235Y-40236571D01*
X314046597Y-40163974D01*
X313996558Y-40063636D01*
X313958004Y-39991929D01*
X313937250Y-39960943D01*
X313932892Y-39956439D01*
X313904515Y-39912179D01*
X313860501Y-39833078D01*
X313808368Y-39732466D01*
X313785303Y-39686740D01*
X313732157Y-39585112D01*
X313689875Y-39513755D01*
X313648094Y-39456222D01*
X313596455Y-39396064D01*
X313568640Y-39357858D01*
X313531210Y-39288215D01*
X313496116Y-39215806D01*
X313443126Y-39127615D01*
X313364187Y-39012194D01*
X313356399Y-39000659D01*
X313315477Y-38918421D01*
X313298800Y-38845280D01*
X313302883Y-38803016D01*
X313329576Y-38776623D01*
X313396485Y-38770771D01*
X313470810Y-38780926D01*
X313559158Y-38826105D01*
X313649274Y-38913436D01*
X313749374Y-39049409D01*
X313805130Y-39130365D01*
X313878395Y-39229915D01*
X313938725Y-39304842D01*
X313979799Y-39359533D01*
X314041405Y-39460701D01*
X314095947Y-39569267D01*
X314135346Y-39653277D01*
X314173228Y-39723912D01*
X314197321Y-39756899D01*
X314208996Y-39771265D01*
X314243150Y-39829736D01*
X314290708Y-39921260D01*
X314345165Y-40033657D01*
X314379802Y-40106257D01*
X314429831Y-40206594D01*
X314468370Y-40278300D01*
X314489104Y-40309286D01*
X314490307Y-40310260D01*
X314514980Y-40345965D01*
X314555953Y-40418169D01*
X314605018Y-40512486D01*
X314658931Y-40616474D01*
X314711133Y-40710935D01*
X314749468Y-40773743D01*
X314757585Y-40786304D01*
X314796494Y-40852953D01*
X314853454Y-40955738D01*
X314922154Y-41083151D01*
X314996281Y-41223686D01*
X315024615Y-41277728D01*
X315095311Y-41410210D01*
X315156956Y-41522508D01*
X315203731Y-41604135D01*
X315229815Y-41644600D01*
X315233246Y-41649089D01*
X315264289Y-41699340D01*
X315314203Y-41788053D01*
X315376864Y-41904132D01*
X315446148Y-42036486D01*
X315516953Y-42172363D01*
X315614081Y-42355718D01*
X315711202Y-42536313D01*
X315795209Y-42689629D01*
X315850992Y-42790095D01*
X315936978Y-42945234D01*
X316018817Y-43093171D01*
X316084463Y-43212143D01*
X316091045Y-43224070D01*
X316163585Y-43352766D01*
X316239448Y-43483433D01*
X316303237Y-43589514D01*
X316359898Y-43683046D01*
X316436942Y-43814212D01*
X316507406Y-43937857D01*
X316537325Y-43991429D01*
X316608774Y-44119083D01*
X316689703Y-44263419D01*
X316767714Y-44402314D01*
X316806861Y-44472266D01*
X316888852Y-44620390D01*
X316967601Y-44764467D01*
X317030380Y-44881286D01*
X317034101Y-44888285D01*
X317098261Y-45002411D01*
X317163778Y-45109098D01*
X317217022Y-45186086D01*
X317252459Y-45237939D01*
X317311731Y-45336797D01*
X317380198Y-45460100D01*
X317449090Y-45592486D01*
X317505072Y-45700635D01*
X317574468Y-45826790D01*
X317636386Y-45931330D01*
X317682017Y-45998886D01*
X317713917Y-46044300D01*
X317773440Y-46140500D01*
X317842578Y-46261291D01*
X317912001Y-46390771D01*
X317957924Y-46478327D01*
X318033640Y-46618391D01*
X318104918Y-46745707D01*
X318160934Y-46840714D01*
X318207266Y-46916583D01*
X318270327Y-47022564D01*
X318318615Y-47106756D01*
X318385201Y-47192864D01*
X318486985Y-47248069D01*
X318494927Y-47250629D01*
X318594521Y-47285871D01*
X318683600Y-47321816D01*
X318696316Y-47327410D01*
X318828633Y-47380351D01*
X318991643Y-47438684D01*
X319162571Y-47494211D01*
X319203313Y-47506796D01*
X319389961Y-47566185D01*
X319556526Y-47621916D01*
X319685085Y-47668029D01*
X319708190Y-47676673D01*
X319846263Y-47725311D01*
X320018673Y-47782350D01*
X320207600Y-47841862D01*
X320233143Y-47849851D01*
X320348966Y-47888326D01*
X320454343Y-47926143D01*
X320476852Y-47934263D01*
X320568595Y-47960383D01*
X320641281Y-47971554D01*
X320687732Y-47975024D01*
X320781126Y-47986871D01*
X320888024Y-48003989D01*
X320949132Y-48014849D01*
X321252519Y-48069975D01*
X321516317Y-48120020D01*
X321731600Y-48163299D01*
X321739162Y-48164877D01*
X321841458Y-48185500D01*
X321919872Y-48200037D01*
X321957966Y-48205429D01*
X321959656Y-48193962D01*
X321937383Y-48147092D01*
X321892651Y-48076455D01*
X321859068Y-48025306D01*
X321819568Y-47956629D01*
X321804171Y-47916798D01*
X321803004Y-47908098D01*
X321775143Y-47885743D01*
X321761789Y-47880830D01*
X321746114Y-47842200D01*
X321742839Y-47822169D01*
X321717085Y-47798657D01*
X321703732Y-47793745D01*
X321688057Y-47755114D01*
X321684782Y-47735083D01*
X321659028Y-47711571D01*
X321645674Y-47706659D01*
X321630000Y-47668029D01*
X321626725Y-47647998D01*
X321600971Y-47624486D01*
X321587617Y-47619573D01*
X321571943Y-47580943D01*
X321568668Y-47560912D01*
X321542914Y-47537400D01*
X321529560Y-47532487D01*
X321513885Y-47493857D01*
X321510882Y-47473860D01*
X321487163Y-47450314D01*
X321486640Y-47450298D01*
X321462378Y-47424171D01*
X321441314Y-47363229D01*
X321440937Y-47361535D01*
X321419661Y-47301167D01*
X321395465Y-47276143D01*
X321383193Y-47271248D01*
X321368743Y-47232600D01*
X321365468Y-47212569D01*
X321339714Y-47189057D01*
X321326360Y-47184145D01*
X321310685Y-47145514D01*
X321307410Y-47125483D01*
X321281657Y-47101971D01*
X321268303Y-47097059D01*
X321252628Y-47058429D01*
X321249353Y-47038398D01*
X321223600Y-47014886D01*
X321210246Y-47009973D01*
X321194571Y-46971343D01*
X321191296Y-46951312D01*
X321165543Y-46927800D01*
X321158683Y-46927052D01*
X321136514Y-46901444D01*
X321130836Y-46885998D01*
X321098504Y-46827602D01*
X321042952Y-46736721D01*
X320970375Y-46622878D01*
X320886965Y-46495596D01*
X320798917Y-46364396D01*
X320712424Y-46238803D01*
X320633679Y-46128338D01*
X320562521Y-46026907D01*
X320497650Y-45927538D01*
X320453822Y-45852737D01*
X320423622Y-45799964D01*
X320361628Y-45704064D01*
X320292688Y-45607170D01*
X320282541Y-45593649D01*
X320162187Y-45429149D01*
X320043754Y-45260482D01*
X319935680Y-45100139D01*
X319846401Y-44960616D01*
X319784354Y-44854407D01*
X319761186Y-44814777D01*
X319699600Y-44720061D01*
X319615395Y-44597937D01*
X319516551Y-44459882D01*
X319411049Y-44317378D01*
X319339140Y-44221324D01*
X319244164Y-44092448D01*
X319164082Y-43981446D01*
X319105669Y-43897745D01*
X319075700Y-43850771D01*
X319064287Y-43831189D01*
X319017564Y-43760383D01*
X318950427Y-43665160D01*
X318873312Y-43560486D01*
X318842277Y-43518943D01*
X318762349Y-43409184D01*
X318693376Y-43310826D01*
X318647587Y-43241171D01*
X318646454Y-43239319D01*
X318603509Y-43174561D01*
X318534744Y-43076438D01*
X318449132Y-42957238D01*
X318355648Y-42829250D01*
X318263264Y-42704765D01*
X318180953Y-42596071D01*
X318117689Y-42515457D01*
X318072506Y-42447762D01*
X318041452Y-42377571D01*
X318025278Y-42336597D01*
X318000238Y-42312257D01*
X317983692Y-42302666D01*
X317958980Y-42257648D01*
X317937229Y-42210728D01*
X317891709Y-42144241D01*
X317853620Y-42097009D01*
X317798228Y-42021976D01*
X317748988Y-41955385D01*
X317689407Y-41881383D01*
X317682736Y-41873404D01*
X317641120Y-41818201D01*
X317624092Y-41785556D01*
X317622184Y-41779433D01*
X317594455Y-41738795D01*
X317544228Y-41679907D01*
X317534079Y-41668709D01*
X317470027Y-41592734D01*
X317420857Y-41526624D01*
X317415071Y-41518064D01*
X317361678Y-41448287D01*
X317297485Y-41373967D01*
X317280511Y-41355148D01*
X317235650Y-41299612D01*
X317217657Y-41267365D01*
X317204624Y-41238498D01*
X317166857Y-41187292D01*
X317127976Y-41138988D01*
X317080689Y-41073993D01*
X317053890Y-41033426D01*
X317002628Y-40955794D01*
X316942803Y-40865169D01*
X316894050Y-40788575D01*
X316855185Y-40721542D01*
X316840285Y-40687294D01*
X316833152Y-40669041D01*
X316796743Y-40628600D01*
X316772940Y-40595151D01*
X316755319Y-40525538D01*
X316758523Y-40454711D01*
X316784112Y-40409722D01*
X316786378Y-40408494D01*
X316837450Y-40401599D01*
X316912564Y-40408916D01*
X316940708Y-40415917D01*
X317000284Y-40446845D01*
X317063256Y-40507222D01*
X317141956Y-40607736D01*
X317153198Y-40623115D01*
X317218235Y-40711632D01*
X317269735Y-40780987D01*
X317297392Y-40817286D01*
X317317830Y-40844488D01*
X317363987Y-40908672D01*
X317421716Y-40990621D01*
X317467313Y-41054140D01*
X317531696Y-41138732D01*
X317580514Y-41197073D01*
X317627337Y-41251464D01*
X317682114Y-41324490D01*
X317688142Y-41333273D01*
X317741487Y-41402480D01*
X317805485Y-41476707D01*
X317822786Y-41495995D01*
X317867436Y-41551104D01*
X317885350Y-41582356D01*
X317885694Y-41584669D01*
X317906829Y-41621532D01*
X317950664Y-41678183D01*
X318008869Y-41750407D01*
X318059485Y-41818776D01*
X318095853Y-41868913D01*
X318153828Y-41942035D01*
X318187637Y-41987572D01*
X318204628Y-42024340D01*
X318211007Y-42042908D01*
X318244407Y-42086632D01*
X318249757Y-42092359D01*
X318291485Y-42150051D01*
X318335815Y-42226591D01*
X318342910Y-42239875D01*
X318390187Y-42312755D01*
X318433923Y-42359830D01*
X318439476Y-42364462D01*
X318481382Y-42410063D01*
X318549861Y-42492720D01*
X318638876Y-42604466D01*
X318742389Y-42737332D01*
X318854363Y-42883352D01*
X318968760Y-43034558D01*
X319079542Y-43182982D01*
X319180671Y-43320657D01*
X319266110Y-43439616D01*
X319329822Y-43531891D01*
X319365767Y-43589514D01*
X319383565Y-43618205D01*
X319434271Y-43691940D01*
X319508655Y-43795790D01*
X319599936Y-43920326D01*
X319701334Y-44056121D01*
X319766490Y-44143551D01*
X319868847Y-44284681D01*
X319959645Y-44414311D01*
X320030902Y-44520960D01*
X320074639Y-44593150D01*
X320078686Y-44600647D01*
X320143401Y-44710206D01*
X320234625Y-44852006D01*
X320343920Y-45013554D01*
X320462848Y-45182354D01*
X320582974Y-45345913D01*
X320631420Y-45412997D01*
X320697261Y-45511915D01*
X320744108Y-45591480D01*
X320787346Y-45665390D01*
X320852018Y-45764663D01*
X320923720Y-45867081D01*
X320949433Y-45902740D01*
X321032839Y-46021381D01*
X321126088Y-46157188D01*
X321213399Y-46287271D01*
X321258724Y-46355039D01*
X321327626Y-46455090D01*
X321382900Y-46531756D01*
X321415568Y-46572373D01*
X321436716Y-46599745D01*
X321455828Y-46654102D01*
X321458761Y-46672211D01*
X321484857Y-46695571D01*
X321498211Y-46700484D01*
X321513885Y-46739114D01*
X321517161Y-46759145D01*
X321542914Y-46782657D01*
X321556268Y-46787570D01*
X321571943Y-46826200D01*
X321575218Y-46846231D01*
X321600971Y-46869743D01*
X321614325Y-46874655D01*
X321630000Y-46913286D01*
X321633275Y-46933317D01*
X321659028Y-46956829D01*
X321672382Y-46961741D01*
X321688057Y-47000371D01*
X321691061Y-47020368D01*
X321714779Y-47043914D01*
X321715302Y-47043931D01*
X321739564Y-47070057D01*
X321760628Y-47131000D01*
X321761005Y-47132693D01*
X321782281Y-47193061D01*
X321806478Y-47218086D01*
X321818750Y-47222980D01*
X321833200Y-47261629D01*
X321836475Y-47281659D01*
X321862228Y-47305171D01*
X321875582Y-47310084D01*
X321891257Y-47348714D01*
X321894532Y-47368745D01*
X321920285Y-47392257D01*
X321933639Y-47397170D01*
X321949314Y-47435800D01*
X321952589Y-47455831D01*
X321978343Y-47479343D01*
X321990900Y-47483415D01*
X322007371Y-47520467D01*
X322009422Y-47537887D01*
X322031353Y-47571267D01*
X322055920Y-47595610D01*
X322104177Y-47658849D01*
X322166745Y-47748334D01*
X322235455Y-47851743D01*
X322302136Y-47956755D01*
X322358618Y-48051047D01*
X322396731Y-48122299D01*
X322446634Y-48228226D01*
X322698717Y-48245262D01*
X322788795Y-48251052D01*
X322951706Y-48260702D01*
X323130194Y-48270556D01*
X323299143Y-48279194D01*
X323313060Y-48279885D01*
X323524475Y-48293628D01*
X323751735Y-48313680D01*
X323986650Y-48338824D01*
X324221028Y-48367844D01*
X324446680Y-48399523D01*
X324655413Y-48432644D01*
X324839039Y-48465990D01*
X324989365Y-48498346D01*
X325098201Y-48528494D01*
X325157357Y-48555217D01*
X325176213Y-48565283D01*
X325242090Y-48589190D01*
X325330731Y-48614382D01*
X325377000Y-48626937D01*
X325475657Y-48658867D01*
X325548059Y-48688922D01*
X325605675Y-48714747D01*
X325652794Y-48727393D01*
X325676572Y-48733290D01*
X325742151Y-48759672D01*
X325826966Y-48800021D01*
X325885340Y-48828222D01*
X325960990Y-48860126D01*
X326005174Y-48872593D01*
X326006413Y-48872627D01*
X326057207Y-48888818D01*
X326139243Y-48928735D01*
X326236417Y-48983865D01*
X326332628Y-49045696D01*
X326405339Y-49091653D01*
X326492285Y-49140166D01*
X326555545Y-49173091D01*
X326718199Y-49263317D01*
X326874237Y-49357010D01*
X327012290Y-49446892D01*
X327120991Y-49525688D01*
X327188971Y-49586119D01*
X327197176Y-49594296D01*
X327248704Y-49636347D01*
X327319600Y-49687204D01*
X327341167Y-49702092D01*
X327408741Y-49752538D01*
X327450228Y-49789265D01*
X327475540Y-49812048D01*
X327539408Y-49860728D01*
X327621613Y-49918173D01*
X327682865Y-49960342D01*
X327762741Y-50018455D01*
X327814613Y-50060098D01*
X327897195Y-50134201D01*
X328001892Y-50221438D01*
X328103371Y-50296189D01*
X328119151Y-50307412D01*
X328201215Y-50372163D01*
X328266357Y-50432555D01*
X328319127Y-50478812D01*
X328360700Y-50498314D01*
X328371172Y-50500011D01*
X328393657Y-50530897D01*
X328400860Y-50547386D01*
X328435777Y-50528524D01*
X328448613Y-50512839D01*
X328476837Y-50446661D01*
X328496651Y-50358055D01*
X328502451Y-50321997D01*
X328551474Y-50153085D01*
X328628775Y-50007661D01*
X328725940Y-49902439D01*
X328728421Y-49900556D01*
X328799544Y-49857423D01*
X328879910Y-49836273D01*
X328993569Y-49830657D01*
X329173129Y-49846431D01*
X329393395Y-49913275D01*
X329612857Y-50035005D01*
X329635482Y-50050873D01*
X329744920Y-50137164D01*
X329876706Y-50252000D01*
X330018124Y-50383326D01*
X330156460Y-50519085D01*
X330278996Y-50647223D01*
X330373018Y-50755684D01*
X330474199Y-50882425D01*
X330620309Y-50777455D01*
X330717305Y-50714963D01*
X330803093Y-50681581D01*
X330895667Y-50672486D01*
X331047538Y-50689333D01*
X331241634Y-50744597D01*
X331451593Y-50834744D01*
X331546017Y-50879472D01*
X331607340Y-50900495D01*
X331637081Y-50895299D01*
X331644857Y-50865410D01*
X331658711Y-50822223D01*
X331711800Y-50755555D01*
X331789496Y-50692484D01*
X331875482Y-50648366D01*
X332027213Y-50617894D01*
X332189977Y-50625189D01*
X332333392Y-50670804D01*
X332352414Y-50680296D01*
X332443466Y-50720077D01*
X332519348Y-50745614D01*
X332566862Y-50752397D01*
X332596786Y-50731867D01*
X332615469Y-50667466D01*
X332628701Y-50577465D01*
X332633861Y-50483800D01*
X332635636Y-50457378D01*
X332657653Y-50367728D01*
X332697022Y-50273957D01*
X332745849Y-50198736D01*
X332835945Y-50118567D01*
X332957134Y-50067546D01*
X333117153Y-50042802D01*
X333323739Y-50041465D01*
X333422028Y-50047639D01*
X333595332Y-50064707D01*
X333780978Y-50088560D01*
X333952628Y-50116074D01*
X333970080Y-50119249D01*
X334181251Y-50158952D01*
X334370533Y-50197630D01*
X334557323Y-50239630D01*
X334761021Y-50289299D01*
X335001025Y-50350982D01*
X335101565Y-50374331D01*
X335160116Y-50379290D01*
X335168345Y-50362704D01*
X335128285Y-50324143D01*
X335127808Y-50323770D01*
X335067667Y-50283738D01*
X335024597Y-50266731D01*
X335013261Y-50263283D01*
X334959609Y-50234733D01*
X334876938Y-50183597D01*
X334777854Y-50117499D01*
X334736161Y-50089060D01*
X334635840Y-50022949D01*
X334553626Y-49971897D01*
X334504171Y-49945130D01*
X334474850Y-49930791D01*
X334400723Y-49887667D01*
X334315485Y-49832584D01*
X334262553Y-49797862D01*
X334196907Y-49758903D01*
X334161775Y-49743696D01*
X334151957Y-49740345D01*
X334101328Y-49712423D01*
X334020682Y-49662324D01*
X333922198Y-49597483D01*
X333879640Y-49569064D01*
X333780669Y-49505270D01*
X333701058Y-49457067D01*
X333654995Y-49433179D01*
X333651467Y-49431677D01*
X333605231Y-49405139D01*
X333520687Y-49351929D01*
X333405967Y-49277326D01*
X333269206Y-49186609D01*
X333118538Y-49085056D01*
X333091807Y-49066925D01*
X332942908Y-48966828D01*
X332809282Y-48878447D01*
X332699077Y-48807069D01*
X332620437Y-48757983D01*
X332581509Y-48736476D01*
X332551730Y-48720589D01*
X332478508Y-48675578D01*
X332372304Y-48607499D01*
X332241234Y-48521803D01*
X332093412Y-48423942D01*
X331936951Y-48319367D01*
X331779965Y-48213528D01*
X331630569Y-48111878D01*
X331496877Y-48019866D01*
X331387003Y-47942945D01*
X331309061Y-47886564D01*
X331271165Y-47856177D01*
X331267166Y-47852254D01*
X331215040Y-47809474D01*
X331132412Y-47748648D01*
X331035257Y-47681600D01*
X331017704Y-47669810D01*
X330926023Y-47606221D01*
X330854563Y-47553452D01*
X330817543Y-47521928D01*
X330809384Y-47513536D01*
X330757853Y-47470769D01*
X330686914Y-47419596D01*
X330665347Y-47404708D01*
X330597772Y-47354262D01*
X330556285Y-47317535D01*
X330530974Y-47294752D01*
X330467106Y-47246072D01*
X330384901Y-47188627D01*
X330323846Y-47146261D01*
X330244293Y-47086925D01*
X330192968Y-47043454D01*
X330190707Y-47041229D01*
X330129146Y-46991131D01*
X330052295Y-46940065D01*
X330039200Y-46932118D01*
X329983716Y-46892545D01*
X329961200Y-46865852D01*
X329959368Y-46860766D01*
X329926236Y-46828560D01*
X329864655Y-46785782D01*
X329859260Y-46782416D01*
X329771946Y-46721948D01*
X329695087Y-46660043D01*
X329675162Y-46642331D01*
X329597001Y-46575645D01*
X329513060Y-46506886D01*
X329507005Y-46502003D01*
X329428920Y-46434741D01*
X329331726Y-46345739D01*
X329235009Y-46252886D01*
X329210581Y-46229083D01*
X329131185Y-46156142D01*
X329068586Y-46105155D01*
X329034608Y-46085971D01*
X329020159Y-46081039D01*
X329003257Y-46042429D01*
X328998199Y-46022122D01*
X328959714Y-45998886D01*
X328939408Y-45993828D01*
X328916171Y-45955343D01*
X328912064Y-45935177D01*
X328879885Y-45910879D01*
X328862318Y-45901348D01*
X328807739Y-45856736D01*
X328725732Y-45781947D01*
X328623881Y-45683969D01*
X328509771Y-45569793D01*
X328322274Y-45374246D01*
X328100228Y-45131014D01*
X327892778Y-44891230D01*
X327707196Y-44663592D01*
X327550755Y-44456796D01*
X327430729Y-44279540D01*
X327371882Y-44178373D01*
X327295720Y-44033912D01*
X327216529Y-43872488D01*
X327140532Y-43707656D01*
X327073951Y-43552970D01*
X327023012Y-43421986D01*
X326993938Y-43328257D01*
X326976655Y-43236662D01*
X326959518Y-43023883D01*
X327338199Y-43023883D01*
X327370872Y-43255686D01*
X327373487Y-43266165D01*
X327406334Y-43362703D01*
X327460954Y-43494017D01*
X327530966Y-43646632D01*
X327609988Y-43807070D01*
X327691638Y-43961856D01*
X327769534Y-44097514D01*
X327787796Y-44126141D01*
X327856672Y-44222772D01*
X327950742Y-44344378D01*
X328064382Y-44484599D01*
X328191968Y-44637070D01*
X328327876Y-44795431D01*
X328466481Y-44953318D01*
X328602158Y-45104371D01*
X328729285Y-45242226D01*
X328842236Y-45360521D01*
X328935387Y-45452895D01*
X329003114Y-45512985D01*
X329039793Y-45534429D01*
X329082662Y-45554714D01*
X329127743Y-45601583D01*
X329148400Y-45648469D01*
X329153330Y-45662801D01*
X329191943Y-45679571D01*
X329212249Y-45684629D01*
X329235485Y-45723114D01*
X329240543Y-45743421D01*
X329279028Y-45766657D01*
X329299059Y-45769932D01*
X329322571Y-45795686D01*
X329323365Y-45802583D01*
X329350217Y-45824714D01*
X329383169Y-45843434D01*
X329443676Y-45892996D01*
X329518448Y-45962600D01*
X329589824Y-46030606D01*
X329687280Y-46118803D01*
X329768568Y-46187571D01*
X329796854Y-46210285D01*
X329880857Y-46279777D01*
X329947921Y-46337882D01*
X330020767Y-46396118D01*
X330105584Y-46452998D01*
X330115821Y-46459184D01*
X330170951Y-46498421D01*
X330193428Y-46525291D01*
X330196618Y-46532267D01*
X330233213Y-46565891D01*
X330297562Y-46610052D01*
X330316071Y-46621778D01*
X330393922Y-46676521D01*
X330449962Y-46723801D01*
X330482795Y-46752846D01*
X330555973Y-46809204D01*
X330643371Y-46870715D01*
X330708497Y-46915821D01*
X330778789Y-46968074D01*
X330817543Y-47001576D01*
X330825711Y-47009925D01*
X330877241Y-47052551D01*
X330948171Y-47103661D01*
X330969720Y-47118541D01*
X331037305Y-47169077D01*
X331078800Y-47205960D01*
X331082190Y-47209498D01*
X331126384Y-47245386D01*
X331202584Y-47300520D01*
X331296514Y-47364504D01*
X331316348Y-47377707D01*
X331404623Y-47438132D01*
X331470099Y-47485621D01*
X331499819Y-47510847D01*
X331501793Y-47512933D01*
X331538648Y-47540778D01*
X331614774Y-47593934D01*
X331722304Y-47667202D01*
X331853367Y-47755379D01*
X332000094Y-47853264D01*
X332154618Y-47955657D01*
X332309068Y-48057355D01*
X332455575Y-48153159D01*
X332586270Y-48237865D01*
X332693285Y-48306274D01*
X332768750Y-48353185D01*
X332804795Y-48373395D01*
X332805269Y-48373578D01*
X332844146Y-48395049D01*
X332922852Y-48443017D01*
X333032990Y-48512208D01*
X333166161Y-48597346D01*
X333313968Y-48693159D01*
X333318868Y-48696355D01*
X333466229Y-48791835D01*
X333598592Y-48876404D01*
X333707583Y-48944806D01*
X333784832Y-48991787D01*
X333821968Y-49012089D01*
X333832634Y-49016940D01*
X333889428Y-49049360D01*
X333975043Y-49102792D01*
X334075436Y-49168567D01*
X334109083Y-49190889D01*
X334211238Y-49256191D01*
X334297216Y-49307716D01*
X334351207Y-49335873D01*
X334382499Y-49350832D01*
X334460521Y-49395415D01*
X334547714Y-49451359D01*
X334600633Y-49485997D01*
X334666908Y-49525014D01*
X334702920Y-49540247D01*
X334720142Y-49546939D01*
X334778953Y-49579416D01*
X334866903Y-49632730D01*
X334972433Y-49700029D01*
X335043517Y-49745779D01*
X335137948Y-49804511D01*
X335206789Y-49844754D01*
X335238660Y-49859686D01*
X335249948Y-49863074D01*
X335300323Y-49890005D01*
X335370827Y-49935027D01*
X335383839Y-49943673D01*
X335471412Y-49997345D01*
X335585239Y-50062391D01*
X335704137Y-50126632D01*
X335768615Y-50160326D01*
X335911818Y-50235130D01*
X336069224Y-50317324D01*
X336216857Y-50394387D01*
X336307598Y-50441995D01*
X336443373Y-50514035D01*
X336564408Y-50579132D01*
X336652285Y-50627428D01*
X336710082Y-50659611D01*
X336808563Y-50713365D01*
X336884514Y-50753549D01*
X336908957Y-50766633D01*
X336997098Y-50818545D01*
X337088195Y-50877179D01*
X337096945Y-50882688D01*
X337170516Y-50918902D01*
X337287556Y-50967500D01*
X337438054Y-51024653D01*
X337612004Y-51086531D01*
X337799395Y-51149305D01*
X337848903Y-51165443D01*
X338030718Y-51225778D01*
X338198184Y-51282927D01*
X338341055Y-51333297D01*
X338449083Y-51373291D01*
X338512022Y-51399315D01*
X338542573Y-51413232D01*
X338626030Y-51443988D01*
X338686151Y-51456257D01*
X338698994Y-51457594D01*
X338765162Y-51472914D01*
X338867335Y-51501938D01*
X338992410Y-51540376D01*
X339127284Y-51583936D01*
X339258855Y-51628330D01*
X339374021Y-51669268D01*
X339459677Y-51702458D01*
X339502722Y-51723612D01*
X339545473Y-51742499D01*
X339628064Y-51767127D01*
X339731599Y-51791596D01*
X339830025Y-51815587D01*
X339951466Y-51852842D01*
X340045276Y-51889880D01*
X340065514Y-51899442D01*
X340179919Y-51949058D01*
X340291764Y-51992179D01*
X340318700Y-52001672D01*
X340393275Y-52026821D01*
X340425767Y-52030664D01*
X340426602Y-52010657D01*
X340406204Y-51964257D01*
X340378213Y-51915033D01*
X340352291Y-51891686D01*
X340350992Y-51891533D01*
X340325848Y-51864368D01*
X340295371Y-51804600D01*
X340293182Y-51799401D01*
X340262861Y-51741394D01*
X340239130Y-51717514D01*
X340217941Y-51694206D01*
X340180671Y-51631552D01*
X340135714Y-51543343D01*
X340091705Y-51456517D01*
X340054756Y-51393305D01*
X340033739Y-51369171D01*
X340020171Y-51356498D01*
X339987483Y-51303780D01*
X339947028Y-51224029D01*
X339917666Y-51164898D01*
X339881701Y-51102927D01*
X339859943Y-51078886D01*
X339846227Y-51066220D01*
X339813378Y-51013501D01*
X339772857Y-50933743D01*
X339743494Y-50874612D01*
X339707530Y-50812641D01*
X339685771Y-50788600D01*
X339672056Y-50775934D01*
X339639207Y-50723216D01*
X339598685Y-50643457D01*
X339569365Y-50584299D01*
X339533644Y-50522347D01*
X339512246Y-50498314D01*
X339509483Y-50496977D01*
X339484518Y-50462551D01*
X339444088Y-50391032D01*
X339395485Y-50295114D01*
X339384094Y-50271819D01*
X339336710Y-50180334D01*
X339299155Y-50116135D01*
X339278725Y-50091914D01*
X339265264Y-50079236D01*
X339232693Y-50026517D01*
X339192285Y-49946771D01*
X339162830Y-49887702D01*
X339126322Y-49825688D01*
X339103759Y-49801629D01*
X339101961Y-49801331D01*
X339076780Y-49772845D01*
X339046119Y-49712070D01*
X339045928Y-49711611D01*
X339009174Y-49637986D01*
X338972864Y-49586354D01*
X338966995Y-49579505D01*
X338932209Y-49526023D01*
X338883184Y-49439438D01*
X338828568Y-49334826D01*
X338811793Y-49301753D01*
X338761193Y-49206087D01*
X338721018Y-49136057D01*
X338698765Y-49104943D01*
X338689586Y-49093702D01*
X338656871Y-49039456D01*
X338609290Y-48952027D01*
X338553657Y-48843686D01*
X338522511Y-48782312D01*
X338470500Y-48683943D01*
X338430311Y-48613226D01*
X338408750Y-48582429D01*
X338397307Y-48569397D01*
X338363408Y-48515371D01*
X338321428Y-48437286D01*
X338297427Y-48391400D01*
X338258674Y-48324644D01*
X338234142Y-48292143D01*
X338229296Y-48287000D01*
X338200475Y-48241556D01*
X338156142Y-48161460D01*
X338103714Y-48059914D01*
X338085963Y-48024826D01*
X338035371Y-47928901D01*
X337995307Y-47858786D01*
X337973194Y-47827686D01*
X337955119Y-47804447D01*
X337917702Y-47741505D01*
X337872171Y-47655576D01*
X337834385Y-47584487D01*
X337786824Y-47504624D01*
X337752250Y-47457560D01*
X337730187Y-47431437D01*
X337711828Y-47392257D01*
X337704984Y-47371686D01*
X337670858Y-47326405D01*
X337669423Y-47324882D01*
X337639435Y-47280381D01*
X337590954Y-47196107D01*
X337530367Y-47083554D01*
X337464061Y-46954217D01*
X337455966Y-46938082D01*
X337392428Y-46813788D01*
X337337626Y-46710514D01*
X337297179Y-46638625D01*
X337276703Y-46608486D01*
X337265238Y-46595456D01*
X337231307Y-46541430D01*
X337189314Y-46463343D01*
X337165316Y-46417451D01*
X337126604Y-46350699D01*
X337102136Y-46318200D01*
X337083696Y-46294153D01*
X337046220Y-46230562D01*
X337000628Y-46144029D01*
X336961919Y-46070061D01*
X336922454Y-46001778D01*
X336898885Y-45969857D01*
X336889731Y-45958615D01*
X336857058Y-45904367D01*
X336809506Y-45816939D01*
X336753885Y-45708600D01*
X336722740Y-45647231D01*
X336670709Y-45548860D01*
X336630487Y-45478141D01*
X336608886Y-45447343D01*
X336590343Y-45423302D01*
X336552773Y-45359710D01*
X336507143Y-45273171D01*
X336468433Y-45199204D01*
X336428968Y-45130921D01*
X336405400Y-45099000D01*
X336396246Y-45087758D01*
X336363573Y-45033510D01*
X336316021Y-44946082D01*
X336260400Y-44837743D01*
X336229254Y-44776378D01*
X336177210Y-44678005D01*
X336136966Y-44607284D01*
X336115337Y-44576486D01*
X336114136Y-44575523D01*
X336089407Y-44539841D01*
X336048442Y-44467629D01*
X335999456Y-44373286D01*
X335926907Y-44239130D01*
X335863137Y-44150013D01*
X335799133Y-44095855D01*
X335725845Y-44066513D01*
X335675431Y-44047710D01*
X335650800Y-44024102D01*
X335650782Y-44023617D01*
X335624628Y-44001546D01*
X335563714Y-43981400D01*
X335562021Y-43981023D01*
X335501653Y-43959747D01*
X335476628Y-43935551D01*
X335471734Y-43923279D01*
X335433085Y-43908829D01*
X335413089Y-43905825D01*
X335389543Y-43882106D01*
X335389526Y-43881583D01*
X335363399Y-43857321D01*
X335302457Y-43836257D01*
X335300764Y-43835880D01*
X335240396Y-43814604D01*
X335215371Y-43790408D01*
X335210477Y-43778136D01*
X335171828Y-43763686D01*
X335151797Y-43760411D01*
X335128285Y-43734657D01*
X335123373Y-43721303D01*
X335084743Y-43705629D01*
X335064746Y-43702625D01*
X335041200Y-43678906D01*
X335041183Y-43678383D01*
X335015057Y-43654121D01*
X334954114Y-43633057D01*
X334952414Y-43632679D01*
X334892051Y-43611476D01*
X334870985Y-43591249D01*
X335994023Y-43591249D01*
X335995673Y-43628952D01*
X336027934Y-43705164D01*
X336090107Y-43794736D01*
X336159153Y-43838940D01*
X336206778Y-43857359D01*
X336231371Y-43882947D01*
X336233905Y-43892436D01*
X336267657Y-43909007D01*
X336269724Y-43909084D01*
X336321066Y-43923782D01*
X336391028Y-43956169D01*
X336614398Y-44075864D01*
X336892659Y-44221959D01*
X337124860Y-44339741D01*
X337313115Y-44430249D01*
X337459541Y-44494522D01*
X337566253Y-44533599D01*
X337587525Y-44541312D01*
X337663306Y-44574264D01*
X337767005Y-44623443D01*
X337882655Y-44681391D01*
X337932383Y-44706580D01*
X338052590Y-44764552D01*
X338158405Y-44811871D01*
X338231431Y-44840161D01*
X338239901Y-44842896D01*
X338326562Y-44875793D01*
X338394000Y-44908837D01*
X338420498Y-44922953D01*
X338500164Y-44957600D01*
X338595114Y-44992688D01*
X338688873Y-45023404D01*
X338746879Y-45037845D01*
X338754110Y-45027739D01*
X338711592Y-44990237D01*
X338620346Y-44922492D01*
X338610020Y-44915006D01*
X338522582Y-44853793D01*
X338430608Y-44794135D01*
X338324627Y-44730511D01*
X338195170Y-44657402D01*
X338032765Y-44569288D01*
X337827943Y-44460651D01*
X337787470Y-44439275D01*
X337628003Y-44354161D01*
X337471659Y-44269484D01*
X337334568Y-44194027D01*
X337232857Y-44136572D01*
X337223480Y-44131175D01*
X337105709Y-44067580D01*
X336989604Y-44011203D01*
X336899028Y-43973689D01*
X336862583Y-43960515D01*
X336773185Y-43924065D01*
X336710343Y-43892837D01*
X336698938Y-43886336D01*
X336625258Y-43852841D01*
X336536171Y-43820577D01*
X336515853Y-43813911D01*
X336427404Y-43780037D01*
X336362000Y-43748005D01*
X336350726Y-43741535D01*
X336277018Y-43708130D01*
X336187828Y-43676328D01*
X336162706Y-43668205D01*
X336087777Y-43639228D01*
X336044137Y-43615036D01*
X336022094Y-43597000D01*
X335994023Y-43591249D01*
X334870985Y-43591249D01*
X334867028Y-43587450D01*
X334867008Y-43587133D01*
X334841394Y-43563662D01*
X334774167Y-43520444D01*
X334675351Y-43463532D01*
X334554971Y-43398981D01*
X334417949Y-43327341D01*
X334212628Y-43217160D01*
X334210680Y-43216062D01*
X335080868Y-43216062D01*
X335086479Y-43231680D01*
X335128285Y-43270200D01*
X335185739Y-43310482D01*
X335234327Y-43328257D01*
X335250257Y-43330790D01*
X335273428Y-43357286D01*
X335278341Y-43370640D01*
X335316971Y-43386314D01*
X335337002Y-43389589D01*
X335360514Y-43415343D01*
X335365427Y-43428697D01*
X335404057Y-43444371D01*
X335424088Y-43447646D01*
X335447600Y-43473400D01*
X335452291Y-43486556D01*
X335490520Y-43502429D01*
X335502371Y-43501699D01*
X335519061Y-43484416D01*
X335501828Y-43433046D01*
X335475869Y-43389592D01*
X335425892Y-43344891D01*
X335344449Y-43302945D01*
X335218979Y-43255888D01*
X335201448Y-43249867D01*
X335117256Y-43222429D01*
X335080868Y-43216062D01*
X334210680Y-43216062D01*
X334044628Y-43122475D01*
X334006149Y-43099252D01*
X334814705Y-43099252D01*
X334838170Y-43119458D01*
X334896057Y-43154086D01*
X334975547Y-43194513D01*
X335025889Y-43210191D01*
X335041200Y-43196147D01*
X335033849Y-43187344D01*
X334989637Y-43161457D01*
X334924203Y-43131374D01*
X334859420Y-43106752D01*
X334817161Y-43097245D01*
X334814705Y-43099252D01*
X334006149Y-43099252D01*
X333976759Y-43081514D01*
X334750914Y-43081514D01*
X334765428Y-43096029D01*
X334779943Y-43081514D01*
X334765428Y-43067000D01*
X334750914Y-43081514D01*
X333976759Y-43081514D01*
X333904120Y-43037674D01*
X333781278Y-42957146D01*
X333730257Y-42923500D01*
X333611524Y-42851174D01*
X333501998Y-42790880D01*
X333456990Y-42767292D01*
X333347883Y-42705502D01*
X333256009Y-42648005D01*
X333164764Y-42595055D01*
X333017061Y-42528018D01*
X332855620Y-42469667D01*
X332704802Y-42429649D01*
X332675922Y-42423627D01*
X332550891Y-42395045D01*
X332395081Y-42356866D01*
X332227707Y-42313985D01*
X332067989Y-42271293D01*
X331935143Y-42233685D01*
X331886905Y-42220385D01*
X331737389Y-42185560D01*
X331543540Y-42146659D01*
X331314721Y-42105265D01*
X331060294Y-42062962D01*
X330789618Y-42021334D01*
X330512057Y-41981965D01*
X330236971Y-41946436D01*
X330228219Y-41945368D01*
X329999509Y-41918638D01*
X329811624Y-41899927D01*
X329648568Y-41888379D01*
X329494343Y-41883136D01*
X329332952Y-41883344D01*
X329148400Y-41888144D01*
X328923899Y-41898014D01*
X328628460Y-41921028D01*
X328377962Y-41955913D01*
X328164849Y-42005024D01*
X327981567Y-42070714D01*
X327820559Y-42155339D01*
X327674270Y-42261252D01*
X327535145Y-42390808D01*
X327488109Y-42445969D01*
X327398592Y-42609679D01*
X327348030Y-42805433D01*
X327338199Y-43023883D01*
X326959518Y-43023883D01*
X326959473Y-43023324D01*
X326969627Y-42807145D01*
X327005049Y-42602544D01*
X327063672Y-42423941D01*
X327143427Y-42285756D01*
X327205939Y-42212087D01*
X327296019Y-42118990D01*
X327384252Y-42039716D01*
X327458935Y-41984585D01*
X327508369Y-41963914D01*
X327528224Y-41961499D01*
X327552012Y-41942143D01*
X327555457Y-41932386D01*
X327598976Y-41895024D01*
X327684719Y-41847305D01*
X327802895Y-41794257D01*
X327943714Y-41740910D01*
X328228417Y-41661317D01*
X328571840Y-41602789D01*
X328956116Y-41569817D01*
X329375342Y-41562687D01*
X329823614Y-41581684D01*
X330295028Y-41627095D01*
X330443053Y-41645806D01*
X330679013Y-41677894D01*
X330918957Y-41712908D01*
X331154087Y-41749386D01*
X331375608Y-41785862D01*
X331574722Y-41820873D01*
X331742633Y-41852955D01*
X331870543Y-41880644D01*
X331949657Y-41902475D01*
X331969870Y-41909592D01*
X332001964Y-41919463D01*
X332005660Y-41915433D01*
X331975727Y-41893321D01*
X331906935Y-41848946D01*
X331794051Y-41778128D01*
X331748060Y-41749376D01*
X331644575Y-41684658D01*
X331557771Y-41630347D01*
X331496915Y-41591726D01*
X331398842Y-41528813D01*
X331279072Y-41451560D01*
X331151371Y-41368829D01*
X331030318Y-41290235D01*
X330905884Y-41209474D01*
X330801089Y-41141485D01*
X330730457Y-41095695D01*
X330696589Y-41073289D01*
X330622535Y-41021112D01*
X330574845Y-40983061D01*
X330548512Y-40963041D01*
X330478192Y-40919683D01*
X330389856Y-40871911D01*
X330326660Y-40837865D01*
X330206203Y-40766196D01*
X330095526Y-40693419D01*
X330012508Y-40635721D01*
X329888999Y-40551405D01*
X329772514Y-40473279D01*
X329678219Y-40410618D01*
X329568818Y-40337528D01*
X329482228Y-40279273D01*
X329459059Y-40263629D01*
X329351813Y-40191936D01*
X329250000Y-40124744D01*
X329214951Y-40101558D01*
X329143391Y-40052482D01*
X329099076Y-40019643D01*
X329092695Y-40014711D01*
X329037157Y-39980603D01*
X328961190Y-39941286D01*
X328940433Y-39930993D01*
X328881712Y-39896361D01*
X328858114Y-39872889D01*
X328853647Y-39865597D01*
X328812412Y-39837005D01*
X328742000Y-39801286D01*
X328710247Y-39786160D01*
X328649857Y-39751438D01*
X328625885Y-39727827D01*
X328625734Y-39726517D01*
X328598573Y-39701205D01*
X328538800Y-39670657D01*
X328533652Y-39668488D01*
X328475611Y-39637866D01*
X328451714Y-39613487D01*
X328447273Y-39605715D01*
X328406048Y-39576152D01*
X328335600Y-39540029D01*
X328303924Y-39524882D01*
X328243481Y-39489582D01*
X328219485Y-39465005D01*
X328209879Y-39449156D01*
X328164876Y-39425009D01*
X328117956Y-39403258D01*
X328051470Y-39357738D01*
X328004237Y-39319649D01*
X327929200Y-39264257D01*
X327880259Y-39229173D01*
X327813085Y-39177171D01*
X327768469Y-39142087D01*
X327696971Y-39090086D01*
X327647884Y-39054534D01*
X327574701Y-38996605D01*
X327526090Y-38961688D01*
X327461295Y-38929334D01*
X327430455Y-38915559D01*
X327406685Y-38889338D01*
X327402266Y-38881163D01*
X327361051Y-38850780D01*
X327290571Y-38814314D01*
X327258895Y-38799168D01*
X327198453Y-38763867D01*
X327174457Y-38739290D01*
X327164850Y-38723442D01*
X327119848Y-38699294D01*
X327096748Y-38690513D01*
X327050634Y-38664291D01*
X326986751Y-38616730D01*
X326892520Y-38538956D01*
X326851831Y-38511538D01*
X326783662Y-38475701D01*
X326733402Y-38446737D01*
X326710000Y-38419725D01*
X326700031Y-38403774D01*
X326654603Y-38379730D01*
X326639073Y-38373295D01*
X326574784Y-38333698D01*
X326502203Y-38276453D01*
X326477748Y-38255653D01*
X326407075Y-38203071D01*
X326354400Y-38174008D01*
X326327225Y-38161126D01*
X326303600Y-38132143D01*
X326294024Y-38114940D01*
X326248991Y-38089694D01*
X326202070Y-38067944D01*
X326135584Y-38022424D01*
X326088114Y-37984227D01*
X326012813Y-37928943D01*
X326009518Y-37926678D01*
X325941538Y-37874945D01*
X325868171Y-37812829D01*
X325864063Y-37809150D01*
X325790016Y-37746868D01*
X325723530Y-37696714D01*
X325648950Y-37642908D01*
X325503486Y-37527008D01*
X325467465Y-37501868D01*
X325403714Y-37464486D01*
X325352194Y-37434768D01*
X325303942Y-37401964D01*
X325204197Y-37321254D01*
X325084400Y-37232257D01*
X325035459Y-37197173D01*
X324968285Y-37145171D01*
X324922959Y-37109708D01*
X324851153Y-37058086D01*
X324807195Y-37024336D01*
X324731710Y-36959716D01*
X324648971Y-36883914D01*
X324579908Y-36820349D01*
X324501731Y-36752749D01*
X324446289Y-36709743D01*
X324443040Y-36707545D01*
X324374347Y-36655801D01*
X324300628Y-36593629D01*
X324296694Y-36590106D01*
X324222109Y-36527748D01*
X324154487Y-36477514D01*
X324142670Y-36469061D01*
X324081902Y-36419224D01*
X323998499Y-36345248D01*
X323906867Y-36259800D01*
X323898313Y-36251623D01*
X323787076Y-36145696D01*
X323669582Y-36034383D01*
X323569895Y-35940486D01*
X323512336Y-35884440D01*
X323396422Y-35764414D01*
X323262820Y-35619801D01*
X323122984Y-35463483D01*
X322988373Y-35308341D01*
X322870443Y-35167257D01*
X322780652Y-35053112D01*
X322752998Y-35014777D01*
X322630782Y-34806790D01*
X322542819Y-34587387D01*
X322492024Y-34368306D01*
X322483838Y-34210079D01*
X322733871Y-34210079D01*
X322739800Y-34277539D01*
X322776129Y-34423721D01*
X322838405Y-34582819D01*
X322918377Y-34735215D01*
X323007793Y-34861292D01*
X323232308Y-35118070D01*
X323566812Y-35481462D01*
X323886009Y-35803095D01*
X324196236Y-36089258D01*
X324503828Y-36346240D01*
X324537481Y-36373090D01*
X324658094Y-36471481D01*
X324775357Y-36569905D01*
X324867990Y-36650578D01*
X324944559Y-36717518D01*
X325024860Y-36783796D01*
X325081150Y-36825857D01*
X325150304Y-36875820D01*
X325224988Y-36936413D01*
X325302338Y-36995359D01*
X325389200Y-37049320D01*
X325395254Y-37052535D01*
X325457274Y-37088415D01*
X325490800Y-37113018D01*
X325506528Y-37126621D01*
X325560358Y-37166044D01*
X325635943Y-37217743D01*
X325687523Y-37252521D01*
X325750501Y-37296550D01*
X325781085Y-37320170D01*
X325781810Y-37320935D01*
X325824005Y-37358770D01*
X325900533Y-37422033D01*
X325999751Y-37501572D01*
X326110018Y-37588234D01*
X326219691Y-37672865D01*
X326317128Y-37746313D01*
X326390685Y-37799424D01*
X326447747Y-37838873D01*
X326565789Y-37920785D01*
X326647622Y-37978287D01*
X326701678Y-38017439D01*
X326736389Y-38044299D01*
X326760188Y-38064927D01*
X326788387Y-38085714D01*
X326855314Y-38117683D01*
X326889329Y-38132786D01*
X326913200Y-38158468D01*
X326933131Y-38182842D01*
X326986862Y-38214444D01*
X327043262Y-38243443D01*
X327095720Y-38277699D01*
X327153755Y-38326143D01*
X327229188Y-38385651D01*
X327281425Y-38419991D01*
X327323048Y-38438037D01*
X327353888Y-38451812D01*
X327377657Y-38478033D01*
X327382076Y-38486209D01*
X327423292Y-38516592D01*
X327493771Y-38553057D01*
X327525447Y-38568204D01*
X327585890Y-38603504D01*
X327609885Y-38628081D01*
X327619492Y-38643929D01*
X327664495Y-38668077D01*
X327711415Y-38689827D01*
X327777901Y-38735347D01*
X327825134Y-38773436D01*
X327900171Y-38828829D01*
X327949112Y-38863913D01*
X328016285Y-38915914D01*
X328060902Y-38950998D01*
X328132400Y-39003000D01*
X328181487Y-39038552D01*
X328254670Y-39096481D01*
X328303281Y-39131398D01*
X328368076Y-39163751D01*
X328398916Y-39177527D01*
X328422685Y-39203747D01*
X328427105Y-39211923D01*
X328468320Y-39242306D01*
X328538800Y-39278771D01*
X328570553Y-39293897D01*
X328630942Y-39328619D01*
X328654914Y-39352230D01*
X328655066Y-39353540D01*
X328682227Y-39378852D01*
X328742000Y-39409400D01*
X328747147Y-39411569D01*
X328805189Y-39442191D01*
X328829085Y-39466570D01*
X328833527Y-39474342D01*
X328874751Y-39503905D01*
X328945200Y-39540029D01*
X328976996Y-39555142D01*
X329037356Y-39589537D01*
X329061314Y-39612600D01*
X329065768Y-39620143D01*
X329106997Y-39649241D01*
X329177428Y-39685171D01*
X329209272Y-39700271D01*
X329269599Y-39734309D01*
X329293543Y-39756775D01*
X329296410Y-39762555D01*
X329333899Y-39791026D01*
X329400932Y-39827229D01*
X329464690Y-39860603D01*
X329587871Y-39932744D01*
X329742667Y-40029418D01*
X329920202Y-40144925D01*
X330111600Y-40273566D01*
X330307985Y-40409642D01*
X330383601Y-40459625D01*
X330510866Y-40534831D01*
X330626912Y-40594546D01*
X330700535Y-40629381D01*
X330776306Y-40668080D01*
X330817156Y-40692694D01*
X330843144Y-40711542D01*
X330908129Y-40754799D01*
X330991714Y-40808152D01*
X331055060Y-40848216D01*
X331166189Y-40919265D01*
X331295834Y-41002727D01*
X331427143Y-41087780D01*
X331495718Y-41132308D01*
X331648288Y-41230892D01*
X331789612Y-41321293D01*
X331934879Y-41413137D01*
X332099278Y-41516050D01*
X332298000Y-41639656D01*
X332326215Y-41657281D01*
X332416384Y-41714725D01*
X332488708Y-41762254D01*
X332497868Y-41768244D01*
X332567839Y-41809309D01*
X332667692Y-41863617D01*
X332778994Y-41921081D01*
X332794971Y-41929184D01*
X332913181Y-41993367D01*
X333022491Y-42059062D01*
X333101049Y-42113232D01*
X333144161Y-42144955D01*
X333306218Y-42239616D01*
X333489051Y-42318522D01*
X333664466Y-42368881D01*
X333705169Y-42378677D01*
X333804638Y-42406862D01*
X333943016Y-42448851D01*
X334110788Y-42501680D01*
X334298435Y-42562387D01*
X334496442Y-42628006D01*
X335185399Y-42859091D01*
X335138277Y-42767103D01*
X335133178Y-42757301D01*
X335096324Y-42694184D01*
X335069775Y-42660600D01*
X335068356Y-42659308D01*
X335044890Y-42622791D01*
X335002213Y-42545894D01*
X334945905Y-42438942D01*
X334881543Y-42312257D01*
X334872391Y-42293989D01*
X334808783Y-42169409D01*
X334753969Y-42065987D01*
X334713535Y-41994047D01*
X334693067Y-41963914D01*
X334674495Y-41939876D01*
X334636898Y-41876283D01*
X334591257Y-41789743D01*
X334552480Y-41715812D01*
X334512712Y-41647504D01*
X334488713Y-41615571D01*
X334478575Y-41601869D01*
X334444980Y-41543367D01*
X334393935Y-41447631D01*
X334330266Y-41323779D01*
X334258795Y-41180931D01*
X334212254Y-41087490D01*
X334145176Y-40955663D01*
X334088968Y-40848629D01*
X334048465Y-40775528D01*
X334028502Y-40745503D01*
X334026283Y-40742850D01*
X334002800Y-40701176D01*
X333957608Y-40613558D01*
X333893207Y-40485192D01*
X333812097Y-40321276D01*
X333716777Y-40127008D01*
X333609747Y-39907583D01*
X333493506Y-39668200D01*
X333370554Y-39414057D01*
X333243390Y-39150349D01*
X333114515Y-38882274D01*
X332986426Y-38615031D01*
X332861625Y-38353815D01*
X332742610Y-38103824D01*
X332631881Y-37870256D01*
X332531937Y-37658308D01*
X332445278Y-37473177D01*
X332374404Y-37320059D01*
X332321814Y-37204154D01*
X332290008Y-37130657D01*
X332280452Y-37107273D01*
X332236312Y-37000395D01*
X332181922Y-36869869D01*
X332126889Y-36738771D01*
X332109558Y-36696823D01*
X332060197Y-36568366D01*
X332019769Y-36450580D01*
X331995689Y-36364614D01*
X331987897Y-36332712D01*
X331958135Y-36248532D01*
X331925711Y-36194385D01*
X331921897Y-36190764D01*
X331863947Y-36147717D01*
X331763115Y-36083131D01*
X331627213Y-36001409D01*
X331464051Y-35906955D01*
X331281441Y-35804172D01*
X331087194Y-35697463D01*
X330889121Y-35591233D01*
X330695034Y-35489885D01*
X330512743Y-35397822D01*
X330406236Y-35345180D01*
X330062893Y-35176053D01*
X329768879Y-35032219D01*
X329522350Y-34912796D01*
X329321464Y-34816902D01*
X329164378Y-34743656D01*
X329049247Y-34692174D01*
X328974228Y-34661575D01*
X328690606Y-34552105D01*
X328398180Y-34426991D01*
X328329617Y-34398253D01*
X328200651Y-34349352D01*
X328037177Y-34290950D01*
X327851089Y-34227109D01*
X327654278Y-34161894D01*
X327458637Y-34099366D01*
X327276057Y-34043590D01*
X326898454Y-33936273D01*
X326288173Y-33785015D01*
X325712034Y-33671969D01*
X325164761Y-33596312D01*
X324641074Y-33557220D01*
X324135695Y-33553872D01*
X323965258Y-33559876D01*
X323755375Y-33572380D01*
X323581139Y-33591077D01*
X323429266Y-33617977D01*
X323286476Y-33655085D01*
X323139485Y-33704409D01*
X323124860Y-33709918D01*
X322962435Y-33797384D01*
X322838980Y-33915072D01*
X322760717Y-34055223D01*
X322733871Y-34210079D01*
X322483838Y-34210079D01*
X322481313Y-34161283D01*
X322513602Y-33978055D01*
X322529000Y-33936816D01*
X322624284Y-33783820D01*
X322771886Y-33650587D01*
X322969519Y-33538487D01*
X323214893Y-33448894D01*
X323505719Y-33383180D01*
X323606943Y-33369459D01*
X323802723Y-33354289D01*
X324036823Y-33346077D01*
X324297569Y-33344570D01*
X324573287Y-33349513D01*
X324852303Y-33360650D01*
X325122944Y-33377729D01*
X325373534Y-33400493D01*
X325592400Y-33428688D01*
X325904969Y-33480612D01*
X326663132Y-33637700D01*
X327421200Y-33840390D01*
X327445960Y-33847768D01*
X327624197Y-33902546D01*
X327811678Y-33962635D01*
X327997604Y-34024337D01*
X328171176Y-34083954D01*
X328321597Y-34137784D01*
X328438066Y-34182131D01*
X328509786Y-34213293D01*
X328521839Y-34219359D01*
X328628411Y-34268669D01*
X328732043Y-34311057D01*
X328783020Y-34330206D01*
X328892126Y-34372102D01*
X329003257Y-34415619D01*
X329071187Y-34441941D01*
X329173621Y-34479709D01*
X329250000Y-34505613D01*
X329271621Y-34513429D01*
X329348837Y-34546251D01*
X329460858Y-34597305D01*
X329596227Y-34661313D01*
X329743485Y-34732993D01*
X329871463Y-34796068D01*
X330063208Y-34890316D01*
X330274923Y-34994165D01*
X330488772Y-35098868D01*
X330686914Y-35195675D01*
X330856173Y-35279732D01*
X331053058Y-35380559D01*
X331243420Y-35480899D01*
X331411929Y-35572662D01*
X331543257Y-35647755D01*
X331655397Y-35712126D01*
X331783814Y-35778996D01*
X331883639Y-35822612D01*
X331945117Y-35838348D01*
X332007316Y-35850124D01*
X332042665Y-35896251D01*
X332047665Y-35906992D01*
X332094265Y-35955253D01*
X332179729Y-36018805D01*
X332293947Y-36089858D01*
X332314181Y-36101661D01*
X332436486Y-36176352D01*
X332595637Y-36277490D01*
X332783064Y-36399292D01*
X332990196Y-36535980D01*
X333208462Y-36681771D01*
X333429293Y-36830886D01*
X333644117Y-36977543D01*
X333844365Y-37115963D01*
X334021465Y-37240364D01*
X334166848Y-37344966D01*
X334271943Y-37423988D01*
X334357508Y-37490432D01*
X334478296Y-37582528D01*
X334585756Y-37662648D01*
X334663828Y-37718714D01*
X334698297Y-37743644D01*
X334792751Y-37817736D01*
X334903825Y-37910214D01*
X335014099Y-38006754D01*
X335090169Y-38074792D01*
X335225655Y-38194472D01*
X335370700Y-38321233D01*
X335504625Y-38436943D01*
X335757938Y-38655994D01*
X336022917Y-38889538D01*
X336265761Y-39108304D01*
X336483197Y-39309169D01*
X336671954Y-39489010D01*
X336828760Y-39644704D01*
X336950344Y-39773129D01*
X337033434Y-39871161D01*
X337074759Y-39935679D01*
X337095096Y-39998118D01*
X337089315Y-40041149D01*
X337047144Y-40041603D01*
X336968288Y-39999284D01*
X336852456Y-39913994D01*
X336699353Y-39785533D01*
X336508687Y-39613705D01*
X336280166Y-39398310D01*
X336239878Y-39360172D01*
X336124053Y-39254454D01*
X336009880Y-39154937D01*
X335917110Y-39078996D01*
X335830431Y-39012041D01*
X335706943Y-38916786D01*
X335592758Y-38828829D01*
X335589275Y-38826142D01*
X335511015Y-38764245D01*
X335399128Y-38673831D01*
X335263801Y-38563227D01*
X335115225Y-38440757D01*
X334963590Y-38314748D01*
X334818718Y-38194766D01*
X334645588Y-38053327D01*
X334475481Y-37916159D01*
X334322156Y-37794349D01*
X334199371Y-37698980D01*
X334189378Y-37691400D01*
X334094336Y-37621429D01*
X333968232Y-37531295D01*
X333817121Y-37425101D01*
X333647059Y-37306945D01*
X333464103Y-37180930D01*
X333274307Y-37051156D01*
X333083729Y-36921723D01*
X332898423Y-36796734D01*
X332724446Y-36680288D01*
X332567853Y-36576486D01*
X332434700Y-36489430D01*
X332331043Y-36423219D01*
X332262938Y-36381956D01*
X332236441Y-36369740D01*
X332236129Y-36376054D01*
X332249957Y-36423516D01*
X332280870Y-36505988D01*
X332324187Y-36610623D01*
X332328739Y-36621205D01*
X332388424Y-36760558D01*
X332450542Y-36906485D01*
X332502349Y-37029057D01*
X332544862Y-37124543D01*
X332611177Y-37260724D01*
X332673758Y-37377400D01*
X332684091Y-37395700D01*
X332735636Y-37492965D01*
X332801791Y-37624202D01*
X332875136Y-37774498D01*
X332948248Y-37928943D01*
X332974601Y-37985286D01*
X333041573Y-38125983D01*
X333101543Y-38248619D01*
X333148792Y-38341617D01*
X333177605Y-38393400D01*
X333181321Y-38399545D01*
X333210837Y-38453674D01*
X333262446Y-38552067D01*
X333333048Y-38688682D01*
X333419543Y-38857475D01*
X333518832Y-39052402D01*
X333627814Y-39267420D01*
X333743391Y-39496486D01*
X333779676Y-39568542D01*
X333969665Y-39945068D01*
X334135596Y-40272452D01*
X334278791Y-40553209D01*
X334400568Y-40789853D01*
X334502250Y-40984900D01*
X334585154Y-41140865D01*
X334650603Y-41260262D01*
X334699917Y-41345605D01*
X334734415Y-41399411D01*
X334755417Y-41424194D01*
X334770933Y-41440003D01*
X334812903Y-41499789D01*
X334874407Y-41602163D01*
X334956832Y-41749567D01*
X335061566Y-41944444D01*
X335189996Y-42189237D01*
X335232768Y-42270357D01*
X335290039Y-42375417D01*
X335335290Y-42454224D01*
X335361358Y-42494037D01*
X335377495Y-42518207D01*
X335416850Y-42587886D01*
X335469665Y-42687974D01*
X335529089Y-42805743D01*
X335555560Y-42859091D01*
X335568361Y-42884890D01*
X335618861Y-42981362D01*
X335658875Y-43042830D01*
X335697847Y-43079981D01*
X335700935Y-43081514D01*
X335745226Y-43103503D01*
X335810457Y-43124085D01*
G37*
G36*
X331427633Y-49797592D02*
G01*
X331465094Y-49862419D01*
X331458189Y-49963582D01*
X331452507Y-49983113D01*
X331430303Y-50016145D01*
X331383709Y-50030639D01*
X331295961Y-50033857D01*
X331151371Y-50033857D01*
X331151371Y-49918296D01*
X331155079Y-49850556D01*
X331174827Y-49806327D01*
X331220435Y-49785401D01*
X331228320Y-49783472D01*
X331347983Y-49770733D01*
X331427633Y-49797592D01*
G37*
G36*
X299336002Y-40839893D02*
G01*
X299402861Y-40853607D01*
X299493324Y-40887268D01*
X299616033Y-40944325D01*
X299779626Y-41028228D01*
X299841732Y-41060918D01*
X299997501Y-41142761D01*
X300185217Y-41241246D01*
X300391889Y-41349563D01*
X300604527Y-41460901D01*
X300810141Y-41568451D01*
X300965656Y-41650155D01*
X301130321Y-41737641D01*
X301271530Y-41813721D01*
X301382258Y-41874574D01*
X301455480Y-41916375D01*
X301484171Y-41935303D01*
X301484606Y-41935896D01*
X301519099Y-41958211D01*
X301591712Y-41994208D01*
X301687371Y-42036387D01*
X301754186Y-42066080D01*
X301874383Y-42122949D01*
X302023065Y-42195768D01*
X302187518Y-42278293D01*
X302355028Y-42364281D01*
X302474873Y-42426479D01*
X302655913Y-42520184D01*
X302831268Y-42610683D01*
X302985673Y-42690102D01*
X303103859Y-42750565D01*
X303185039Y-42792432D01*
X303290943Y-42848816D01*
X303370672Y-42893419D01*
X303411336Y-42919172D01*
X303445439Y-42942570D01*
X303520694Y-42985514D01*
X303613675Y-43033615D01*
X303707308Y-43078457D01*
X303784517Y-43111620D01*
X303828228Y-43124689D01*
X303841480Y-43126545D01*
X303864514Y-43149839D01*
X303877171Y-43163158D01*
X303931114Y-43197964D01*
X304015569Y-43245615D01*
X304117552Y-43299478D01*
X304224078Y-43352919D01*
X304322160Y-43399303D01*
X304398815Y-43431999D01*
X304441057Y-43444371D01*
X304451525Y-43445872D01*
X304474114Y-43473400D01*
X304479027Y-43486754D01*
X304517657Y-43502429D01*
X304537688Y-43505704D01*
X304561200Y-43531457D01*
X304566112Y-43544811D01*
X304604743Y-43560486D01*
X304624774Y-43563761D01*
X304648285Y-43589514D01*
X304656223Y-43604974D01*
X304699604Y-43618543D01*
X304712204Y-43619986D01*
X304776218Y-43643627D01*
X304852004Y-43687067D01*
X304867344Y-43697265D01*
X304967745Y-43758547D01*
X305069200Y-43813913D01*
X305195322Y-43877654D01*
X305300127Y-43932113D01*
X305378415Y-43975406D01*
X305443791Y-44015093D01*
X305509859Y-44058732D01*
X305553628Y-44087395D01*
X305619196Y-44125948D01*
X305655389Y-44141057D01*
X305683923Y-44152720D01*
X305747902Y-44189495D01*
X305830442Y-44242657D01*
X305903136Y-44289850D01*
X305969815Y-44329214D01*
X306004226Y-44344381D01*
X306023658Y-44351543D01*
X306081127Y-44383823D01*
X306157771Y-44433269D01*
X306207533Y-44465932D01*
X306292700Y-44517211D01*
X306354929Y-44549003D01*
X306411046Y-44578032D01*
X306496752Y-44629626D01*
X306592617Y-44692204D01*
X306637902Y-44722528D01*
X306866608Y-44863375D01*
X307130228Y-45005892D01*
X307153812Y-45018463D01*
X307242099Y-45069949D01*
X307333428Y-45127902D01*
X307368820Y-45150873D01*
X307445750Y-45196832D01*
X307498949Y-45223296D01*
X307517238Y-45232393D01*
X307581286Y-45270198D01*
X307678488Y-45330921D01*
X307799349Y-45408590D01*
X307934378Y-45497234D01*
X308000747Y-45540876D01*
X308144968Y-45633377D01*
X308278888Y-45716370D01*
X308389937Y-45782143D01*
X308465543Y-45822988D01*
X308531236Y-45857691D01*
X308642015Y-45922166D01*
X308770742Y-46001516D01*
X308900971Y-46085813D01*
X309014210Y-46160029D01*
X309118689Y-46226369D01*
X309198077Y-46274465D01*
X309240876Y-46297169D01*
X309249132Y-46300929D01*
X309303393Y-46332006D01*
X309392254Y-46387162D01*
X309505462Y-46459939D01*
X309632762Y-46543882D01*
X309673297Y-46570827D01*
X309797559Y-46652101D01*
X309904710Y-46720261D01*
X309984431Y-46768821D01*
X310026406Y-46791299D01*
X310063530Y-46809350D01*
X310145225Y-46858150D01*
X310248040Y-46925306D01*
X310357359Y-47000903D01*
X310458569Y-47075026D01*
X310537053Y-47137759D01*
X310559327Y-47156257D01*
X310636890Y-47212220D01*
X310700274Y-47246936D01*
X310710713Y-47251814D01*
X310769148Y-47285319D01*
X310864758Y-47344237D01*
X310989462Y-47423459D01*
X311135177Y-47517871D01*
X311293824Y-47622363D01*
X311357755Y-47664637D01*
X311508816Y-47763127D01*
X311641748Y-47847863D01*
X311749044Y-47914174D01*
X311823202Y-47957386D01*
X311856717Y-47972829D01*
X311861180Y-47973465D01*
X311908307Y-47994382D01*
X311985843Y-48038916D01*
X312079472Y-48098959D01*
X312267230Y-48225090D01*
X312377737Y-48113474D01*
X312403019Y-48089226D01*
X312487018Y-48029583D01*
X312576788Y-48002964D01*
X312679638Y-48010713D01*
X312802878Y-48054175D01*
X312953819Y-48134694D01*
X313139768Y-48253613D01*
X313151173Y-48261294D01*
X313294486Y-48359319D01*
X313404884Y-48439273D01*
X313497531Y-48513215D01*
X313587590Y-48593200D01*
X313690225Y-48691286D01*
X313749646Y-48747264D01*
X313806232Y-48795930D01*
X313835173Y-48814657D01*
X313860695Y-48828768D01*
X313909569Y-48875681D01*
X313963295Y-48938328D01*
X314006676Y-48998712D01*
X314024514Y-49038841D01*
X314029500Y-49056015D01*
X314068057Y-49075914D01*
X314088088Y-49079189D01*
X314111600Y-49104943D01*
X314116512Y-49118297D01*
X314155143Y-49133971D01*
X314175449Y-49139029D01*
X314198685Y-49177514D01*
X314203743Y-49197821D01*
X314242228Y-49221057D01*
X314262535Y-49226115D01*
X314285771Y-49264600D01*
X314290829Y-49284906D01*
X314329314Y-49308143D01*
X314349621Y-49313200D01*
X314372857Y-49351686D01*
X314376973Y-49371849D01*
X314409143Y-49395951D01*
X314413939Y-49397113D01*
X314453557Y-49427820D01*
X314513703Y-49491727D01*
X314583378Y-49577380D01*
X314590236Y-49586315D01*
X314670907Y-49686397D01*
X314765952Y-49797251D01*
X314868802Y-49912061D01*
X314972890Y-50024013D01*
X315071648Y-50126291D01*
X315158510Y-50212081D01*
X315226906Y-50274568D01*
X315270271Y-50306936D01*
X315282036Y-50302371D01*
X315267288Y-50261432D01*
X315244923Y-50237057D01*
X315237449Y-50231988D01*
X315213527Y-50188052D01*
X315187044Y-50113686D01*
X315176403Y-50080145D01*
X315149480Y-50010336D01*
X315128716Y-49975800D01*
X315115890Y-49957244D01*
X315087880Y-49891744D01*
X315053260Y-49793708D01*
X315016473Y-49677407D01*
X314981960Y-49557111D01*
X314954165Y-49447092D01*
X314937528Y-49361620D01*
X314932194Y-49317216D01*
X314932695Y-49176875D01*
X314967578Y-49076405D01*
X315038807Y-49008969D01*
X315060625Y-48996953D01*
X315156709Y-48964648D01*
X315260231Y-48964783D01*
X315374732Y-48999620D01*
X315503758Y-49071422D01*
X315650851Y-49182454D01*
X315819555Y-49334978D01*
X316013414Y-49531256D01*
X316235970Y-49773554D01*
X316429941Y-49990314D01*
X316463995Y-49895359D01*
X316465514Y-49891243D01*
X316506145Y-49817527D01*
X316555226Y-49769803D01*
X316639793Y-49751328D01*
X316757613Y-49763078D01*
X316892605Y-49801593D01*
X317030080Y-49862657D01*
X317155351Y-49942055D01*
X317256391Y-50019122D01*
X317237310Y-49899792D01*
X317229943Y-49827833D01*
X317243366Y-49764841D01*
X317289128Y-49703959D01*
X317295134Y-49697706D01*
X317361432Y-49647889D01*
X317423302Y-49627457D01*
X317490330Y-49642824D01*
X317582983Y-49687168D01*
X317673759Y-49747620D01*
X317740171Y-49811142D01*
X317742748Y-49814439D01*
X317786873Y-49866484D01*
X317855746Y-49943687D01*
X317935620Y-50030612D01*
X317954097Y-50050582D01*
X318048440Y-50155974D01*
X318153928Y-50278116D01*
X318260579Y-50405010D01*
X318358415Y-50524662D01*
X318437456Y-50625077D01*
X318487723Y-50694257D01*
X318526087Y-50737436D01*
X318570435Y-50759571D01*
X318576688Y-50760628D01*
X318614640Y-50793565D01*
X318651492Y-50858280D01*
X318652031Y-50859561D01*
X318689478Y-50934694D01*
X318747109Y-51035777D01*
X318812678Y-51141308D01*
X318831583Y-51170618D01*
X318903172Y-51290772D01*
X318943321Y-51381826D01*
X318956568Y-51456828D01*
X318947451Y-51528829D01*
X318945743Y-51535383D01*
X318925437Y-51578116D01*
X318883683Y-51597093D01*
X318802313Y-51601400D01*
X318769368Y-51601094D01*
X318702219Y-51592374D01*
X318662518Y-51560918D01*
X318627482Y-51492543D01*
X318617597Y-51470471D01*
X318559413Y-51352278D01*
X318500275Y-51248064D01*
X318451371Y-51177821D01*
X318422992Y-51141685D01*
X318378800Y-51079735D01*
X318343399Y-51029852D01*
X318291714Y-50962771D01*
X318256443Y-50917805D01*
X318204628Y-50846156D01*
X318201980Y-50842306D01*
X318150316Y-50774084D01*
X318088514Y-50700220D01*
X318085575Y-50696896D01*
X318019749Y-50620617D01*
X317962012Y-50551029D01*
X317908081Y-50483800D01*
X317927891Y-50624264D01*
X317933378Y-50695021D01*
X317914181Y-50796586D01*
X317855720Y-50855859D01*
X317757444Y-50873645D01*
X317689369Y-50868732D01*
X317629359Y-50852148D01*
X317567386Y-50816477D01*
X317490576Y-50754244D01*
X317386055Y-50657971D01*
X317279605Y-50559200D01*
X317140673Y-50436101D01*
X317023020Y-50338923D01*
X316931567Y-50271472D01*
X316871234Y-50237554D01*
X316846941Y-50240974D01*
X316847843Y-50255988D01*
X316865054Y-50319357D01*
X316898930Y-50414548D01*
X316944621Y-50527343D01*
X316984876Y-50622580D01*
X317042592Y-50767283D01*
X317078468Y-50874212D01*
X317094863Y-50952783D01*
X317094134Y-51012413D01*
X317078639Y-51062520D01*
X317049929Y-51108212D01*
X317003071Y-51131377D01*
X316919452Y-51136943D01*
X316882209Y-51136494D01*
X316834953Y-51130296D01*
X316793937Y-51110165D01*
X316749004Y-51067891D01*
X316690001Y-50995259D01*
X316606772Y-50884058D01*
X316552189Y-50809919D01*
X316466306Y-50691510D01*
X316391854Y-50586863D01*
X316340538Y-50512318D01*
X316330483Y-50497640D01*
X316270653Y-50418939D01*
X316186023Y-50316182D01*
X316082866Y-50196170D01*
X315967455Y-50065704D01*
X315846062Y-49931587D01*
X315724960Y-49800618D01*
X315610421Y-49679601D01*
X315508717Y-49575335D01*
X315426122Y-49494622D01*
X315368908Y-49444264D01*
X315343347Y-49431062D01*
X315341509Y-49439012D01*
X315349997Y-49487712D01*
X315371536Y-49562203D01*
X315399515Y-49642800D01*
X315427319Y-49709818D01*
X315448335Y-49743571D01*
X315455355Y-49751972D01*
X315479512Y-49803295D01*
X315506358Y-49881457D01*
X315517685Y-49916358D01*
X315544480Y-49979718D01*
X315565317Y-50004829D01*
X315565783Y-50004847D01*
X315586847Y-50031014D01*
X315606571Y-50091914D01*
X315606962Y-50093670D01*
X315627542Y-50153996D01*
X315650114Y-50179000D01*
X315650610Y-50179018D01*
X315673266Y-50205164D01*
X315693657Y-50266086D01*
X315694048Y-50267842D01*
X315714628Y-50328167D01*
X315737200Y-50353171D01*
X315737696Y-50353189D01*
X315760352Y-50379335D01*
X315780743Y-50440257D01*
X315781147Y-50442078D01*
X315801036Y-50502360D01*
X315821997Y-50527343D01*
X315829758Y-50532396D01*
X315854200Y-50576327D01*
X315880845Y-50650714D01*
X315905986Y-50724480D01*
X315951171Y-50839305D01*
X316001555Y-50954304D01*
X316044884Y-51057144D01*
X316079778Y-51190143D01*
X316073855Y-51292171D01*
X316027485Y-51369171D01*
X316007643Y-51387067D01*
X315927295Y-51424994D01*
X315833661Y-51417156D01*
X315723456Y-51362069D01*
X315593394Y-51258253D01*
X315440191Y-51104226D01*
X315355397Y-51012535D01*
X315235570Y-50883192D01*
X315097489Y-50734316D01*
X314952232Y-50577852D01*
X314810879Y-50425743D01*
X314799552Y-50413551D01*
X314669026Y-50271732D01*
X314545772Y-50135560D01*
X314437928Y-50014186D01*
X314353630Y-49916758D01*
X314301016Y-49852429D01*
X314251750Y-49791496D01*
X314199414Y-49735959D01*
X314168327Y-49714543D01*
X314155598Y-49709641D01*
X314140628Y-49671000D01*
X314135571Y-49650693D01*
X314097085Y-49627457D01*
X314076779Y-49622399D01*
X314053543Y-49583914D01*
X314048485Y-49563608D01*
X314010000Y-49540371D01*
X313989693Y-49535314D01*
X313966457Y-49496829D01*
X313961399Y-49476522D01*
X313922914Y-49453286D01*
X313902883Y-49450011D01*
X313879371Y-49424257D01*
X313874459Y-49410903D01*
X313835828Y-49395229D01*
X313815522Y-49390171D01*
X313792285Y-49351686D01*
X313787228Y-49331379D01*
X313748743Y-49308143D01*
X313728436Y-49303085D01*
X313705200Y-49264600D01*
X313701925Y-49244569D01*
X313676171Y-49221057D01*
X313662817Y-49216145D01*
X313647143Y-49177514D01*
X313642085Y-49157208D01*
X313603600Y-49133971D01*
X313583569Y-49130696D01*
X313560057Y-49104943D01*
X313559249Y-49098034D01*
X313531996Y-49075914D01*
X313518618Y-49071361D01*
X313469129Y-49037546D01*
X313404803Y-48981571D01*
X313342869Y-48923167D01*
X313253304Y-48842541D01*
X313168894Y-48773959D01*
X313071555Y-48703079D01*
X312943200Y-48615561D01*
X312842441Y-48548798D01*
X312774691Y-48507796D01*
X312737205Y-48493355D01*
X312721053Y-48502122D01*
X312717305Y-48530744D01*
X312701924Y-48605672D01*
X312638878Y-48686349D01*
X312533732Y-48738160D01*
X312393565Y-48756177D01*
X312253993Y-48741275D01*
X312059704Y-48675775D01*
X311851822Y-48556658D01*
X311764940Y-48500801D01*
X311678634Y-48451191D01*
X311619990Y-48424132D01*
X311612144Y-48420993D01*
X311556144Y-48390871D01*
X311462515Y-48335029D01*
X311339540Y-48258594D01*
X311195504Y-48166692D01*
X311038692Y-48064450D01*
X311001491Y-48039982D01*
X310842681Y-47936425D01*
X310695662Y-47841920D01*
X310569567Y-47762250D01*
X310473528Y-47703198D01*
X310416677Y-47670547D01*
X310389969Y-47655973D01*
X310291922Y-47593235D01*
X310199689Y-47523414D01*
X310152806Y-47485167D01*
X310047847Y-47405988D01*
X309940201Y-47331371D01*
X309845722Y-47272073D01*
X309780266Y-47238851D01*
X309772004Y-47235120D01*
X309717741Y-47204132D01*
X309628880Y-47149051D01*
X309515675Y-47076325D01*
X309388380Y-46992404D01*
X309347632Y-46965315D01*
X309223603Y-46884152D01*
X309116849Y-46816165D01*
X309037635Y-46767813D01*
X308996226Y-46745558D01*
X308995922Y-46745444D01*
X308952613Y-46722390D01*
X308872633Y-46674007D01*
X308767287Y-46607312D01*
X308647883Y-46529325D01*
X308533196Y-46455025D01*
X308402370Y-46373912D01*
X308287391Y-46306266D01*
X308204285Y-46261756D01*
X308175301Y-46246853D01*
X308082143Y-46193621D01*
X307959358Y-46118858D01*
X307819539Y-46030323D01*
X307675281Y-45935778D01*
X307593113Y-45881288D01*
X307470293Y-45801267D01*
X307369418Y-45737316D01*
X307299203Y-45694922D01*
X307268362Y-45679571D01*
X307258139Y-45676860D01*
X307208225Y-45651125D01*
X307138522Y-45607010D01*
X307018097Y-45531035D01*
X306854054Y-45437198D01*
X306665771Y-45337066D01*
X306652122Y-45329753D01*
X306577287Y-45285590D01*
X306477172Y-45222680D01*
X306369539Y-45152111D01*
X306330157Y-45125988D01*
X306238756Y-45067641D01*
X306170174Y-45027103D01*
X306136923Y-45011914D01*
X306108685Y-45000233D01*
X306044992Y-44963459D01*
X305962586Y-44910314D01*
X305889872Y-44863151D01*
X305823036Y-44823821D01*
X305788415Y-44808714D01*
X305760245Y-44797029D01*
X305696618Y-44760255D01*
X305614243Y-44707114D01*
X305541548Y-44659924D01*
X305474869Y-44620572D01*
X305440459Y-44605422D01*
X305439204Y-44605292D01*
X305401832Y-44587727D01*
X305331868Y-44546337D01*
X305243371Y-44489400D01*
X305234832Y-44483731D01*
X305148067Y-44427951D01*
X305081721Y-44388419D01*
X305049559Y-44373378D01*
X305035342Y-44367826D01*
X304979463Y-44337791D01*
X304893233Y-44287556D01*
X304788302Y-44223791D01*
X304731535Y-44188860D01*
X304618695Y-44120481D01*
X304522648Y-44063590D01*
X304459600Y-44027849D01*
X304452967Y-44024263D01*
X304392848Y-43986940D01*
X304362838Y-43959629D01*
X304355440Y-43950862D01*
X304312038Y-43937857D01*
X304294248Y-43934983D01*
X304270914Y-43908829D01*
X304266842Y-43896271D01*
X304229790Y-43879800D01*
X304212408Y-43877946D01*
X304178990Y-43858029D01*
X304168698Y-43848611D01*
X304116201Y-43815617D01*
X304030176Y-43767737D01*
X303922571Y-43711785D01*
X303773786Y-43636238D01*
X303586911Y-43539822D01*
X303424685Y-43454336D01*
X303293967Y-43383455D01*
X303201620Y-43330856D01*
X303154503Y-43300215D01*
X303123288Y-43278945D01*
X303050532Y-43236489D01*
X302960000Y-43188151D01*
X302900165Y-43156256D01*
X302779187Y-43086448D01*
X302674343Y-43020067D01*
X302632603Y-42992863D01*
X302513333Y-42922403D01*
X302398571Y-42862473D01*
X302341320Y-42834300D01*
X302260045Y-42790612D01*
X302209885Y-42758798D01*
X302186859Y-42742580D01*
X302117513Y-42700315D01*
X302031325Y-42652549D01*
X301982270Y-42625790D01*
X301904634Y-42579941D01*
X301857154Y-42547173D01*
X301834839Y-42531153D01*
X301767301Y-42488626D01*
X301670330Y-42430837D01*
X301556743Y-42365536D01*
X301477646Y-42320208D01*
X301380294Y-42262410D01*
X301310936Y-42218718D01*
X301280971Y-42196138D01*
X301262084Y-42182099D01*
X301199750Y-42145812D01*
X301105448Y-42095165D01*
X300990685Y-42036486D01*
X300902518Y-41991643D01*
X300802153Y-41938436D01*
X300730944Y-41898035D01*
X300700400Y-41876773D01*
X300696409Y-41873120D01*
X300652692Y-41846176D01*
X300569737Y-41800564D01*
X300457436Y-41741620D01*
X300325679Y-41674677D01*
X300288017Y-41655738D01*
X300157723Y-41588801D01*
X300047670Y-41530130D01*
X299968489Y-41485489D01*
X299930809Y-41460639D01*
X299926419Y-41457018D01*
X299878165Y-41427336D01*
X299790838Y-41379593D01*
X299675247Y-41319564D01*
X299542200Y-41253023D01*
X299188255Y-41079159D01*
X299196842Y-40962737D01*
X299198962Y-40936293D01*
X299210808Y-40874653D01*
X299241550Y-40848305D01*
X299307028Y-40839542D01*
X299336002Y-40839893D01*
G37*
%TD*%
M02*
