M48
; DRILL file {KiCad (6.0.1)} date Wed Jul 13 18:13:42 2022
; FORMAT={-:-/ absolute / inch / decimal}
; #@! TF.CreationDate,2022-07-13T18:13:42-04:00
; #@! TF.GenerationSoftware,Kicad,Pcbnew,(6.0.1)
; #@! TF.FileFunction,Plated,1,2,PTH
FMAT,2
INCH
; #@! TA.AperFunction,Plated,PTH,ViaDrill
T1C0.0157
; #@! TA.AperFunction,Plated,PTH,ComponentDrill
T2C0.0157
; #@! TA.AperFunction,Plated,PTH,ComponentDrill
T3C0.0236
; #@! TA.AperFunction,Plated,PTH,ComponentDrill
T4C0.0276
; #@! TA.AperFunction,Plated,PTH,ComponentDrill
T5C0.0315
; #@! TA.AperFunction,Plated,PTH,ComponentDrill
T6C0.0354
; #@! TA.AperFunction,Plated,PTH,ComponentDrill
T7C0.0394
; #@! TA.AperFunction,Plated,PTH,ComponentDrill
T8C0.0402
; #@! TA.AperFunction,Plated,PTH,ComponentDrill
T9C0.0579
; #@! TA.AperFunction,Plated,PTH,ComponentDrill
T10C0.0591
; #@! TA.AperFunction,Plated,PTH,ComponentDrill
T11C0.0866
; #@! TA.AperFunction,Plated,PTH,ComponentDrill
T12C0.1024
%
G90
G05
T1
X8.8191Y-1.2754
X8.9545Y-1.4659
X9.1269Y-1.7903
X9.2512Y-1.2937
X9.556Y-1.4614
X9.611Y-1.7937
X9.6186Y-1.8668
X9.9658Y-2.8596
X10.0979Y-2.7988
X10.9328Y-2.8801
X11.0979Y-3.7039
X12.1511Y-2.8834
X12.6407Y-4.602
X13.0776Y-3.1907
T2
X8.5768Y-1.3504
X8.577Y-1.4026
X8.6102Y-1.3504
X8.6104Y-1.4026
X8.6437Y-1.3504
X8.6439Y-1.4026
X8.6772Y-1.3504
X8.6774Y-1.4026
X8.7106Y-1.3504
X8.7108Y-1.4026
X8.7441Y-1.3504
X8.7443Y-1.4026
X8.7776Y-1.3504
X8.7778Y-1.4026
X8.8112Y-1.3504
X8.8112Y-1.4026
T4
X9.2505Y-1.6219
X9.2678Y-1.7848
X9.2891Y-1.9591
X9.3155Y-2.1296
X9.3385Y-2.304
X9.4627Y-1.4098
X9.4799Y-1.5727
X9.5012Y-1.747
X9.5276Y-1.9175
X9.5506Y-2.0919
T5
X2.6375Y-1.4872
X2.6375Y-1.6094
X2.6387Y-1.7384
X2.6401Y-1.9921
X2.6401Y-2.1195
X2.6412Y-1.8671
X2.8375Y-1.4872
X2.8375Y-1.6094
X2.8387Y-1.7384
X2.8401Y-1.9921
X2.8401Y-2.1195
X2.8412Y-1.8671
X3.0495Y-1.9329
X3.0495Y-2.0602
X3.05Y-1.8008
X3.0509Y-1.5476
X3.0521Y-1.6738
X3.2495Y-1.9329
X3.2495Y-2.0602
X3.25Y-1.8008
X3.2509Y-1.5476
X3.2521Y-1.6738
X3.4554Y-1.8661
X3.4554Y-1.9935
X3.4568Y-1.7411
X3.4568Y-2.1236
X3.458Y-1.4823
X3.458Y-1.6085
X3.6554Y-1.8661
X3.6554Y-1.9935
X3.6568Y-1.7411
X3.6568Y-2.1236
X3.658Y-1.4823
X3.658Y-1.6085
X3.8716Y-1.5402
X3.8727Y-1.6703
X3.8735Y-1.8022
X3.8741Y-2.0669
X3.8753Y-1.937
X4.0716Y-1.5402
X4.0727Y-1.6703
X4.0735Y-1.8022
X4.0741Y-2.0669
X4.0753Y-1.937
X4.2869Y-1.6683
X4.2883Y-1.5433
X4.2883Y-1.8022
X4.292Y-1.9362
X4.292Y-2.0675
X4.4869Y-1.6683
X4.4883Y-1.5433
X4.4883Y-1.8022
X4.492Y-1.9362
X4.492Y-2.0675
X4.6977Y-1.5421
X4.6977Y-1.672
X4.6977Y-2.0663
X4.6991Y-1.8022
X4.6991Y-1.9348
X4.8977Y-1.5421
X4.8977Y-1.672
X4.8977Y-2.0663
X4.8991Y-1.8022
X4.8991Y-1.9348
X5.119Y-1.4764
X5.119Y-1.7352
X5.119Y-1.8719
X5.1202Y-1.6065
X5.1216Y-2.0043
X5.1216Y-2.1384
X5.319Y-1.4764
X5.319Y-1.7352
X5.319Y-1.8719
X5.3202Y-1.6065
X5.3216Y-2.0043
X5.3216Y-2.1384
X5.5353Y-2.076
X5.5365Y-1.8041
X5.5365Y-1.94
X5.5367Y-1.6756
X5.5369Y-1.547
X5.7353Y-2.076
X5.7365Y-1.8041
X5.7365Y-1.94
X5.7367Y-1.6756
X5.7369Y-1.547
X5.9527Y-1.8059
X5.9527Y-1.9433
X5.9527Y-2.0754
X5.9532Y-1.675
X5.9536Y-1.5498
X6.1527Y-1.8059
X6.1527Y-1.9433
X6.1527Y-2.0754
X6.1532Y-1.675
X6.1536Y-1.5498
X6.3629Y-1.4843
X6.3629Y-1.6173
X6.3647Y-1.7453
X6.3655Y-1.8772
X6.3655Y-2.0077
X6.366Y-2.1445
X6.5629Y-1.4843
X6.5629Y-1.6173
X6.5647Y-1.7453
X6.5655Y-1.8772
X6.5655Y-2.0077
X6.566Y-2.1445
X6.784Y-2.0075
X6.784Y-2.1441
X6.7865Y-1.4833
X6.7865Y-1.7461
X6.7865Y-1.8774
X6.7877Y-1.6159
X6.984Y-2.0075
X6.984Y-2.1441
X6.9865Y-1.4833
X6.9865Y-1.7461
X6.9865Y-1.8774
X6.9877Y-1.6159
X7.2025Y-2.0835
X7.2038Y-1.6868
X7.205Y-1.553
X7.205Y-1.8195
X7.205Y-1.9522
X7.4025Y-2.0835
X7.4038Y-1.6868
X7.405Y-1.553
X7.405Y-1.8195
X7.405Y-1.9522
X7.6164Y-1.8191
X7.6172Y-1.6876
X7.6172Y-1.9514
X7.6178Y-1.5543
X7.619Y-2.0827
X7.8164Y-1.8191
X7.8172Y-1.6876
X7.8172Y-1.9514
X7.8178Y-1.5543
X7.819Y-2.0827
X11.9281Y-2.486
X11.9315Y-2.3537
X11.9319Y-2.2311
X12.1281Y-2.486
X12.1315Y-2.3537
X12.1319Y-2.2311
X12.333Y-2.4811
X12.3338Y-2.3563
X12.3351Y-2.2313
X12.533Y-2.4811
X12.5338Y-2.3563
X12.5351Y-2.2313
X12.7466Y-2.3514
X12.7466Y-2.4837
X12.7477Y-2.2311
X12.9466Y-2.3514
X12.9466Y-2.4837
X12.9477Y-2.2311
X13.1618Y-2.4909
X13.1639Y-2.235
X13.1647Y-2.3579
X13.3618Y-2.4909
X13.3639Y-2.235
X13.3647Y-2.3579
T6
X9.0557Y-1.3222
X9.1557Y-1.3222
T7
X7.6167Y-1.2215
X7.7939Y-1.2215
X8.0102Y-1.222
X8.1874Y-1.222
X9.7638Y-1.7964
X9.7638Y-1.8764
X11.9325Y-1.6478
X11.9325Y-1.7478
X11.9325Y-1.8478
X11.9325Y-1.9478
X13.6219Y-1.8805
X13.6219Y-1.9789
X13.6219Y-2.0774
X14.1927Y-1.8805
X14.1927Y-2.0774
T8
X9.7636Y-1.4864
X9.7636Y-2.1864
X9.8636Y-1.4864
X9.8636Y-2.1864
X9.9636Y-1.4864
X9.9636Y-2.1864
X10.0636Y-1.4864
X10.0636Y-2.1864
X10.1636Y-1.4864
X10.1636Y-2.1864
X10.2636Y-1.4864
X10.2636Y-2.1864
X10.3636Y-1.4864
X10.3636Y-2.1864
X10.4636Y-1.4864
X10.4636Y-2.1864
X10.5636Y-1.4864
X10.5636Y-2.1864
X10.6636Y-1.4864
X10.6636Y-2.1864
X10.7636Y-1.4864
X10.7636Y-2.1864
X10.8636Y-1.4864
X10.8636Y-2.1864
X10.9636Y-1.4864
X10.9636Y-2.1864
X11.0636Y-1.4864
X11.0636Y-2.1864
X11.1636Y-1.4864
X11.1636Y-2.1864
X11.2636Y-1.4864
X11.2636Y-2.1864
X11.3636Y-1.4864
X11.3636Y-2.1864
X11.4636Y-1.4864
X11.4636Y-2.1864
X11.5636Y-1.4864
X11.5636Y-2.1864
X11.6545Y-1.7364
X11.6545Y-1.8364
X11.6545Y-1.9364
X11.6636Y-1.4864
X11.6636Y-2.1864
T9
X2.4671Y-2.9085
X2.4671Y-3.8443
X2.5606Y-6.8445
X2.6545Y-4.5945
X2.7171Y-2.8085
X2.7171Y-3.7443
X2.7482Y-5.3445
X2.8106Y-6.7445
X2.9045Y-4.4945
X2.9356Y-6.0945
X2.9982Y-5.2445
X3.1856Y-5.9945
X3.2171Y-3.8443
X3.4671Y-3.7443
X3.498Y-6.8445
X3.5919Y-4.5943
X3.7169Y-2.9085
X3.748Y-6.7445
X3.7795Y-5.3443
X3.8419Y-4.4943
X3.9669Y-2.8085
X3.9671Y-3.8443
X4.0295Y-5.2443
X4.1543Y-6.0943
X4.2171Y-3.7443
X4.3419Y-4.5943
X4.4043Y-5.9943
X4.4356Y-6.8443
X4.4669Y-2.9085
X4.5295Y-5.3443
X4.5919Y-4.4943
X4.6856Y-6.7443
X4.7169Y-2.8085
X4.7171Y-3.8443
X4.7795Y-5.2443
X4.9043Y-6.0943
X4.9671Y-3.7443
X5.0919Y-4.5943
X5.1543Y-5.9943
X5.2169Y-2.9085
X5.2795Y-5.3443
X5.3419Y-4.4943
X5.4669Y-2.8085
X5.4671Y-3.8443
X5.5295Y-5.2443
X5.6543Y-6.0943
X5.7171Y-3.7443
X5.8419Y-4.5943
X5.9043Y-5.9943
X5.9669Y-2.9085
X6.0295Y-5.3443
X6.0919Y-4.4943
X6.2169Y-2.8085
X6.2171Y-3.8443
X6.2795Y-5.2443
X6.4043Y-6.0943
X6.4671Y-3.7443
X6.5919Y-4.5943
X6.6543Y-5.9943
X6.7795Y-5.3443
X6.8419Y-4.4943
X6.9671Y-3.8443
X7.0295Y-5.2443
X7.1543Y-6.0943
X7.2171Y-3.7443
X7.2173Y-2.9081
X7.248Y-6.8443
X7.3419Y-4.5943
X7.4043Y-5.9943
X7.4673Y-2.8081
X7.498Y-6.7443
X7.5295Y-5.3443
X7.5919Y-4.4943
X7.7171Y-3.8443
X7.7795Y-5.2443
X7.9043Y-6.0943
X7.9671Y-3.7443
X7.9673Y-2.9081
X8.0919Y-4.5943
X8.1543Y-5.9943
X8.2173Y-2.8081
X8.2795Y-5.3443
X8.3419Y-4.4943
X8.4671Y-3.8443
X8.5295Y-5.2443
X8.6543Y-6.0943
X8.7171Y-3.7443
X8.7173Y-2.9081
X8.8419Y-4.5943
X8.9043Y-5.9943
X8.9673Y-2.8081
X9.0295Y-5.3443
X9.0919Y-4.4943
X9.2171Y-3.8443
X9.2795Y-5.2443
X9.4043Y-6.0943
X9.4671Y-3.7443
X9.4673Y-2.9081
X9.5919Y-4.5943
X9.6543Y-5.9943
X9.7173Y-2.8081
X9.7795Y-5.3443
X9.8419Y-4.4943
X9.9667Y-6.8443
X9.9671Y-3.8443
X10.0295Y-5.2443
X10.1543Y-6.0943
X10.2167Y-6.7443
X10.2171Y-3.7443
X10.3419Y-4.5943
X10.4043Y-5.9943
X10.5295Y-5.3443
X10.5919Y-4.4943
X10.7165Y-2.9087
X10.7167Y-6.8443
X10.7171Y-3.8443
X10.7795Y-5.2443
X10.9043Y-6.0943
X10.9665Y-2.8087
X10.9667Y-6.7443
X10.9671Y-3.7443
X11.0919Y-4.5943
X11.1543Y-5.9943
X11.2795Y-5.3443
X11.3419Y-4.4943
X11.4665Y-2.9085
X11.4667Y-6.8443
X11.4671Y-3.8443
X11.5295Y-5.2443
X11.7165Y-2.8085
X11.7167Y-6.7443
X11.7171Y-3.7443
X11.8419Y-4.5943
X11.9356Y-6.0943
X12.0919Y-4.4943
X12.1856Y-5.9943
X12.2165Y-2.9085
X12.3545Y-6.9821
X12.4665Y-2.8085
X12.4982Y-5.3443
X12.5921Y-3.8443
X12.6045Y-6.8821
X12.7482Y-5.2443
X12.7797Y-4.5943
X12.8421Y-3.7443
X12.9665Y-2.9085
X13.0297Y-4.4943
X13.1045Y-6.2321
X13.1045Y-6.9821
X13.2165Y-2.8085
X13.3545Y-6.1321
X13.3545Y-6.8821
X13.8545Y-6.9821
X13.9921Y-3.8441
X13.9921Y-4.5941
X13.9921Y-5.3441
X13.9921Y-6.0941
X14.1045Y-6.8821
X14.2421Y-3.7441
X14.2421Y-4.4941
X14.2421Y-5.2441
X14.2421Y-5.9941
T10
X7.5675Y-1.3199
X7.8431Y-1.3199
X7.961Y-1.3205
X8.2366Y-1.3205
T11
X2.3766Y-1.3051
X2.3801Y-6.5169
X2.637Y-3.4758
X7.2907Y-1.2821
X8.552Y-3.4764
X8.572Y-7.2211
X14.1039Y-3.4758
X14.1374Y-6.6384
X14.3656Y-1.3161
T12
X13.9171Y-1.7585
X13.9171Y-2.1994
T3
G00X8.5238Y-1.2467
M15
G01X8.5238Y-1.2152
M16
G05
G00X8.5238Y-1.3935
M15
G01X8.5238Y-1.3344
M16
G05
G00X8.8644Y-1.2467
M15
G01X8.8644Y-1.2152
M16
G05
G00X8.8644Y-1.3935
M15
G01X8.8644Y-1.3344
M16
G05
T0
M30
